<svg width="554" height="53" viewBox="0 0 554 53" fill="none" xmlns="http://www.w3.org/2000/svg">
<path d="M242.732 12.084C242.212 12.084 241.7 11.992 241.196 11.808C240.692 11.616 240.268 11.356 239.924 11.028L240.296 10.272C240.688 10.592 241.084 10.836 241.484 11.004C241.892 11.172 242.308 11.256 242.732 11.256C243.332 11.256 243.8 11.088 244.136 10.752C244.48 10.408 244.652 9.944 244.652 9.36C244.652 8.984 244.576 8.656 244.424 8.376C244.272 8.088 244.056 7.864 243.776 7.704C243.504 7.544 243.18 7.464 242.804 7.464C242.396 7.464 242.028 7.548 241.7 7.716C241.38 7.876 241.096 8.124 240.848 8.46H240.164V3.456H245.288V4.272H241.148V7.728L240.836 7.692C241.068 7.356 241.364 7.096 241.724 6.912C242.092 6.728 242.504 6.636 242.96 6.636C243.504 6.636 243.976 6.752 244.376 6.984C244.776 7.208 245.084 7.524 245.3 7.932C245.516 8.34 245.624 8.812 245.624 9.348C245.624 9.884 245.504 10.36 245.264 10.776C245.032 11.184 244.7 11.504 244.268 11.736C243.836 11.968 243.324 12.084 242.732 12.084ZM250.027 12.084C249.507 12.084 248.995 11.992 248.491 11.808C247.987 11.616 247.563 11.356 247.219 11.028L247.591 10.272C247.983 10.592 248.379 10.836 248.779 11.004C249.187 11.172 249.603 11.256 250.027 11.256C250.627 11.256 251.095 11.088 251.431 10.752C251.775 10.408 251.947 9.944 251.947 9.36C251.947 8.984 251.871 8.656 251.719 8.376C251.567 8.088 251.351 7.864 251.071 7.704C250.799 7.544 250.475 7.464 250.099 7.464C249.691 7.464 249.323 7.548 248.995 7.716C248.675 7.876 248.391 8.124 248.143 8.46H247.459V3.456H252.583V4.272H248.443V7.728L248.131 7.692C248.363 7.356 248.659 7.096 249.019 6.912C249.387 6.728 249.799 6.636 250.255 6.636C250.799 6.636 251.271 6.752 251.671 6.984C252.071 7.208 252.379 7.524 252.595 7.932C252.811 8.34 252.919 8.812 252.919 9.348C252.919 9.884 252.799 10.36 252.559 10.776C252.327 11.184 251.995 11.504 251.563 11.736C251.131 11.968 250.619 12.084 250.027 12.084ZM255.871 8.628C255.287 8.628 254.823 8.412 254.479 7.98C254.143 7.548 253.975 6.892 253.975 6.012C253.975 5.124 254.143 4.468 254.479 4.044C254.823 3.62 255.287 3.408 255.871 3.408C256.455 3.408 256.915 3.62 257.251 4.044C257.587 4.468 257.755 5.124 257.755 6.012C257.755 6.892 257.587 7.548 257.251 7.98C256.915 8.412 256.455 8.628 255.871 8.628ZM255.871 7.932C256.207 7.932 256.455 7.78 256.615 7.476C256.783 7.172 256.867 6.684 256.867 6.012C256.867 5.348 256.783 4.864 256.615 4.56C256.455 4.256 256.207 4.104 255.871 4.104C255.535 4.104 255.283 4.256 255.115 4.56C254.955 4.864 254.875 5.348 254.875 6.012C254.875 6.684 254.955 7.172 255.115 7.476C255.283 7.78 255.535 7.932 255.871 7.932ZM255.715 12L260.659 3.456H261.583L256.651 12H255.715ZM261.427 12.048C260.843 12.048 260.379 11.832 260.035 11.4C259.699 10.968 259.531 10.312 259.531 9.432C259.531 8.544 259.699 7.888 260.035 7.464C260.379 7.04 260.843 6.828 261.427 6.828C262.011 6.828 262.471 7.04 262.807 7.464C263.143 7.888 263.311 8.544 263.311 9.432C263.311 10.312 263.143 10.968 262.807 11.4C262.471 11.832 262.011 12.048 261.427 12.048ZM261.427 11.352C261.763 11.352 262.011 11.2 262.171 10.896C262.339 10.592 262.423 10.104 262.423 9.432C262.423 8.768 262.339 8.284 262.171 7.98C262.011 7.676 261.763 7.524 261.427 7.524C261.091 7.524 260.839 7.676 260.671 7.98C260.511 8.284 260.431 8.768 260.431 9.432C260.431 10.104 260.511 10.592 260.671 10.896C260.839 11.2 261.091 11.352 261.427 11.352ZM267.969 12V7.656C267.969 7.376 267.961 7.096 267.945 6.816C267.937 6.528 267.913 6.244 267.873 5.964H268.797L268.905 7.212L268.785 7.308C268.953 6.82 269.233 6.452 269.625 6.204C270.017 5.948 270.469 5.82 270.981 5.82C272.429 5.82 273.153 6.616 273.153 8.208V12H272.181V8.256C272.181 7.696 272.069 7.288 271.845 7.032C271.621 6.768 271.269 6.636 270.789 6.636C270.229 6.636 269.781 6.808 269.445 7.152C269.109 7.496 268.941 7.96 268.941 8.544V12H267.969ZM277.584 12.084C277.008 12.084 276.504 11.956 276.072 11.7C275.648 11.444 275.316 11.084 275.076 10.62C274.844 10.148 274.728 9.592 274.728 8.952C274.728 8.32 274.844 7.768 275.076 7.296C275.316 6.824 275.648 6.46 276.072 6.204C276.504 5.948 277.008 5.82 277.584 5.82C278.16 5.82 278.66 5.948 279.084 6.204C279.516 6.46 279.848 6.824 280.08 7.296C280.32 7.768 280.44 8.32 280.44 8.952C280.44 9.592 280.32 10.148 280.08 10.62C279.848 11.084 279.516 11.444 279.084 11.7C278.66 11.956 278.16 12.084 277.584 12.084ZM277.584 11.28C278.176 11.28 278.632 11.084 278.952 10.692C279.28 10.292 279.444 9.712 279.444 8.952C279.444 8.208 279.28 7.636 278.952 7.236C278.624 6.836 278.168 6.636 277.584 6.636C277 6.636 276.54 6.836 276.204 7.236C275.876 7.636 275.712 8.208 275.712 8.952C275.712 9.712 275.872 10.292 276.192 10.692C276.52 11.084 276.984 11.28 277.584 11.28ZM281.192 6.732V5.964H285.068V6.732H281.192ZM285.044 11.136V11.964C284.908 12.004 284.772 12.032 284.636 12.048C284.508 12.072 284.364 12.084 284.204 12.084C283.644 12.084 283.196 11.924 282.86 11.604C282.532 11.284 282.368 10.804 282.368 10.164V4.416L283.34 4.068V10.032C283.34 10.352 283.384 10.6 283.472 10.776C283.568 10.952 283.696 11.076 283.856 11.148C284.016 11.212 284.196 11.244 284.396 11.244C284.516 11.244 284.624 11.236 284.72 11.22C284.816 11.204 284.924 11.176 285.044 11.136ZM292.1 12.084C291.508 12.084 290.996 11.956 290.564 11.7C290.132 11.444 289.796 11.084 289.556 10.62C289.324 10.156 289.208 9.608 289.208 8.976C289.208 8.352 289.328 7.804 289.568 7.332C289.808 6.852 290.148 6.48 290.588 6.216C291.028 5.952 291.548 5.82 292.148 5.82C292.556 5.82 292.948 5.892 293.324 6.036C293.708 6.172 294.024 6.364 294.272 6.612L293.948 7.332C293.652 7.1 293.36 6.928 293.072 6.816C292.792 6.696 292.5 6.636 292.196 6.636C291.588 6.636 291.104 6.84 290.744 7.248C290.392 7.656 290.216 8.232 290.216 8.976C290.216 9.712 290.392 10.28 290.744 10.68C291.096 11.08 291.58 11.28 292.196 11.28C292.492 11.28 292.784 11.224 293.072 11.112C293.36 10.992 293.652 10.816 293.948 10.584L294.272 11.304C294.016 11.544 293.692 11.736 293.3 11.88C292.916 12.016 292.516 12.084 292.1 12.084ZM297.925 12.084C297.389 12.084 296.917 11.96 296.509 11.712C296.109 11.456 295.797 11.096 295.573 10.632C295.357 10.16 295.249 9.608 295.249 8.976C295.249 8.344 295.361 7.792 295.585 7.32C295.809 6.848 296.121 6.48 296.521 6.216C296.929 5.952 297.397 5.82 297.925 5.82C298.477 5.82 298.945 5.956 299.329 6.228C299.713 6.5 299.973 6.888 300.109 7.392L299.965 7.488V5.964H300.925V12H299.965V10.44L300.109 10.512C299.973 11.016 299.713 11.404 299.329 11.676C298.945 11.948 298.477 12.084 297.925 12.084ZM298.117 11.28C298.709 11.28 299.165 11.08 299.485 10.68C299.805 10.272 299.965 9.696 299.965 8.952C299.965 8.208 299.801 7.636 299.473 7.236C299.153 6.836 298.701 6.636 298.117 6.636C297.525 6.636 297.061 6.844 296.725 7.26C296.397 7.668 296.233 8.24 296.233 8.976C296.233 9.712 296.397 10.28 296.725 10.68C297.061 11.08 297.525 11.28 298.117 11.28ZM302.905 12V7.656C302.905 7.376 302.897 7.096 302.881 6.816C302.873 6.528 302.849 6.244 302.809 5.964H303.733L303.841 7.212L303.721 7.308C303.889 6.82 304.169 6.452 304.561 6.204C304.953 5.948 305.405 5.82 305.917 5.82C307.365 5.82 308.089 6.616 308.089 8.208V12H307.117V8.256C307.117 7.696 307.005 7.288 306.781 7.032C306.557 6.768 306.205 6.636 305.725 6.636C305.165 6.636 304.717 6.808 304.381 7.152C304.045 7.496 303.877 7.96 303.877 8.544V12H302.905ZM310.024 12V7.656C310.024 7.376 310.016 7.096 310 6.816C309.992 6.528 309.968 6.244 309.928 5.964H310.852L310.96 7.212L310.84 7.308C311.008 6.82 311.288 6.452 311.68 6.204C312.072 5.948 312.524 5.82 313.036 5.82C314.484 5.82 315.208 6.616 315.208 8.208V12H314.236V8.256C314.236 7.696 314.124 7.288 313.9 7.032C313.676 6.768 313.324 6.636 312.844 6.636C312.284 6.636 311.836 6.808 311.5 7.152C311.164 7.496 310.996 7.96 310.996 8.544V12H310.024ZM317.144 12V5.964H318.116V12H317.144ZM317.048 3.408H318.236V4.512H317.048V3.408ZM320.103 12V3.168H321.075V7.512L320.943 7.392C321.079 6.896 321.339 6.512 321.723 6.24C322.107 5.96 322.571 5.82 323.115 5.82C323.651 5.82 324.119 5.948 324.519 6.204C324.919 6.46 325.231 6.82 325.455 7.284C325.687 7.748 325.803 8.296 325.803 8.928C325.803 9.56 325.687 10.116 325.455 10.596C325.231 11.068 324.915 11.436 324.507 11.7C324.107 11.956 323.643 12.084 323.115 12.084C322.571 12.084 322.107 11.948 321.723 11.676C321.339 11.404 321.079 11.016 320.943 10.512L321.075 10.38V12H320.103ZM322.935 11.28C323.519 11.28 323.975 11.076 324.303 10.668C324.631 10.252 324.795 9.672 324.795 8.928C324.795 8.2 324.631 7.636 324.303 7.236C323.975 6.836 323.519 6.636 322.935 6.636C322.335 6.636 321.875 6.84 321.555 7.248C321.235 7.648 321.075 8.216 321.075 8.952C321.075 9.696 321.235 10.272 321.555 10.68C321.875 11.08 322.335 11.28 322.935 11.28ZM329.715 12.084C329.179 12.084 328.707 11.96 328.299 11.712C327.899 11.456 327.587 11.096 327.363 10.632C327.147 10.16 327.039 9.608 327.039 8.976C327.039 8.344 327.151 7.792 327.375 7.32C327.599 6.848 327.911 6.48 328.311 6.216C328.719 5.952 329.187 5.82 329.715 5.82C330.267 5.82 330.735 5.956 331.119 6.228C331.503 6.5 331.763 6.888 331.899 7.392L331.755 7.488V5.964H332.715V12H331.755V10.44L331.899 10.512C331.763 11.016 331.503 11.404 331.119 11.676C330.735 11.948 330.267 12.084 329.715 12.084ZM329.907 11.28C330.499 11.28 330.955 11.08 331.275 10.68C331.595 10.272 331.755 9.696 331.755 8.952C331.755 8.208 331.591 7.636 331.263 7.236C330.943 6.836 330.491 6.636 329.907 6.636C329.315 6.636 328.851 6.844 328.515 7.26C328.187 7.668 328.023 8.24 328.023 8.976C328.023 9.712 328.187 10.28 328.515 10.68C328.851 11.08 329.315 11.28 329.907 11.28ZM334.694 12V3.168H335.666V12H334.694ZM337.653 12V5.964H338.625V12H337.653ZM337.557 3.408H338.745V4.512H337.557V3.408ZM340.277 12V11.328L344.405 6.336L344.561 6.732H340.409V5.964H345.245V6.672L341.141 11.64L341.009 11.232H345.377V12H340.277ZM351.727 11.28C351.463 11.528 351.123 11.724 350.707 11.868C350.299 12.012 349.879 12.084 349.447 12.084C348.823 12.084 348.283 11.96 347.827 11.712C347.379 11.464 347.031 11.108 346.783 10.644C346.543 10.172 346.423 9.612 346.423 8.964C346.423 8.34 346.543 7.792 346.783 7.32C347.023 6.848 347.355 6.48 347.779 6.216C348.211 5.952 348.707 5.82 349.267 5.82C349.803 5.82 350.263 5.94 350.647 6.18C351.031 6.412 351.323 6.748 351.523 7.188C351.731 7.628 351.835 8.156 351.835 8.772V8.952H347.275V8.316H351.283L350.971 8.76C350.987 8.056 350.847 7.516 350.551 7.14C350.263 6.764 349.839 6.576 349.279 6.576C348.695 6.576 348.235 6.784 347.899 7.2C347.571 7.608 347.407 8.176 347.407 8.904C347.407 9.688 347.579 10.28 347.923 10.68C348.275 11.08 348.787 11.28 349.459 11.28C349.811 11.28 350.147 11.224 350.467 11.112C350.795 10.992 351.107 10.812 351.403 10.572L351.727 11.28ZM358.726 12H357.766V10.38L357.91 10.512C357.774 11.016 357.514 11.404 357.13 11.676C356.746 11.948 356.278 12.084 355.726 12.084C355.198 12.084 354.73 11.956 354.322 11.7C353.922 11.436 353.61 11.068 353.386 10.596C353.162 10.116 353.05 9.56 353.05 8.928C353.05 8.296 353.158 7.748 353.374 7.284C353.598 6.82 353.91 6.46 354.31 6.204C354.718 5.948 355.19 5.82 355.726 5.82C356.278 5.82 356.746 5.96 357.13 6.24C357.514 6.512 357.774 6.896 357.91 7.392L357.754 7.512V3.168H358.726V12ZM355.918 11.28C356.502 11.28 356.954 11.08 357.274 10.68C357.602 10.272 357.766 9.696 357.766 8.952C357.766 8.216 357.606 7.648 357.286 7.248C356.966 6.84 356.51 6.636 355.918 6.636C355.326 6.636 354.862 6.836 354.526 7.236C354.198 7.636 354.034 8.2 354.034 8.928C354.034 9.672 354.198 10.252 354.526 10.668C354.862 11.076 355.326 11.28 355.918 11.28Z" fill="#0E2446"/>
<path d="M303.2 22L299.043 16H307.357L303.2 22Z" fill="#E8E8E8"/>
<rect x="7" y="29" width="547" height="16" rx="8" fill="#E1E9F1"/>
<g filter="url(#filter0_d)">
<rect x="7" y="29" width="379" height="16" rx="8" fill="#007EFF"/>
</g>
<defs>
<filter id="filter0_d" x="0" y="21" width="395" height="32" filterUnits="userSpaceOnUse" color-interpolation-filters="sRGB">
<feFlood flood-opacity="0" result="BackgroundImageFix"/>
<feColorMatrix in="SourceAlpha" type="matrix" values="0 0 0 0 0 0 0 0 0 0 0 0 0 0 0 0 0 0 127 0"/>
<feOffset dx="1"/>
<feGaussianBlur stdDeviation="4"/>
<feColorMatrix type="matrix" values="0 0 0 0 0 0 0 0 0 0 0 0 0 0 0 0 0 0 0.1 0"/>
<feBlend mode="normal" in2="BackgroundImageFix" result="effect1_dropShadow"/>
<feBlend mode="normal" in="SourceGraphic" in2="effect1_dropShadow" result="shape"/>
</filter>
</defs>
</svg>
