<svg width="238" height="307" viewBox="0 0 238 307" fill="none" xmlns="http://www.w3.org/2000/svg">
<path fill-rule="evenodd" clip-rule="evenodd" d="M0 60.4818H51.8416V306.337H0V60.4818ZM124.106 102.898H175.947V306.337H124.106V102.898ZM186.158 184.587H238V306.337H186.158V184.587ZM113.894 146.099H62.0528V306.337H113.894V146.099Z" fill="url(#paint0_linear)"/>
<path d="M212.864 117.822L146.099 58.1254L89.5441 88.7591L24.3494 3.9274" stroke="#3799FD" stroke-width="3" stroke-linejoin="round"/>
<path fill-rule="evenodd" clip-rule="evenodd" d="M18.8514 6.28383C18.8514 9.75429 21.6648 12.5677 25.1352 12.5677C28.6057 12.5677 31.4191 9.75429 31.4191 6.28383C31.4191 2.81336 28.6057 0 25.1352 0C21.6648 0 18.8514 2.81336 18.8514 6.28383ZM89.5445 93.4719C86.074 93.4719 83.2607 90.6586 83.2607 87.1881C83.2607 83.7177 86.074 80.9043 89.5445 80.9043C93.0149 80.9043 95.8283 83.7177 95.8283 87.1881C95.8283 90.6586 93.0149 93.4719 89.5445 93.4719ZM212.865 124.106C209.394 124.106 206.581 121.292 206.581 117.822C206.581 114.351 209.394 111.538 212.865 111.538C216.335 111.538 219.148 114.351 219.148 117.822C219.148 121.292 216.335 124.106 212.865 124.106ZM146.099 66.7657C142.628 66.7657 139.815 63.9523 139.815 60.4818C139.815 57.0114 142.628 54.198 146.099 54.198C149.569 54.198 152.383 57.0114 152.383 60.4818C152.383 63.9523 149.569 66.7657 146.099 66.7657Z" fill="url(#paint1_linear)"/>
<defs>
<linearGradient id="paint0_linear" x1="-1.52977e-06" y1="241.927" x2="238" y2="241.927" gradientUnits="userSpaceOnUse">
<stop stop-color="#2591FF"/>
<stop offset="1" stop-color="#007EFF"/>
</linearGradient>
<linearGradient id="paint1_linear" x1="18.8514" y1="91.5923" x2="219.148" y2="91.5923" gradientUnits="userSpaceOnUse">
<stop stop-color="#9FC9F5"/>
<stop offset="1" stop-color="#3D98F4"/>
</linearGradient>
</defs>
</svg>
