<svg width="624" height="181" viewBox="0 0 624 181" fill="none" xmlns="http://www.w3.org/2000/svg">
<rect x="0.5" y="0.5" width="623" height="53" rx="3.5" stroke="#D9E0F2"/>
<rect x="237.5" y="78.5" width="217" height="53" rx="3.5" stroke="#D9E0F2"/>
<rect x="0.5" y="78.5" width="217" height="53" rx="3.5" stroke="#D9E0F2"/>
<rect x="474" y="78" width="150" height="54" rx="4" fill="#EEF4FA"/>
<path d="M431.546 110.002L437.776 103.771C437.921 103.627 438 103.435 438 103.23C438 103.025 437.921 102.832 437.776 102.688L437.318 102.229C437.019 101.931 436.533 101.931 436.235 102.229L431.003 107.461L425.765 102.224C425.621 102.08 425.429 102 425.224 102C425.019 102 424.827 102.08 424.682 102.224L424.224 102.682C424.079 102.827 424 103.019 424 103.224C424 103.429 424.079 103.621 424.224 103.766L430.459 110.002C430.604 110.146 430.797 110.225 431.003 110.225C431.209 110.225 431.402 110.146 431.546 110.002Z" fill="#007EFF"/>
<path d="M196.546 110.002L202.776 103.771C202.921 103.627 203 103.435 203 103.23C203 103.025 202.921 102.832 202.776 102.688L202.318 102.229C202.019 101.931 201.533 101.931 201.235 102.229L196.003 107.461L190.765 102.224C190.621 102.08 190.429 102 190.224 102C190.019 102 189.827 102.08 189.682 102.224L189.224 102.682C189.079 102.827 189 103.019 189 103.224C189 103.429 189.079 103.621 189.224 103.766L195.459 110.002C195.604 110.146 195.797 110.225 196.003 110.225C196.209 110.225 196.402 110.146 196.546 110.002Z" fill="#007EFF"/>
<path d="M269 118C275.627 118 281 112.627 281 106C281 99.3726 275.627 94 269 94C262.373 94 257 99.3726 257 106C257 112.627 262.373 118 269 118Z" fill="#F0F0F0"/>
<path d="M268.478 106H280.999C280.999 104.917 280.855 103.868 280.586 102.87H268.478V106Z" fill="#D80027"/>
<path d="M268.478 99.7391H279.238C278.503 98.5404 277.564 97.4809 276.469 96.6086H268.478V99.7391Z" fill="#D80027"/>
<path d="M269 118C271.824 118 274.42 117.024 276.47 115.391H261.53C263.58 117.024 266.176 118 269 118Z" fill="#D80027"/>
<path d="M258.761 112.261H279.238C279.828 111.299 280.286 110.247 280.586 109.13H257.413C257.714 110.247 258.171 111.299 258.761 112.261Z" fill="#D80027"/>
<path d="M262.559 95.874H263.652L262.635 96.613L263.024 97.8087L262.006 97.0697L260.989 97.8087L261.325 96.7757C260.429 97.5217 259.644 98.3958 258.997 99.3696H259.348L258.7 99.84C258.599 100.008 258.503 100.179 258.41 100.353L258.719 101.304L258.142 100.885C257.999 101.189 257.868 101.5 257.75 101.817L258.091 102.865H259.348L258.331 103.604L258.719 104.8L257.702 104.061L257.093 104.504C257.032 104.994 257 105.493 257 106H269C269 99.3726 269 98.5913 269 94C266.629 94 264.42 94.6877 262.559 95.874ZM263.024 104.8L262.006 104.061L260.989 104.8L261.378 103.604L260.361 102.865H261.618L262.006 101.67L262.395 102.865H263.652L262.635 103.604L263.024 104.8ZM262.635 100.109L263.024 101.304L262.006 100.565L260.989 101.304L261.378 100.109L260.361 99.3696H261.618L262.006 98.1739L262.395 99.3696H263.652L262.635 100.109ZM267.328 104.8L266.311 104.061L265.294 104.8L265.682 103.604L264.665 102.865H265.922L266.311 101.67L266.699 102.865H267.957L266.939 103.604L267.328 104.8ZM266.939 100.109L267.328 101.304L266.311 100.565L265.294 101.304L265.682 100.109L264.665 99.3696H265.922L266.311 98.1739L266.699 99.3696H267.957L266.939 100.109ZM266.939 96.613L267.328 97.8087L266.311 97.0697L265.294 97.8087L265.682 96.613L264.665 95.874H265.922L266.311 94.6782L266.699 95.874H267.957L266.939 96.613Z" fill="#0052B4"/>
<path d="M32 117C38.6274 117 44 111.627 44 105C44 98.3726 38.6274 93 32 93C25.3726 93 20 98.3726 20 105C20 111.627 25.3726 117 32 117Z" fill="#F0F0F0"/>
<path d="M31.4775 105H43.9993C43.9993 103.917 43.8549 102.868 43.5859 101.87H31.4775V105Z" fill="#D80027"/>
<path d="M31.4775 98.7391H42.238C41.5034 97.5404 40.5642 96.4809 39.4691 95.6086H31.4775V98.7391Z" fill="#D80027"/>
<path d="M32.0001 117C34.8243 117 37.4201 116.024 39.4699 114.391H24.5303C26.5801 116.024 29.1759 117 32.0001 117Z" fill="#D80027"/>
<path d="M21.761 111.261H42.2384C42.8282 110.299 43.2855 109.247 43.5863 108.13H20.4131C20.7139 109.247 21.1712 110.299 21.761 111.261Z" fill="#D80027"/>
<path d="M25.5586 94.874H26.6522L25.635 95.613L26.0235 96.8087L25.0064 96.0697L23.9892 96.8087L24.3249 95.7757C23.4293 96.5217 22.6443 97.3958 21.9974 98.3696H22.3478L21.7003 98.84C21.5995 99.0083 21.5027 99.1792 21.41 99.3527L21.7192 100.304L21.1423 99.8852C20.999 100.189 20.8678 100.5 20.7499 100.817L21.0905 101.865H22.3478L21.3306 102.604L21.7192 103.8L20.702 103.061L20.0928 103.504C20.0318 103.994 20 104.493 20 105H32C32 98.3726 32 97.5913 32 93C29.6294 93 27.4196 93.6877 25.5586 94.874ZM26.0235 103.8L25.0064 103.061L23.9892 103.8L24.3778 102.604L23.3606 101.865H24.6179L25.0064 100.67L25.3949 101.865H26.6522L25.635 102.604L26.0235 103.8ZM25.635 99.1086L26.0235 100.304L25.0064 99.5654L23.9892 100.304L24.3778 99.1086L23.3606 98.3696H24.6179L25.0064 97.1739L25.3949 98.3696H26.6522L25.635 99.1086ZM30.3279 103.8L29.3107 103.061L28.2936 103.8L28.6821 102.604L27.665 101.865H28.9222L29.3107 100.67L29.6992 101.865H30.9565L29.9393 102.604L30.3279 103.8ZM29.9393 99.1086L30.3279 100.304L29.3107 99.5654L28.2936 100.304L28.6821 99.1086L27.665 98.3696H28.9222L29.3107 97.1739L29.6992 98.3696H30.9565L29.9393 99.1086ZM29.9393 95.613L30.3279 96.8087L29.3107 96.0697L28.2936 96.8087L28.6821 95.613L27.665 94.874H28.9222L29.3107 93.6782L29.6992 94.874H30.9565L29.9393 95.613Z" fill="#0052B4"/>
<path d="M24.12 32.144C23.256 32.144 22.424 32.032 21.624 31.808C20.8347 31.5733 20.1787 31.248 19.656 30.832L20.456 29.04C21.5547 29.808 22.7813 30.192 24.136 30.192C24.8613 30.192 25.416 30.08 25.8 29.856C26.1947 29.6213 26.392 29.296 26.392 28.88C26.392 28.5173 26.2107 28.2347 25.848 28.032C25.496 27.8187 24.872 27.616 23.976 27.424C22.9733 27.2213 22.1733 26.976 21.576 26.688C20.9893 26.3893 20.5573 26.032 20.28 25.616C20.0133 25.1893 19.88 24.6613 19.88 24.032C19.88 23.3493 20.0667 22.736 20.44 22.192C20.824 21.648 21.3573 21.2267 22.04 20.928C22.7227 20.6187 23.512 20.464 24.408 20.464C25.2187 20.464 25.9973 20.5813 26.744 20.816C27.4907 21.0507 28.088 21.3707 28.536 21.776L27.736 23.568C26.7333 22.8 25.6293 22.416 24.424 22.416C23.784 22.416 23.272 22.544 22.888 22.8C22.504 23.056 22.312 23.4027 22.312 23.84C22.312 24.096 22.3813 24.3093 22.52 24.48C22.6693 24.6507 22.9147 24.8053 23.256 24.944C23.5973 25.072 24.0827 25.2 24.712 25.328C26.1733 25.648 27.224 26.064 27.864 26.576C28.5147 27.088 28.84 27.7867 28.84 28.672C28.84 29.7387 28.424 30.5867 27.592 31.216C26.76 31.8347 25.6027 32.144 24.12 32.144ZM30.7516 20.608H38.6076V22.544H33.1836V25.232H38.2716V27.184H33.1836V30.064H38.6076V32H30.7516V20.608ZM45.6618 32.144C44.5311 32.144 43.5444 31.9093 42.7018 31.44C41.8698 30.96 41.2244 30.2773 40.7658 29.392C40.3178 28.5067 40.0938 27.472 40.0938 26.288C40.0938 25.104 40.3178 24.0747 40.7658 23.2C41.2244 22.3253 41.8698 21.6533 42.7018 21.184C43.5444 20.704 44.5311 20.464 45.6618 20.464C46.7924 20.464 47.7738 20.704 48.6058 21.184C49.4378 21.6533 50.0778 22.3253 50.5258 23.2C50.9738 24.0747 51.1978 25.104 51.1978 26.288C51.1978 27.472 50.9738 28.5067 50.5258 29.392C50.0778 30.2773 49.4378 30.96 48.6058 31.44C47.7738 31.9093 46.7924 32.144 45.6618 32.144ZM45.6618 30.192C46.6218 30.192 47.3684 29.856 47.9018 29.184C48.4458 28.512 48.7178 27.5467 48.7178 26.288C48.7178 25.0293 48.4458 24.0693 47.9018 23.408C47.3684 22.7467 46.6218 22.416 45.6618 22.416C44.7018 22.416 43.9498 22.7467 43.4058 23.408C42.8724 24.0693 42.6058 25.0293 42.6058 26.288C42.6058 27.5573 42.8724 28.528 43.4058 29.2C43.9498 29.8613 44.7018 30.192 45.6618 30.192ZM62.6485 23.68C63.3525 23.68 63.9765 23.856 64.5205 24.208C65.0645 24.5493 65.4858 25.04 65.7845 25.68C66.0832 26.3093 66.2325 27.04 66.2325 27.872C66.2325 28.704 66.0778 29.4453 65.7685 30.096C65.4698 30.736 65.0485 31.2373 64.5045 31.6C63.9605 31.952 63.3418 32.128 62.6485 32.128C62.0832 32.128 61.5712 32.0107 61.1125 31.776C60.6645 31.5307 60.3232 31.2 60.0885 30.784V32H57.6885V20.224H60.1045V25.024C60.3392 24.608 60.6805 24.2827 61.1285 24.048C61.5872 23.8027 62.0938 23.68 62.6485 23.68ZM61.9605 30.288C62.5578 30.288 63.0165 30.08 63.3365 29.664C63.6565 29.248 63.8165 28.6507 63.8165 27.872C63.8165 27.1253 63.6565 26.5493 63.3365 26.144C63.0165 25.7387 62.5578 25.536 61.9605 25.536C61.3632 25.536 60.8992 25.744 60.5685 26.16C60.2485 26.5653 60.0885 27.1467 60.0885 27.904C60.0885 28.672 60.2485 29.264 60.5685 29.68C60.8992 30.0853 61.3632 30.288 61.9605 30.288ZM75.1623 28.144H69.8183C69.8609 28.9013 70.0583 29.456 70.4103 29.808C70.7623 30.1493 71.2849 30.32 71.9783 30.32C72.3943 30.32 72.8103 30.2507 73.2263 30.112C73.6423 29.9733 74.0263 29.7707 74.3783 29.504L75.0183 31.136C74.6343 31.4453 74.1543 31.6907 73.5783 31.872C73.0129 32.0427 72.4423 32.128 71.8663 32.128C70.5009 32.128 69.4289 31.7547 68.6503 31.008C67.8716 30.2507 67.4823 29.2213 67.4823 27.92C67.4823 27.0987 67.6476 26.368 67.9783 25.728C68.3196 25.0773 68.7943 24.576 69.4023 24.224C70.0103 23.8613 70.6983 23.68 71.4663 23.68C72.6076 23.68 73.5089 24.0533 74.1703 24.8C74.8316 25.536 75.1623 26.5333 75.1623 27.792V28.144ZM71.5303 25.376C71.0716 25.376 70.6983 25.5093 70.4103 25.776C70.1329 26.0427 69.9516 26.432 69.8663 26.944H73.0823C72.9543 25.8987 72.4369 25.376 71.5303 25.376ZM79.8831 32.128C78.3471 32.128 77.1365 31.7973 76.2511 31.136L76.8911 29.456C77.3178 29.7653 77.7925 30.0053 78.3151 30.176C78.8378 30.336 79.3711 30.416 79.9151 30.416C80.3311 30.416 80.6511 30.352 80.8751 30.224C81.0991 30.096 81.2111 29.9093 81.2111 29.664C81.2111 29.4613 81.1311 29.3013 80.9711 29.184C80.8111 29.0667 80.5285 28.9653 80.1231 28.88L78.7951 28.576C78.0165 28.4053 77.4405 28.1333 77.0671 27.76C76.7045 27.3867 76.5231 26.8907 76.5231 26.272C76.5231 25.7707 76.6671 25.3227 76.9551 24.928C77.2538 24.5333 77.6645 24.2293 78.1871 24.016C78.7098 23.792 79.3125 23.68 79.9951 23.68C80.5711 23.68 81.1365 23.7707 81.6911 23.952C82.2458 24.1227 82.7418 24.368 83.1791 24.688L82.5071 26.304C82.0911 26.016 81.6645 25.7973 81.2271 25.648C80.8005 25.4987 80.3845 25.424 79.9791 25.424C79.5845 25.424 79.2751 25.4933 79.0511 25.632C78.8271 25.7707 78.7151 25.9627 78.7151 26.208C78.7151 26.3893 78.7791 26.5387 78.9071 26.656C79.0458 26.7627 79.2858 26.8533 79.6271 26.928L80.9871 27.232C81.8191 27.424 82.4218 27.712 82.7951 28.096C83.1685 28.48 83.3551 28.992 83.3551 29.632C83.3551 30.4 83.0458 31.008 82.4271 31.456C81.8085 31.904 80.9605 32.128 79.8831 32.128ZM87.8879 25.696V28.848C87.8879 29.296 88.0052 29.6267 88.2399 29.84C88.4745 30.0427 88.7785 30.144 89.1519 30.144C89.3865 30.144 89.6532 30.1067 89.9519 30.032V31.904C89.5679 32.0533 89.1039 32.128 88.5599 32.128C87.5572 32.128 86.7892 31.8453 86.2559 31.28C85.7332 30.7147 85.4719 29.92 85.4719 28.896V25.696H83.9359V23.888H85.4719V21.984L87.8879 21.2V23.888H89.9519V25.696H87.8879ZM100.852 23.68C101.545 23.68 102.164 23.8613 102.708 24.224C103.252 24.576 103.673 25.0773 103.972 25.728C104.281 26.3787 104.436 27.12 104.436 27.952C104.436 28.784 104.286 29.52 103.988 30.16C103.689 30.7893 103.268 31.2747 102.724 31.616C102.18 31.9573 101.556 32.128 100.852 32.128C100.286 32.128 99.7796 32.0107 99.3316 31.776C98.8836 31.5413 98.5423 31.216 98.3076 30.8V35.456H95.8916V26.208C95.8916 25.344 95.849 24.5707 95.7636 23.888H98.0356L98.1956 25.232C98.409 24.752 98.7503 24.3733 99.2196 24.096C99.6996 23.8187 100.244 23.68 100.852 23.68ZM100.164 30.288C100.761 30.288 101.22 30.0907 101.54 29.696C101.86 29.2907 102.02 28.7093 102.02 27.952C102.02 27.1947 101.854 26.6027 101.524 26.176C101.204 25.7493 100.75 25.536 100.164 25.536C99.5663 25.536 99.1023 25.744 98.7716 26.16C98.4516 26.5653 98.2916 27.152 98.2916 27.92C98.2916 28.688 98.4516 29.2747 98.7716 29.68C99.1023 30.0853 99.5663 30.288 100.164 30.288ZM110.805 23.696C111.147 23.696 111.435 23.7493 111.669 23.856L111.653 26.064C111.259 25.8827 110.864 25.792 110.469 25.792C109.829 25.792 109.339 25.968 108.997 26.32C108.667 26.6613 108.501 27.1413 108.501 27.76V32H106.085V26.208C106.085 25.344 106.043 24.5707 105.957 23.888H108.229L108.389 25.28C108.592 24.768 108.907 24.3787 109.333 24.112C109.771 23.8347 110.261 23.696 110.805 23.696ZM120.72 23.888V32H118.336V30.8C118.09 31.216 117.744 31.5413 117.296 31.776C116.848 32.0107 116.341 32.128 115.776 32.128C115.072 32.128 114.448 31.9573 113.904 31.616C113.37 31.2747 112.949 30.7893 112.64 30.16C112.341 29.52 112.192 28.784 112.192 27.952C112.192 27.12 112.341 26.3787 112.64 25.728C112.949 25.0773 113.376 24.576 113.92 24.224C114.464 23.8613 115.082 23.68 115.776 23.68C116.341 23.68 116.848 23.8027 117.296 24.048C117.744 24.2933 118.09 24.624 118.336 25.04V23.888H120.72ZM116.48 30.288C117.077 30.288 117.536 30.0853 117.856 29.68C118.176 29.2747 118.336 28.688 118.336 27.92C118.336 27.152 118.176 26.5653 117.856 26.16C117.536 25.744 117.077 25.536 116.48 25.536C115.882 25.536 115.418 25.7493 115.088 26.176C114.757 26.6027 114.592 27.1947 114.592 27.952C114.592 28.7093 114.752 29.2907 115.072 29.696C115.402 30.0907 115.872 30.288 116.48 30.288ZM126.61 32.128C125.287 32.128 124.247 31.7547 123.49 31.008C122.743 30.2613 122.37 29.2427 122.37 27.952C122.37 27.1093 122.551 26.368 122.914 25.728C123.276 25.0773 123.783 24.576 124.434 24.224C125.095 23.8613 125.858 23.68 126.722 23.68C127.308 23.68 127.879 23.7707 128.434 23.952C128.988 24.1333 129.431 24.3787 129.762 24.688L129.122 26.368C128.802 26.112 128.45 25.9147 128.066 25.776C127.682 25.6267 127.308 25.552 126.946 25.552C126.284 25.552 125.767 25.7547 125.394 26.16C125.031 26.5547 124.85 27.136 124.85 27.904C124.85 28.6827 125.031 29.2747 125.394 29.68C125.756 30.0747 126.274 30.272 126.946 30.272C127.308 30.272 127.682 30.2027 128.066 30.064C128.45 29.9147 128.802 29.712 129.122 29.456L129.762 31.136C129.41 31.4453 128.951 31.6907 128.386 31.872C127.82 32.0427 127.228 32.128 126.61 32.128ZM134.129 25.696V28.848C134.129 29.296 134.246 29.6267 134.481 29.84C134.715 30.0427 135.019 30.144 135.393 30.144C135.627 30.144 135.894 30.1067 136.193 30.032V31.904C135.809 32.0533 135.345 32.128 134.801 32.128C133.798 32.128 133.03 31.8453 132.497 31.28C131.974 30.7147 131.713 29.92 131.713 28.896V25.696H130.177V23.888H131.713V21.984L134.129 21.2V23.888H136.193V25.696H134.129ZM137.532 23.888H139.948V32H137.532V23.888ZM140.028 20.08V22.352H137.452V20.08H140.028ZM145.863 32.128C144.54 32.128 143.5 31.7547 142.743 31.008C141.996 30.2613 141.623 29.2427 141.623 27.952C141.623 27.1093 141.804 26.368 142.167 25.728C142.53 25.0773 143.036 24.576 143.687 24.224C144.348 23.8613 145.111 23.68 145.975 23.68C146.562 23.68 147.132 23.7707 147.687 23.952C148.242 24.1333 148.684 24.3787 149.015 24.688L148.375 26.368C148.055 26.112 147.703 25.9147 147.319 25.776C146.935 25.6267 146.562 25.552 146.199 25.552C145.538 25.552 145.02 25.7547 144.647 26.16C144.284 26.5547 144.103 27.136 144.103 27.904C144.103 28.6827 144.284 29.2747 144.647 29.68C145.01 30.0747 145.527 30.272 146.199 30.272C146.562 30.272 146.935 30.2027 147.319 30.064C147.703 29.9147 148.055 29.712 148.375 29.456L149.015 31.136C148.663 31.4453 148.204 31.6907 147.639 31.872C147.074 32.0427 146.482 32.128 145.863 32.128ZM157.544 28.144H152.2C152.242 28.9013 152.44 29.456 152.792 29.808C153.144 30.1493 153.666 30.32 154.36 30.32C154.776 30.32 155.192 30.2507 155.608 30.112C156.024 29.9733 156.408 29.7707 156.76 29.504L157.4 31.136C157.016 31.4453 156.536 31.6907 155.96 31.872C155.394 32.0427 154.824 32.128 154.248 32.128C152.882 32.128 151.81 31.7547 151.032 31.008C150.253 30.2507 149.864 29.2213 149.864 27.92C149.864 27.0987 150.029 26.368 150.36 25.728C150.701 25.0773 151.176 24.576 151.784 24.224C152.392 23.8613 153.08 23.68 153.848 23.68C154.989 23.68 155.89 24.0533 156.552 24.8C157.213 25.536 157.544 26.5333 157.544 27.792V28.144ZM153.912 25.376C153.453 25.376 153.08 25.5093 152.792 25.776C152.514 26.0427 152.333 26.432 152.248 26.944H155.464C155.336 25.8987 154.818 25.376 153.912 25.376ZM162.264 32.128C160.728 32.128 159.518 31.7973 158.632 31.136L159.272 29.456C159.699 29.7653 160.174 30.0053 160.696 30.176C161.219 30.336 161.752 30.416 162.296 30.416C162.712 30.416 163.032 30.352 163.256 30.224C163.48 30.096 163.592 29.9093 163.592 29.664C163.592 29.4613 163.512 29.3013 163.352 29.184C163.192 29.0667 162.91 28.9653 162.504 28.88L161.176 28.576C160.398 28.4053 159.822 28.1333 159.448 27.76C159.086 27.3867 158.904 26.8907 158.904 26.272C158.904 25.7707 159.048 25.3227 159.336 24.928C159.635 24.5333 160.046 24.2293 160.568 24.016C161.091 23.792 161.694 23.68 162.376 23.68C162.952 23.68 163.518 23.7707 164.072 23.952C164.627 24.1227 165.123 24.368 165.56 24.688L164.888 26.304C164.472 26.016 164.046 25.7973 163.608 25.648C163.182 25.4987 162.766 25.424 162.36 25.424C161.966 25.424 161.656 25.4933 161.432 25.632C161.208 25.7707 161.096 25.9627 161.096 26.208C161.096 26.3893 161.16 26.5387 161.288 26.656C161.427 26.7627 161.667 26.8533 162.008 26.928L163.368 27.232C164.2 27.424 164.803 27.712 165.176 28.096C165.55 28.48 165.736 28.992 165.736 29.632C165.736 30.4 165.427 31.008 164.808 31.456C164.19 31.904 163.342 32.128 162.264 32.128Z" fill="#0E2446"/>
<path d="M533.152 110.144C532.299 110.144 531.456 110.032 530.624 109.808C529.792 109.584 529.115 109.28 528.592 108.896L529.536 106.768C530.091 107.12 530.677 107.392 531.296 107.584C531.925 107.765 532.555 107.856 533.184 107.856C533.824 107.856 534.315 107.771 534.656 107.6C534.997 107.419 535.168 107.168 535.168 106.848C535.168 106.56 535.013 106.325 534.704 106.144C534.395 105.952 533.813 105.765 532.96 105.584C531.883 105.371 531.045 105.109 530.448 104.8C529.851 104.48 529.429 104.107 529.184 103.68C528.949 103.253 528.832 102.736 528.832 102.128C528.832 101.435 529.029 100.811 529.424 100.256C529.819 99.6907 530.373 99.2533 531.088 98.944C531.803 98.624 532.619 98.464 533.536 98.464C534.357 98.464 535.152 98.5813 535.92 98.816C536.699 99.04 537.307 99.3387 537.744 99.712L536.816 101.84C536.315 101.488 535.787 101.221 535.232 101.04C534.677 100.848 534.123 100.752 533.568 100.752C533.024 100.752 532.587 100.859 532.256 101.072C531.925 101.275 531.76 101.552 531.76 101.904C531.76 102.096 531.819 102.256 531.936 102.384C532.053 102.512 532.272 102.64 532.592 102.768C532.912 102.885 533.392 103.013 534.032 103.152C535.067 103.376 535.877 103.648 536.464 103.968C537.061 104.277 537.483 104.645 537.728 105.072C537.973 105.488 538.096 105.989 538.096 106.576C538.096 107.685 537.664 108.56 536.8 109.2C535.936 109.829 534.72 110.144 533.152 110.144ZM544.327 107.792C544.519 107.792 544.775 107.76 545.095 107.696V109.888C544.7 110.048 544.199 110.128 543.591 110.128C542.492 110.128 541.655 109.819 541.079 109.2C540.513 108.581 540.231 107.723 540.231 106.624V104H538.711V101.872H540.231V100.032L543.127 99.104V101.872H545.079V104H543.127V106.624C543.127 107.008 543.239 107.301 543.463 107.504C543.697 107.696 543.985 107.792 544.327 107.792ZM554.843 101.872V110H551.995V108.896C551.76 109.28 551.419 109.584 550.971 109.808C550.523 110.021 550.032 110.128 549.499 110.128C548.805 110.128 548.187 109.957 547.643 109.616C547.099 109.275 546.672 108.789 546.363 108.16C546.064 107.52 545.915 106.784 545.915 105.952C545.915 105.109 546.069 104.363 546.379 103.712C546.688 103.061 547.115 102.555 547.659 102.192C548.203 101.829 548.816 101.648 549.499 101.648C550.032 101.648 550.517 101.765 550.955 102C551.403 102.224 551.749 102.528 551.995 102.912V101.872H554.843ZM550.395 107.968C550.907 107.968 551.301 107.792 551.579 107.44C551.856 107.088 551.995 106.581 551.995 105.92C551.995 105.248 551.856 104.736 551.579 104.384C551.301 104.021 550.907 103.84 550.395 103.84C549.893 103.84 549.499 104.027 549.211 104.4C548.923 104.763 548.779 105.28 548.779 105.952C548.779 106.603 548.917 107.104 549.195 107.456C549.472 107.797 549.872 107.968 550.395 107.968ZM561.8 101.68C562.195 101.68 562.499 101.739 562.712 101.856V104.496C562.253 104.283 561.811 104.176 561.384 104.176C560.168 104.176 559.56 104.757 559.56 105.92V110H556.664V104.208C556.664 103.333 556.621 102.555 556.536 101.872H559.256L559.432 103.232C559.624 102.731 559.933 102.347 560.36 102.08C560.787 101.813 561.267 101.68 561.8 101.68ZM569.298 107.792C569.49 107.792 569.746 107.76 570.066 107.696V109.888C569.672 110.048 569.17 110.128 568.562 110.128C567.464 110.128 566.626 109.819 566.05 109.2C565.485 108.581 565.202 107.723 565.202 106.624V104H563.682V101.872H565.202V100.032L568.098 99.104V101.872H570.05V104H568.098V106.624C568.098 107.008 568.21 107.301 568.434 107.504C568.669 107.696 568.957 107.792 569.298 107.792Z" fill="#007EFF"/>
<path d="M305.784 113.568C304.568 113.568 303.512 113.291 302.616 112.736L302.84 111.68C303.341 111.968 303.816 112.176 304.264 112.304C304.712 112.432 305.219 112.496 305.784 112.496C306.552 112.496 307.133 112.288 307.528 111.872C307.933 111.467 308.136 110.859 308.136 110.048V107.872L308.312 107.664C308.184 108.091 307.981 108.464 307.704 108.784C307.437 109.093 307.107 109.333 306.712 109.504C306.317 109.675 305.869 109.76 305.368 109.76C304.653 109.76 304.024 109.595 303.48 109.264C302.947 108.923 302.525 108.453 302.216 107.856C301.917 107.259 301.768 106.56 301.768 105.76C301.768 104.96 301.917 104.261 302.216 103.664C302.525 103.067 302.947 102.603 303.48 102.272C304.024 101.931 304.653 101.76 305.368 101.76C306.115 101.76 306.744 101.947 307.256 102.32C307.779 102.683 308.131 103.195 308.312 103.856L308.12 103.68V101.952H309.416V109.936C309.416 111.141 309.107 112.048 308.488 112.656C307.88 113.264 306.979 113.568 305.784 113.568ZM305.624 108.672C306.403 108.672 307.011 108.416 307.448 107.904C307.896 107.381 308.12 106.667 308.12 105.76C308.12 104.853 307.896 104.144 307.448 103.632C307.011 103.109 306.403 102.848 305.624 102.848C304.835 102.848 304.211 103.109 303.752 103.632C303.304 104.144 303.08 104.853 303.08 105.76C303.08 106.677 303.304 107.392 303.752 107.904C304.211 108.416 304.835 108.672 305.624 108.672ZM315.332 110.112C314.564 110.112 313.892 109.941 313.316 109.6C312.751 109.259 312.308 108.779 311.988 108.16C311.679 107.531 311.524 106.789 311.524 105.936C311.524 105.093 311.679 104.357 311.988 103.728C312.308 103.099 312.751 102.613 313.316 102.272C313.892 101.931 314.564 101.76 315.332 101.76C316.1 101.76 316.767 101.931 317.332 102.272C317.908 102.613 318.351 103.099 318.66 103.728C318.98 104.357 319.14 105.093 319.14 105.936C319.14 106.789 318.98 107.531 318.66 108.16C318.351 108.779 317.908 109.259 317.332 109.6C316.767 109.941 316.1 110.112 315.332 110.112ZM315.332 109.04C316.122 109.04 316.73 108.779 317.156 108.256C317.594 107.723 317.812 106.949 317.812 105.936C317.812 104.944 317.594 104.181 317.156 103.648C316.719 103.115 316.111 102.848 315.332 102.848C314.554 102.848 313.94 103.115 313.492 103.648C313.055 104.181 312.836 104.944 312.836 105.936C312.836 106.949 313.05 107.723 313.476 108.256C313.914 108.779 314.532 109.04 315.332 109.04ZM324.589 110.112C323.821 110.112 323.149 109.941 322.573 109.6C322.007 109.259 321.565 108.779 321.245 108.16C320.935 107.531 320.781 106.789 320.781 105.936C320.781 105.093 320.935 104.357 321.245 103.728C321.565 103.099 322.007 102.613 322.573 102.272C323.149 101.931 323.821 101.76 324.589 101.76C325.357 101.76 326.023 101.931 326.589 102.272C327.165 102.613 327.607 103.099 327.917 103.728C328.237 104.357 328.397 105.093 328.397 105.936C328.397 106.789 328.237 107.531 327.917 108.16C327.607 108.779 327.165 109.259 326.589 109.6C326.023 109.941 325.357 110.112 324.589 110.112ZM324.589 109.04C325.378 109.04 325.986 108.779 326.413 108.256C326.85 107.723 327.069 106.949 327.069 105.936C327.069 104.944 326.85 104.181 326.413 103.648C325.975 103.115 325.367 102.848 324.589 102.848C323.81 102.848 323.197 103.115 322.749 103.648C322.311 104.181 322.093 104.944 322.093 105.936C322.093 106.949 322.306 107.723 322.733 108.256C323.17 108.779 323.789 109.04 324.589 109.04ZM334.053 113.568C332.837 113.568 331.781 113.291 330.885 112.736L331.109 111.68C331.61 111.968 332.085 112.176 332.533 112.304C332.981 112.432 333.487 112.496 334.053 112.496C334.821 112.496 335.402 112.288 335.797 111.872C336.202 111.467 336.405 110.859 336.405 110.048V107.872L336.581 107.664C336.453 108.091 336.25 108.464 335.973 108.784C335.706 109.093 335.375 109.333 334.981 109.504C334.586 109.675 334.138 109.76 333.637 109.76C332.922 109.76 332.293 109.595 331.749 109.264C331.215 108.923 330.794 108.453 330.485 107.856C330.186 107.259 330.037 106.56 330.037 105.76C330.037 104.96 330.186 104.261 330.485 103.664C330.794 103.067 331.215 102.603 331.749 102.272C332.293 101.931 332.922 101.76 333.637 101.76C334.383 101.76 335.013 101.947 335.525 102.32C336.047 102.683 336.399 103.195 336.581 103.856L336.389 103.68V101.952H337.685V109.936C337.685 111.141 337.375 112.048 336.757 112.656C336.149 113.264 335.247 113.568 334.053 113.568ZM333.893 108.672C334.671 108.672 335.279 108.416 335.717 107.904C336.165 107.381 336.389 106.667 336.389 105.76C336.389 104.853 336.165 104.144 335.717 103.632C335.279 103.109 334.671 102.848 333.893 102.848C333.103 102.848 332.479 103.109 332.021 103.632C331.573 104.144 331.349 104.853 331.349 105.76C331.349 106.677 331.573 107.392 332.021 107.904C332.479 108.416 333.103 108.672 333.893 108.672ZM340.273 110V98.224H341.569V110H340.273ZM350.778 109.04C350.426 109.371 349.972 109.632 349.418 109.824C348.874 110.016 348.314 110.112 347.738 110.112C346.906 110.112 346.186 109.947 345.578 109.616C344.98 109.285 344.516 108.811 344.186 108.192C343.866 107.563 343.706 106.816 343.706 105.952C343.706 105.12 343.866 104.389 344.186 103.76C344.506 103.131 344.948 102.64 345.514 102.288C346.09 101.936 346.751 101.76 347.498 101.76C348.212 101.76 348.826 101.92 349.338 102.24C349.85 102.549 350.239 102.997 350.506 103.584C350.783 104.171 350.922 104.875 350.922 105.696V105.936H344.842V105.088H350.186L349.77 105.68C349.791 104.741 349.604 104.021 349.21 103.52C348.826 103.019 348.26 102.768 347.514 102.768C346.735 102.768 346.122 103.045 345.674 103.6C345.236 104.144 345.018 104.901 345.018 105.872C345.018 106.917 345.247 107.707 345.706 108.24C346.175 108.773 346.858 109.04 347.754 109.04C348.223 109.04 348.671 108.965 349.098 108.816C349.535 108.656 349.951 108.416 350.346 108.096L350.778 109.04ZM352.765 108.352H354.413V110H352.765V108.352ZM359.902 110.112C359.113 110.112 358.43 109.941 357.854 109.6C357.278 109.259 356.83 108.779 356.51 108.16C356.201 107.541 356.046 106.811 356.046 105.968C356.046 105.136 356.206 104.405 356.526 103.776C356.846 103.136 357.299 102.64 357.886 102.288C358.473 101.936 359.166 101.76 359.966 101.76C360.51 101.76 361.033 101.856 361.534 102.048C362.046 102.229 362.467 102.485 362.798 102.816L362.366 103.776C361.971 103.467 361.582 103.237 361.198 103.088C360.825 102.928 360.435 102.848 360.03 102.848C359.219 102.848 358.574 103.12 358.094 103.664C357.625 104.208 357.39 104.976 357.39 105.968C357.39 106.949 357.625 107.707 358.094 108.24C358.563 108.773 359.209 109.04 360.03 109.04C360.425 109.04 360.814 108.965 361.198 108.816C361.582 108.656 361.971 108.421 362.366 108.112L362.798 109.072C362.457 109.392 362.025 109.648 361.502 109.84C360.99 110.021 360.457 110.112 359.902 110.112ZM367.876 110.112C367.108 110.112 366.436 109.941 365.86 109.6C365.295 109.259 364.852 108.779 364.532 108.16C364.223 107.531 364.068 106.789 364.068 105.936C364.068 105.093 364.223 104.357 364.532 103.728C364.852 103.099 365.295 102.613 365.86 102.272C366.436 101.931 367.108 101.76 367.876 101.76C368.644 101.76 369.311 101.931 369.876 102.272C370.452 102.613 370.895 103.099 371.204 103.728C371.524 104.357 371.684 105.093 371.684 105.936C371.684 106.789 371.524 107.531 371.204 108.16C370.895 108.779 370.452 109.259 369.876 109.6C369.311 109.941 368.644 110.112 367.876 110.112ZM367.876 109.04C368.665 109.04 369.273 108.779 369.7 108.256C370.137 107.723 370.356 106.949 370.356 105.936C370.356 104.944 370.137 104.181 369.7 103.648C369.263 103.115 368.655 102.848 367.876 102.848C367.097 102.848 366.484 103.115 366.036 103.648C365.599 104.181 365.38 104.944 365.38 105.936C365.38 106.949 365.593 107.723 366.02 108.256C366.457 108.779 367.076 109.04 367.876 109.04ZM373.804 110V104.208C373.804 103.835 373.794 103.461 373.772 103.088C373.762 102.704 373.73 102.325 373.676 101.952H374.908L375.052 103.616L374.892 103.728C375.084 103.099 375.415 102.613 375.884 102.272C376.364 101.931 376.93 101.76 377.58 101.76C378.359 101.76 378.962 101.952 379.388 102.336C379.826 102.72 380.103 103.307 380.22 104.096L379.836 103.888C380.007 103.237 380.348 102.72 380.86 102.336C381.383 101.952 382.007 101.76 382.732 101.76C383.618 101.76 384.284 102.027 384.732 102.56C385.18 103.083 385.404 103.877 385.404 104.944V110H384.108V105.008C384.108 104.261 383.975 103.717 383.708 103.376C383.442 103.024 383.02 102.848 382.444 102.848C381.772 102.848 381.239 103.077 380.844 103.536C380.46 103.995 380.268 104.619 380.268 105.408V110H378.972V105.008C378.972 104.261 378.834 103.717 378.556 103.376C378.29 103.024 377.868 102.848 377.292 102.848C376.61 102.848 376.071 103.077 375.676 103.536C375.292 103.995 375.1 104.619 375.1 105.408V110H373.804Z" fill="#0E2446"/>
<path d="M66.84 109.04C66.488 109.371 66.0347 109.632 65.48 109.824C64.936 110.016 64.376 110.112 63.8 110.112C62.968 110.112 62.248 109.947 61.64 109.616C61.0427 109.285 60.5787 108.811 60.248 108.192C59.928 107.563 59.768 106.816 59.768 105.952C59.768 105.12 59.928 104.389 60.248 103.76C60.568 103.131 61.0107 102.64 61.576 102.288C62.152 101.936 62.8133 101.76 63.56 101.76C64.2747 101.76 64.888 101.92 65.4 102.24C65.912 102.549 66.3013 102.997 66.568 103.584C66.8453 104.171 66.984 104.875 66.984 105.696V105.936H60.904V105.088H66.248L65.832 105.68C65.8533 104.741 65.6667 104.021 65.272 103.52C64.888 103.019 64.3227 102.768 63.576 102.768C62.7973 102.768 62.184 103.045 61.736 103.6C61.2987 104.144 61.08 104.901 61.08 105.872C61.08 106.917 61.3093 107.707 61.768 108.24C62.2373 108.773 62.92 109.04 63.816 109.04C64.2853 109.04 64.7333 108.965 65.16 108.816C65.5973 108.656 66.0133 108.416 66.408 108.096L66.84 109.04ZM69.0511 110V104.208C69.0511 103.835 69.0405 103.461 69.0191 103.088C69.0085 102.704 68.9765 102.325 68.9231 101.952H70.1551L70.2991 103.616L70.1391 103.744C70.3631 103.093 70.7365 102.603 71.2591 102.272C71.7818 101.931 72.3845 101.76 73.0671 101.76C74.9978 101.76 75.9631 102.821 75.9631 104.944V110H74.6671V105.008C74.6671 104.261 74.5178 103.717 74.2191 103.376C73.9205 103.024 73.4511 102.848 72.8111 102.848C72.0645 102.848 71.4671 103.077 71.0191 103.536C70.5711 103.995 70.3471 104.613 70.3471 105.392V110H69.0511ZM82.0465 113.568C80.8305 113.568 79.7745 113.291 78.8785 112.736L79.1025 111.68C79.6038 111.968 80.0785 112.176 80.5265 112.304C80.9745 112.432 81.4812 112.496 82.0465 112.496C82.8145 112.496 83.3958 112.288 83.7905 111.872C84.1958 111.467 84.3985 110.859 84.3985 110.048V107.872L84.5745 107.664C84.4465 108.091 84.2438 108.464 83.9665 108.784C83.6998 109.093 83.3692 109.333 82.9745 109.504C82.5798 109.675 82.1318 109.76 81.6305 109.76C80.9158 109.76 80.2865 109.595 79.7425 109.264C79.2092 108.923 78.7878 108.453 78.4785 107.856C78.1798 107.259 78.0305 106.56 78.0305 105.76C78.0305 104.96 78.1798 104.261 78.4785 103.664C78.7878 103.067 79.2092 102.603 79.7425 102.272C80.2865 101.931 80.9158 101.76 81.6305 101.76C82.3772 101.76 83.0065 101.947 83.5185 102.32C84.0412 102.683 84.3932 103.195 84.5745 103.856L84.3825 103.68V101.952H85.6785V109.936C85.6785 111.141 85.3692 112.048 84.7505 112.656C84.1425 113.264 83.2412 113.568 82.0465 113.568ZM81.8865 108.672C82.6652 108.672 83.2732 108.416 83.7105 107.904C84.1585 107.381 84.3825 106.667 84.3825 105.76C84.3825 104.853 84.1585 104.144 83.7105 103.632C83.2732 103.109 82.6652 102.848 81.8865 102.848C81.0972 102.848 80.4732 103.109 80.0145 103.632C79.5665 104.144 79.3425 104.853 79.3425 105.76C79.3425 106.677 79.5665 107.392 80.0145 107.904C80.4732 108.416 81.0972 108.672 81.8865 108.672ZM88.2667 110V98.224H89.5627V110H88.2667ZM92.1792 110V101.952H93.4752V110H92.1792ZM92.0512 98.544H93.6352V100.016H92.0512V98.544ZM98.8118 110.112C97.4571 110.112 96.3851 109.765 95.5958 109.072L96.0278 108.112C96.4544 108.443 96.8918 108.688 97.3398 108.848C97.7984 108.997 98.3051 109.072 98.8598 109.072C99.4678 109.072 99.9264 108.971 100.236 108.768C100.556 108.555 100.716 108.251 100.716 107.856C100.716 107.536 100.609 107.285 100.396 107.104C100.182 106.912 99.8304 106.757 99.3398 106.64L97.9798 106.32C97.3078 106.171 96.7851 105.904 96.4118 105.52C96.0491 105.136 95.8678 104.677 95.8678 104.144C95.8678 103.675 95.9958 103.264 96.2518 102.912C96.5078 102.549 96.8651 102.267 97.3238 102.064C97.7824 101.861 98.3264 101.76 98.9557 101.76C99.5211 101.76 100.054 101.851 100.556 102.032C101.057 102.213 101.478 102.475 101.82 102.816L101.388 103.76C101.004 103.44 100.609 103.205 100.204 103.056C99.8091 102.896 99.3931 102.816 98.9557 102.816C98.3798 102.816 97.9318 102.928 97.6118 103.152C97.3024 103.376 97.1478 103.68 97.1478 104.064C97.1478 104.395 97.2438 104.656 97.4358 104.848C97.6384 105.04 97.9584 105.189 98.3958 105.296L99.7558 105.632C100.513 105.792 101.068 106.059 101.42 106.432C101.782 106.795 101.964 107.259 101.964 107.824C101.964 108.517 101.681 109.072 101.116 109.488C100.55 109.904 99.7824 110.112 98.8118 110.112ZM104.129 110V98.224H105.425V103.584L105.217 103.744C105.441 103.093 105.815 102.603 106.337 102.272C106.86 101.931 107.463 101.76 108.145 101.76C110.076 101.76 111.041 102.821 111.041 104.944V110H109.745V105.008C109.745 104.261 109.596 103.717 109.297 103.376C108.999 103.024 108.529 102.848 107.889 102.848C107.143 102.848 106.545 103.077 106.097 103.536C105.649 103.995 105.425 104.613 105.425 105.392V110H104.129Z" fill="#0E2446"/>
<path d="M11.508 172.126C10.7613 172.126 10.024 172.028 9.296 171.832C8.568 171.636 7.97533 171.37 7.518 171.034L8.344 169.172C8.82933 169.48 9.34267 169.718 9.884 169.886C10.4347 170.045 10.9853 170.124 11.536 170.124C12.096 170.124 12.5253 170.049 12.824 169.9C13.1227 169.741 13.272 169.522 13.272 169.242C13.272 168.99 13.1367 168.785 12.866 168.626C12.5953 168.458 12.0867 168.295 11.34 168.136C10.3973 167.949 9.66467 167.721 9.142 167.45C8.61933 167.17 8.25067 166.843 8.036 166.47C7.83067 166.097 7.728 165.644 7.728 165.112C7.728 164.505 7.90067 163.959 8.246 163.474C8.59133 162.979 9.07667 162.597 9.702 162.326C10.3273 162.046 11.0413 161.906 11.844 161.906C12.5627 161.906 13.258 162.009 13.93 162.214C14.6113 162.41 15.1433 162.671 15.526 162.998L14.714 164.86C14.2753 164.552 13.8133 164.319 13.328 164.16C12.8427 163.992 12.3573 163.908 11.872 163.908C11.396 163.908 11.0133 164.001 10.724 164.188C10.4347 164.365 10.29 164.608 10.29 164.916C10.29 165.084 10.3413 165.224 10.444 165.336C10.5467 165.448 10.738 165.56 11.018 165.672C11.298 165.775 11.718 165.887 12.278 166.008C13.1833 166.204 13.8927 166.442 14.406 166.722C14.9287 166.993 15.2973 167.315 15.512 167.688C15.7267 168.052 15.834 168.491 15.834 169.004C15.834 169.975 15.456 170.74 14.7 171.3C13.944 171.851 12.88 172.126 11.508 172.126ZM22.0223 164.692C22.8623 164.692 23.4876 164.949 23.8983 165.462C24.3183 165.966 24.5283 166.731 24.5283 167.758V172H21.9943V167.87C21.9943 167.431 21.9196 167.119 21.7703 166.932C21.6209 166.736 21.3876 166.638 21.0703 166.638C20.6876 166.638 20.3796 166.769 20.1463 167.03C19.9129 167.282 19.7963 167.618 19.7963 168.038V172H17.2623V161.696H19.7963V165.756C20.3469 165.047 21.0889 164.692 22.0223 164.692ZM29.6826 172.112C28.8892 172.112 28.1986 171.963 27.6106 171.664C27.0226 171.365 26.5699 170.936 26.2526 170.376C25.9352 169.816 25.7766 169.158 25.7766 168.402C25.7766 167.646 25.9352 166.988 26.2526 166.428C26.5699 165.868 27.0226 165.439 27.6106 165.14C28.1986 164.841 28.8892 164.692 29.6826 164.692C30.4666 164.692 31.1479 164.846 31.7266 165.154C32.3146 165.453 32.7672 165.882 33.0846 166.442C33.4019 166.993 33.5606 167.646 33.5606 168.402C33.5606 169.158 33.4019 169.816 33.0846 170.376C32.7672 170.927 32.3146 171.356 31.7266 171.664C31.1479 171.963 30.4666 172.112 29.6826 172.112ZM29.6826 170.222C30.5972 170.222 31.0546 169.615 31.0546 168.402C31.0546 167.786 30.9379 167.333 30.7046 167.044C30.4806 166.745 30.1399 166.596 29.6826 166.596C29.2159 166.596 28.8659 166.745 28.6326 167.044C28.3992 167.333 28.2826 167.786 28.2826 168.402C28.2826 169.027 28.3992 169.489 28.6326 169.788C28.8659 170.077 29.2159 170.222 29.6826 170.222ZM46.6865 164.888L43.7185 172H41.6325L40.2045 168.472L38.8605 172H36.7605L33.7925 164.888H36.3685L37.9505 168.99L39.4905 164.888H41.1145L42.6965 169.074L44.2505 164.888H46.6865ZM60.6265 164.692C61.4478 164.692 62.0545 164.944 62.4465 165.448C62.8478 165.952 63.0485 166.722 63.0485 167.758V172H60.5145V167.828C60.5145 167.408 60.4492 167.105 60.3185 166.918C60.1972 166.731 59.9872 166.638 59.6885 166.638C59.3338 166.638 59.0585 166.769 58.8625 167.03C58.6665 167.291 58.5685 167.66 58.5685 168.136V172H56.0345V167.828C56.0345 167.408 55.9692 167.105 55.8385 166.918C55.7078 166.731 55.4978 166.638 55.2085 166.638C54.8538 166.638 54.5785 166.769 54.3825 167.03C54.1958 167.291 54.1025 167.66 54.1025 168.136V172H51.5685V166.932C51.5685 166.167 51.5312 165.485 51.4565 164.888H53.8365L53.9625 165.882C54.1772 165.499 54.4758 165.205 54.8585 165C55.2505 164.795 55.6985 164.692 56.2025 164.692C57.2198 164.692 57.9105 165.121 58.2745 165.98C58.5265 165.588 58.8578 165.275 59.2685 165.042C59.6885 164.809 60.1412 164.692 60.6265 164.692ZM71.1818 168.696H66.7158C66.7624 169.247 66.9211 169.643 67.1918 169.886C67.4624 170.129 67.8591 170.25 68.3818 170.25C68.7364 170.25 69.0911 170.194 69.4458 170.082C69.8004 169.961 70.1224 169.797 70.4118 169.592L71.0558 171.272C70.7011 171.533 70.2718 171.739 69.7678 171.888C69.2638 172.037 68.7598 172.112 68.2558 172.112C67.4438 172.112 66.7391 171.963 66.1418 171.664C65.5444 171.365 65.0871 170.941 64.7698 170.39C64.4524 169.83 64.2938 169.172 64.2938 168.416C64.2938 167.697 64.4431 167.058 64.7418 166.498C65.0498 165.929 65.4698 165.485 66.0018 165.168C66.5431 164.851 67.1591 164.692 67.8498 164.692C68.5218 164.692 69.1098 164.841 69.6138 165.14C70.1178 165.439 70.5051 165.868 70.7758 166.428C71.0464 166.979 71.1818 167.623 71.1818 168.36V168.696ZM67.9198 166.428C67.2944 166.428 66.9024 166.792 66.7438 167.52H69.0118C68.9184 166.792 68.5544 166.428 67.9198 166.428ZM74.946 165.042V167.632H72.3V165.042H74.946ZM74.946 169.396V172H72.3V169.396H74.946Z" fill="#007EFF"/>
<rect x="94" y="156" width="76" height="25" rx="3" fill="#EEF4FA"/>
<path d="M112.272 165.784C112.792 165.784 113.252 165.92 113.652 166.192C114.06 166.456 114.376 166.832 114.6 167.32C114.832 167.8 114.948 168.352 114.948 168.976C114.948 169.6 114.836 170.148 114.612 170.62C114.388 171.092 114.072 171.456 113.664 171.712C113.264 171.968 112.8 172.096 112.272 172.096C111.832 172.096 111.44 172.004 111.096 171.82C110.752 171.628 110.488 171.364 110.304 171.028V174.592H108.816V167.656C108.816 167.016 108.784 166.444 108.72 165.94H110.124L110.244 166.984C110.404 166.608 110.664 166.316 111.024 166.108C111.384 165.892 111.8 165.784 112.272 165.784ZM111.864 170.92C112.368 170.92 112.756 170.752 113.028 170.416C113.3 170.08 113.436 169.6 113.436 168.976C113.436 168.344 113.3 167.852 113.028 167.5C112.756 167.14 112.372 166.96 111.876 166.96C111.364 166.96 110.972 167.132 110.7 167.476C110.428 167.82 110.292 168.312 110.292 168.952C110.292 169.584 110.428 170.072 110.7 170.416C110.972 170.752 111.36 170.92 111.864 170.92ZM119.925 165.784C121.373 165.784 122.097 166.616 122.097 168.28V172H120.597V168.352C120.597 167.872 120.505 167.524 120.321 167.308C120.137 167.084 119.853 166.972 119.469 166.972C119.013 166.972 118.645 167.12 118.365 167.416C118.085 167.704 117.945 168.088 117.945 168.568V172H116.457V163.168H117.945V166.816C118.153 166.488 118.429 166.236 118.773 166.06C119.117 165.876 119.501 165.784 119.925 165.784ZM127.152 165.796C127.384 165.796 127.584 165.828 127.752 165.892L127.74 167.26C127.484 167.156 127.22 167.104 126.948 167.104C126.436 167.104 126.044 167.252 125.772 167.548C125.508 167.844 125.376 168.236 125.376 168.724V172H123.888V167.656C123.888 167.016 123.856 166.444 123.792 165.94H125.196L125.316 167.008C125.468 166.616 125.708 166.316 126.036 166.108C126.364 165.9 126.736 165.796 127.152 165.796ZM134.466 165.94V172H132.99V171.028C132.806 171.364 132.542 171.628 132.198 171.82C131.854 172.004 131.462 172.096 131.022 172.096C130.494 172.096 130.026 171.968 129.618 171.712C129.21 171.456 128.894 171.092 128.67 170.62C128.446 170.148 128.334 169.6 128.334 168.976C128.334 168.352 128.446 167.8 128.67 167.32C128.902 166.832 129.222 166.456 129.63 166.192C130.038 165.92 130.502 165.784 131.022 165.784C131.462 165.784 131.854 165.88 132.198 166.072C132.542 166.256 132.806 166.516 132.99 166.852V165.94H134.466ZM131.43 170.92C131.926 170.92 132.31 170.748 132.582 170.404C132.854 170.06 132.99 169.576 132.99 168.952C132.99 168.312 132.854 167.82 132.582 167.476C132.31 167.132 131.922 166.96 131.418 166.96C130.922 166.96 130.534 167.14 130.254 167.5C129.982 167.852 129.846 168.344 129.846 168.976C129.846 169.6 129.982 170.08 130.254 170.416C130.534 170.752 130.926 170.92 131.43 170.92ZM138.52 172.096C137.424 172.096 136.552 171.84 135.904 171.328L136.324 170.272C136.972 170.752 137.712 170.992 138.544 170.992C138.904 170.992 139.18 170.932 139.372 170.812C139.572 170.692 139.672 170.524 139.672 170.308C139.672 170.124 139.604 169.98 139.468 169.876C139.332 169.764 139.1 169.668 138.772 169.588L137.764 169.36C136.66 169.12 136.108 168.556 136.108 167.668C136.108 167.3 136.212 166.976 136.42 166.696C136.628 166.408 136.92 166.184 137.296 166.024C137.672 165.864 138.108 165.784 138.604 165.784C139.036 165.784 139.452 165.852 139.852 165.988C140.252 166.116 140.604 166.304 140.908 166.552L140.464 167.572C139.856 167.124 139.232 166.9 138.592 166.9C138.248 166.9 137.98 166.964 137.788 167.092C137.596 167.22 137.5 167.396 137.5 167.62C137.5 167.796 137.556 167.936 137.668 168.04C137.788 168.144 137.988 168.232 138.268 168.304L139.3 168.532C139.9 168.668 140.336 168.88 140.608 169.168C140.888 169.448 141.028 169.816 141.028 170.272C141.028 170.832 140.804 171.276 140.356 171.604C139.908 171.932 139.296 172.096 138.52 172.096ZM147.815 169.048H143.639C143.671 169.696 143.831 170.176 144.119 170.488C144.415 170.792 144.851 170.944 145.427 170.944C146.091 170.944 146.707 170.728 147.275 170.296L147.707 171.328C147.419 171.56 147.063 171.748 146.639 171.892C146.223 172.028 145.799 172.096 145.367 172.096C144.375 172.096 143.595 171.816 143.027 171.256C142.459 170.696 142.175 169.928 142.175 168.952C142.175 168.336 142.299 167.788 142.547 167.308C142.795 166.828 143.143 166.456 143.591 166.192C144.039 165.92 144.547 165.784 145.115 165.784C145.947 165.784 146.603 166.056 147.083 166.6C147.571 167.136 147.815 167.876 147.815 168.82V169.048ZM145.151 166.864C144.751 166.864 144.423 166.984 144.167 167.224C143.919 167.456 143.759 167.796 143.687 168.244H146.507C146.459 167.788 146.319 167.444 146.087 167.212C145.863 166.98 145.551 166.864 145.151 166.864ZM151.506 172.096C150.41 172.096 149.538 171.84 148.89 171.328L149.31 170.272C149.958 170.752 150.698 170.992 151.53 170.992C151.89 170.992 152.166 170.932 152.358 170.812C152.558 170.692 152.658 170.524 152.658 170.308C152.658 170.124 152.59 169.98 152.454 169.876C152.318 169.764 152.086 169.668 151.758 169.588L150.75 169.36C149.646 169.12 149.094 168.556 149.094 167.668C149.094 167.3 149.198 166.976 149.406 166.696C149.614 166.408 149.906 166.184 150.282 166.024C150.658 165.864 151.094 165.784 151.59 165.784C152.022 165.784 152.438 165.852 152.838 165.988C153.238 166.116 153.59 166.304 153.894 166.552L153.45 167.572C152.842 167.124 152.218 166.9 151.578 166.9C151.234 166.9 150.966 166.964 150.774 167.092C150.582 167.22 150.486 167.396 150.486 167.62C150.486 167.796 150.542 167.936 150.654 168.04C150.774 168.144 150.974 168.232 151.254 168.304L152.286 168.532C152.886 168.668 153.322 168.88 153.594 169.168C153.874 169.448 154.014 169.816 154.014 170.272C154.014 170.832 153.79 171.276 153.342 171.604C152.894 171.932 152.282 172.096 151.506 172.096Z" fill="#007EFF"/>
<rect x="180" y="156" width="86" height="25" rx="3" fill="#EEF4FA"/>
<path d="M200.72 165.94C200.648 166.42 200.612 166.992 200.612 167.656V174.592H199.112V171.076C198.928 171.404 198.664 171.656 198.32 171.832C197.984 172.008 197.6 172.096 197.168 172.096C196.64 172.096 196.172 171.968 195.764 171.712C195.356 171.456 195.04 171.092 194.816 170.62C194.592 170.148 194.48 169.6 194.48 168.976C194.48 168.352 194.592 167.8 194.816 167.32C195.048 166.832 195.368 166.456 195.776 166.192C196.184 165.92 196.648 165.784 197.168 165.784C197.632 165.784 198.044 165.888 198.404 166.096C198.764 166.304 199.028 166.596 199.196 166.972L199.304 165.94H200.72ZM197.576 170.92C198.072 170.92 198.456 170.748 198.728 170.404C199 170.06 199.136 169.576 199.136 168.952C199.136 168.312 199 167.82 198.728 167.476C198.456 167.132 198.068 166.96 197.564 166.96C197.068 166.96 196.68 167.14 196.4 167.5C196.128 167.852 195.992 168.344 195.992 168.976C195.992 169.6 196.128 170.08 196.4 170.416C196.68 170.752 197.072 170.92 197.576 170.92ZM207.966 165.94V172H206.502V171.064C206.31 171.4 206.054 171.656 205.734 171.832C205.414 172.008 205.046 172.096 204.63 172.096C203.15 172.096 202.41 171.264 202.41 169.6V165.94H203.898V169.612C203.898 170.052 203.986 170.376 204.162 170.584C204.346 170.792 204.626 170.896 205.002 170.896C205.442 170.896 205.794 170.752 206.058 170.464C206.322 170.176 206.454 169.792 206.454 169.312V165.94H207.966ZM215.098 169.048H210.922C210.954 169.696 211.114 170.176 211.402 170.488C211.698 170.792 212.134 170.944 212.71 170.944C213.374 170.944 213.99 170.728 214.558 170.296L214.99 171.328C214.702 171.56 214.346 171.748 213.922 171.892C213.506 172.028 213.082 172.096 212.65 172.096C211.658 172.096 210.878 171.816 210.31 171.256C209.742 170.696 209.458 169.928 209.458 168.952C209.458 168.336 209.582 167.788 209.83 167.308C210.078 166.828 210.426 166.456 210.874 166.192C211.322 165.92 211.83 165.784 212.398 165.784C213.23 165.784 213.886 166.056 214.366 166.6C214.854 167.136 215.098 167.876 215.098 168.82V169.048ZM212.434 166.864C212.034 166.864 211.706 166.984 211.45 167.224C211.202 167.456 211.042 167.796 210.97 168.244H213.79C213.742 167.788 213.602 167.444 213.37 167.212C213.146 166.98 212.834 166.864 212.434 166.864ZM218.788 172.096C217.692 172.096 216.82 171.84 216.172 171.328L216.592 170.272C217.24 170.752 217.98 170.992 218.812 170.992C219.172 170.992 219.448 170.932 219.64 170.812C219.84 170.692 219.94 170.524 219.94 170.308C219.94 170.124 219.872 169.98 219.736 169.876C219.6 169.764 219.368 169.668 219.04 169.588L218.032 169.36C216.928 169.12 216.376 168.556 216.376 167.668C216.376 167.3 216.48 166.976 216.688 166.696C216.896 166.408 217.188 166.184 217.564 166.024C217.94 165.864 218.376 165.784 218.872 165.784C219.304 165.784 219.72 165.852 220.12 165.988C220.52 166.116 220.872 166.304 221.176 166.552L220.732 167.572C220.124 167.124 219.5 166.9 218.86 166.9C218.516 166.9 218.248 166.964 218.056 167.092C217.864 167.22 217.768 167.396 217.768 167.62C217.768 167.796 217.824 167.936 217.936 168.04C218.056 168.144 218.256 168.232 218.536 168.304L219.568 168.532C220.168 168.668 220.604 168.88 220.876 169.168C221.156 169.448 221.296 169.816 221.296 170.272C221.296 170.832 221.072 171.276 220.624 171.604C220.176 171.932 219.564 172.096 218.788 172.096ZM224.629 167.068V169.78C224.629 170.492 224.961 170.848 225.625 170.848C225.809 170.848 226.009 170.816 226.225 170.752V171.94C225.961 172.036 225.641 172.084 225.265 172.084C224.577 172.084 224.049 171.892 223.681 171.508C223.313 171.124 223.129 170.572 223.129 169.852V167.068H221.965V165.94H223.129V164.464L224.629 163.96V165.94H226.237V167.068H224.629ZM227.468 165.94H228.956V172H227.468V165.94ZM229.04 163.192V164.668H227.372V163.192H229.04ZM233.545 172.096C232.929 172.096 232.385 171.968 231.913 171.712C231.449 171.456 231.089 171.092 230.833 170.62C230.585 170.14 230.461 169.58 230.461 168.94C230.461 168.3 230.585 167.744 230.833 167.272C231.089 166.792 231.449 166.424 231.913 166.168C232.385 165.912 232.929 165.784 233.545 165.784C234.153 165.784 234.689 165.912 235.153 166.168C235.617 166.424 235.973 166.792 236.221 167.272C236.477 167.744 236.605 168.3 236.605 168.94C236.605 169.58 236.477 170.14 236.221 170.62C235.973 171.092 235.617 171.456 235.153 171.712C234.689 171.968 234.153 172.096 233.545 172.096ZM233.533 170.92C234.045 170.92 234.433 170.756 234.697 170.428C234.969 170.092 235.105 169.596 235.105 168.94C235.105 168.292 234.969 167.8 234.697 167.464C234.425 167.12 234.041 166.948 233.545 166.948C233.041 166.948 232.653 167.12 232.381 167.464C232.109 167.8 231.973 168.292 231.973 168.94C231.973 169.596 232.105 170.092 232.369 170.428C232.641 170.756 233.029 170.92 233.533 170.92ZM241.567 165.784C243.015 165.784 243.739 166.616 243.739 168.28V172H242.239V168.352C242.239 167.872 242.147 167.524 241.963 167.308C241.779 167.084 241.495 166.972 241.111 166.972C240.655 166.972 240.287 167.12 240.007 167.416C239.727 167.704 239.587 168.088 239.587 168.568V172H238.099V167.656C238.099 167.016 238.067 166.444 238.003 165.94H239.407L239.515 166.936C239.723 166.568 240.003 166.284 240.355 166.084C240.715 165.884 241.119 165.784 241.567 165.784ZM247.749 172.096C246.653 172.096 245.781 171.84 245.133 171.328L245.553 170.272C246.201 170.752 246.941 170.992 247.773 170.992C248.133 170.992 248.409 170.932 248.601 170.812C248.801 170.692 248.901 170.524 248.901 170.308C248.901 170.124 248.833 169.98 248.697 169.876C248.561 169.764 248.329 169.668 248.001 169.588L246.993 169.36C245.889 169.12 245.337 168.556 245.337 167.668C245.337 167.3 245.441 166.976 245.649 166.696C245.857 166.408 246.149 166.184 246.525 166.024C246.901 165.864 247.337 165.784 247.833 165.784C248.265 165.784 248.681 165.852 249.081 165.988C249.481 166.116 249.833 166.304 250.137 166.552L249.693 167.572C249.085 167.124 248.461 166.9 247.821 166.9C247.477 166.9 247.209 166.964 247.017 167.092C246.825 167.22 246.729 167.396 246.729 167.62C246.729 167.796 246.785 167.936 246.897 168.04C247.017 168.144 247.217 168.232 247.497 168.304L248.529 168.532C249.129 168.668 249.565 168.88 249.837 169.168C250.117 169.448 250.257 169.816 250.257 170.272C250.257 170.832 250.033 171.276 249.585 171.604C249.137 171.932 248.525 172.096 247.749 172.096Z" fill="#007EFF"/>
<rect x="276" y="156" width="100" height="25" rx="3" fill="#EEF4FA"/>
<path d="M293.564 172.096C292.932 172.096 292.384 171.968 291.92 171.712C291.456 171.456 291.1 171.096 290.852 170.632C290.604 170.16 290.48 169.608 290.48 168.976C290.48 168.344 290.608 167.788 290.864 167.308C291.128 166.828 291.496 166.456 291.968 166.192C292.448 165.92 293 165.784 293.624 165.784C294.056 165.784 294.472 165.852 294.872 165.988C295.28 166.124 295.604 166.312 295.844 166.552L295.424 167.608C295.168 167.4 294.896 167.244 294.608 167.14C294.32 167.028 294.036 166.972 293.756 166.972C293.212 166.972 292.788 167.144 292.484 167.488C292.18 167.824 292.028 168.312 292.028 168.952C292.028 169.592 292.176 170.08 292.472 170.416C292.776 170.752 293.204 170.92 293.756 170.92C294.036 170.92 294.32 170.864 294.608 170.752C294.896 170.64 295.168 170.48 295.424 170.272L295.844 171.328C295.588 171.568 295.256 171.756 294.848 171.892C294.44 172.028 294.012 172.096 293.564 172.096ZM299.799 172.096C299.183 172.096 298.639 171.968 298.167 171.712C297.703 171.456 297.343 171.092 297.087 170.62C296.839 170.14 296.715 169.58 296.715 168.94C296.715 168.3 296.839 167.744 297.087 167.272C297.343 166.792 297.703 166.424 298.167 166.168C298.639 165.912 299.183 165.784 299.799 165.784C300.407 165.784 300.943 165.912 301.407 166.168C301.871 166.424 302.227 166.792 302.475 167.272C302.731 167.744 302.859 168.3 302.859 168.94C302.859 169.58 302.731 170.14 302.475 170.62C302.227 171.092 301.871 171.456 301.407 171.712C300.943 171.968 300.407 172.096 299.799 172.096ZM299.787 170.92C300.299 170.92 300.687 170.756 300.951 170.428C301.223 170.092 301.359 169.596 301.359 168.94C301.359 168.292 301.223 167.8 300.951 167.464C300.679 167.12 300.295 166.948 299.799 166.948C299.295 166.948 298.907 167.12 298.635 167.464C298.363 167.8 298.227 168.292 298.227 168.94C298.227 169.596 298.359 170.092 298.623 170.428C298.895 170.756 299.283 170.92 299.787 170.92ZM311.505 165.784C312.193 165.784 312.705 165.992 313.041 166.408C313.377 166.816 313.545 167.44 313.545 168.28V172H312.045V168.328C312.045 167.848 311.965 167.504 311.805 167.296C311.653 167.08 311.397 166.972 311.037 166.972C310.621 166.972 310.293 167.12 310.053 167.416C309.821 167.704 309.705 168.104 309.705 168.616V172H308.205V168.328C308.205 167.856 308.121 167.512 307.953 167.296C307.793 167.08 307.537 166.972 307.185 166.972C306.769 166.972 306.441 167.12 306.201 167.416C305.961 167.704 305.841 168.104 305.841 168.616V172H304.353V167.656C304.353 167.016 304.321 166.444 304.257 165.94H305.661L305.769 166.9C305.945 166.54 306.197 166.264 306.525 166.072C306.861 165.88 307.245 165.784 307.677 165.784C308.605 165.784 309.209 166.168 309.489 166.936C309.681 166.576 309.953 166.296 310.305 166.096C310.665 165.888 311.065 165.784 311.505 165.784ZM318.802 165.784C319.322 165.784 319.782 165.92 320.182 166.192C320.59 166.456 320.906 166.832 321.13 167.32C321.362 167.8 321.478 168.352 321.478 168.976C321.478 169.6 321.366 170.148 321.142 170.62C320.918 171.092 320.602 171.456 320.194 171.712C319.794 171.968 319.33 172.096 318.802 172.096C318.362 172.096 317.97 172.004 317.626 171.82C317.282 171.628 317.018 171.364 316.834 171.028V174.592H315.346V167.656C315.346 167.016 315.314 166.444 315.25 165.94H316.654L316.774 166.984C316.934 166.608 317.194 166.316 317.554 166.108C317.914 165.892 318.33 165.784 318.802 165.784ZM318.394 170.92C318.898 170.92 319.286 170.752 319.558 170.416C319.83 170.08 319.966 169.6 319.966 168.976C319.966 168.344 319.83 167.852 319.558 167.5C319.286 167.14 318.902 166.96 318.406 166.96C317.894 166.96 317.502 167.132 317.23 167.476C316.958 167.82 316.822 168.312 316.822 168.952C316.822 169.584 316.958 170.072 317.23 170.416C317.502 170.752 317.89 170.92 318.394 170.92ZM328.783 165.94V172H327.307V171.028C327.123 171.364 326.859 171.628 326.515 171.82C326.171 172.004 325.779 172.096 325.339 172.096C324.811 172.096 324.343 171.968 323.935 171.712C323.527 171.456 323.211 171.092 322.987 170.62C322.763 170.148 322.651 169.6 322.651 168.976C322.651 168.352 322.763 167.8 322.987 167.32C323.219 166.832 323.539 166.456 323.947 166.192C324.355 165.92 324.819 165.784 325.339 165.784C325.779 165.784 326.171 165.88 326.515 166.072C326.859 166.256 327.123 166.516 327.307 166.852V165.94H328.783ZM325.747 170.92C326.243 170.92 326.627 170.748 326.899 170.404C327.171 170.06 327.307 169.576 327.307 168.952C327.307 168.312 327.171 167.82 326.899 167.476C326.627 167.132 326.239 166.96 325.735 166.96C325.239 166.96 324.851 167.14 324.571 167.5C324.299 167.852 324.163 168.344 324.163 168.976C324.163 169.6 324.299 170.08 324.571 170.416C324.851 170.752 325.243 170.92 325.747 170.92ZM333.881 165.796C334.113 165.796 334.313 165.828 334.481 165.892L334.469 167.26C334.213 167.156 333.949 167.104 333.677 167.104C333.165 167.104 332.773 167.252 332.501 167.548C332.237 167.844 332.105 168.236 332.105 168.724V172H330.617V167.656C330.617 167.016 330.585 166.444 330.521 165.94H331.925L332.045 167.008C332.197 166.616 332.437 166.316 332.765 166.108C333.093 165.9 333.465 165.796 333.881 165.796ZM335.516 165.94H337.004V172H335.516V165.94ZM337.088 163.192V164.668H335.42V163.192H337.088ZM341.065 172.096C339.969 172.096 339.097 171.84 338.449 171.328L338.869 170.272C339.517 170.752 340.257 170.992 341.089 170.992C341.449 170.992 341.725 170.932 341.917 170.812C342.117 170.692 342.217 170.524 342.217 170.308C342.217 170.124 342.149 169.98 342.013 169.876C341.877 169.764 341.645 169.668 341.317 169.588L340.309 169.36C339.205 169.12 338.653 168.556 338.653 167.668C338.653 167.3 338.757 166.976 338.965 166.696C339.173 166.408 339.465 166.184 339.841 166.024C340.217 165.864 340.653 165.784 341.149 165.784C341.581 165.784 341.997 165.852 342.397 165.988C342.797 166.116 343.149 166.304 343.453 166.552L343.009 167.572C342.401 167.124 341.777 166.9 341.137 166.9C340.793 166.9 340.525 166.964 340.333 167.092C340.141 167.22 340.045 167.396 340.045 167.62C340.045 167.796 340.101 167.936 340.213 168.04C340.333 168.144 340.533 168.232 340.813 168.304L341.845 168.532C342.445 168.668 342.881 168.88 343.153 169.168C343.433 169.448 343.573 169.816 343.573 170.272C343.573 170.832 343.349 171.276 342.901 171.604C342.453 171.932 341.841 172.096 341.065 172.096ZM347.805 172.096C347.189 172.096 346.645 171.968 346.173 171.712C345.709 171.456 345.349 171.092 345.093 170.62C344.845 170.14 344.721 169.58 344.721 168.94C344.721 168.3 344.845 167.744 345.093 167.272C345.349 166.792 345.709 166.424 346.173 166.168C346.645 165.912 347.189 165.784 347.805 165.784C348.413 165.784 348.949 165.912 349.413 166.168C349.877 166.424 350.233 166.792 350.481 167.272C350.737 167.744 350.865 168.3 350.865 168.94C350.865 169.58 350.737 170.14 350.481 170.62C350.233 171.092 349.877 171.456 349.413 171.712C348.949 171.968 348.413 172.096 347.805 172.096ZM347.793 170.92C348.305 170.92 348.693 170.756 348.957 170.428C349.229 170.092 349.365 169.596 349.365 168.94C349.365 168.292 349.229 167.8 348.957 167.464C348.685 167.12 348.301 166.948 347.805 166.948C347.301 166.948 346.913 167.12 346.641 167.464C346.369 167.8 346.233 168.292 346.233 168.94C346.233 169.596 346.365 170.092 346.629 170.428C346.901 170.756 347.289 170.92 347.793 170.92ZM355.826 165.784C357.274 165.784 357.998 166.616 357.998 168.28V172H356.498V168.352C356.498 167.872 356.406 167.524 356.222 167.308C356.038 167.084 355.754 166.972 355.37 166.972C354.914 166.972 354.546 167.12 354.266 167.416C353.986 167.704 353.846 168.088 353.846 168.568V172H352.358V167.656C352.358 167.016 352.326 166.444 352.262 165.94H353.666L353.774 166.936C353.982 166.568 354.262 166.284 354.614 166.084C354.974 165.884 355.378 165.784 355.826 165.784Z" fill="#007EFF"/>
<path d="M394.468 172.858L399.808 167.518C399.932 167.395 400 167.23 400 167.054C400 166.878 399.932 166.713 399.808 166.59L399.415 166.197C399.159 165.941 398.743 165.941 398.487 166.197L394.002 170.681L389.513 166.192C389.39 166.068 389.225 166 389.049 166C388.873 166 388.708 166.068 388.585 166.192L388.192 166.585C388.068 166.709 388 166.873 388 167.049C388 167.225 388.068 167.39 388.192 167.513L393.537 172.858C393.661 172.982 393.826 173.05 394.002 173.05C394.179 173.05 394.344 172.982 394.468 172.858Z" fill="#007EFF"/>
</svg>
