<svg width="536" height="211" viewBox="0 0 536 211" fill="none" xmlns="http://www.w3.org/2000/svg">
<ellipse cx="430" cy="105.5" rx="106" ry="105.5" fill="#007EFF"/>
<path d="M430 0C454.564 2.91541e-07 478.365 8.49094 497.336 24.0216C516.307 39.5522 529.27 61.1584 534.009 85.1472L430 105.5V0Z" fill="#25CC66"/>
<path d="M369.603 192.2C351.053 179.399 337.093 161.038 329.756 139.792C322.419 118.545 322.088 95.5222 328.811 74.0756C335.535 52.6289 348.962 33.8785 367.137 20.5548C385.312 7.23118 407.286 0.0300466 429.859 9.37625e-05L430 105.5L369.603 192.2Z" fill="#E1E9F1"/>
<ellipse cx="430" cy="105.5" rx="61.4318" ry="61.142" fill="white"/>
<path d="M25.056 33V24.456H26.04V33H25.056ZM31.1418 26.82C32.5898 26.82 33.3138 27.616 33.3138 29.208V33H32.3418V29.256C32.3418 28.696 32.2298 28.288 32.0058 28.032C31.7818 27.768 31.4298 27.636 30.9498 27.636C30.3898 27.636 29.9418 27.808 29.6057 28.152C29.2697 28.496 29.1018 28.96 29.1018 29.544V33H28.1297V28.656C28.1297 28.032 28.0977 27.468 28.0337 26.964H28.9577L29.0537 28.044C29.2377 27.652 29.5137 27.352 29.8817 27.144C30.2498 26.928 30.6698 26.82 31.1418 26.82ZM37.7813 33.084C37.1973 33.084 36.6853 32.956 36.2453 32.7C35.8133 32.444 35.4773 32.084 35.2373 31.62C35.0053 31.148 34.8893 30.6 34.8893 29.976C34.8893 29.352 35.0093 28.804 35.2493 28.332C35.4893 27.852 35.8293 27.48 36.2693 27.216C36.7173 26.952 37.2373 26.82 37.8293 26.82C38.2373 26.82 38.6293 26.892 39.0053 27.036C39.3893 27.172 39.7053 27.364 39.9533 27.612L39.6293 28.332C39.3253 28.092 39.0293 27.916 38.7413 27.804C38.4613 27.692 38.1733 27.636 37.8773 27.636C37.2613 27.636 36.7773 27.844 36.4253 28.26C36.0733 28.668 35.8973 29.24 35.8973 29.976C35.8973 30.704 36.0693 31.272 36.4133 31.68C36.7653 32.08 37.2533 32.28 37.8773 32.28C38.1733 32.28 38.4613 32.224 38.7413 32.112C39.0293 32 39.3253 31.824 39.6293 31.584L39.9533 32.304C39.6973 32.544 39.3733 32.736 38.9813 32.88C38.5973 33.016 38.1973 33.084 37.7813 33.084ZM44.0987 26.82C44.2987 26.82 44.4827 26.844 44.6507 26.892L44.6267 27.78C44.4427 27.716 44.2307 27.684 43.9907 27.684C43.4067 27.684 42.9707 27.868 42.6827 28.236C42.4027 28.596 42.2627 29.036 42.2627 29.556V33H41.2907V28.656C41.2907 28.032 41.2587 27.468 41.1947 26.964H42.1187L42.2147 28.08C42.3667 27.672 42.6107 27.36 42.9467 27.144C43.2827 26.928 43.6667 26.82 44.0987 26.82ZM50.6732 29.952H46.2452C46.2532 30.72 46.4292 31.3 46.7732 31.692C47.1252 32.084 47.6332 32.28 48.2972 32.28C49.0012 32.28 49.6492 32.044 50.2412 31.572L50.5652 32.28C50.3012 32.528 49.9612 32.724 49.5452 32.868C49.1372 33.012 48.7172 33.084 48.2852 33.084C47.3412 33.084 46.6012 32.808 46.0652 32.256C45.5292 31.696 45.2612 30.932 45.2612 29.964C45.2612 29.348 45.3812 28.804 45.6212 28.332C45.8612 27.852 46.1972 27.48 46.6292 27.216C47.0612 26.952 47.5532 26.82 48.1052 26.82C48.9052 26.82 49.5332 27.084 49.9892 27.612C50.4452 28.132 50.6732 28.852 50.6732 29.772V29.952ZM48.1172 27.576C47.6132 27.576 47.2012 27.728 46.8812 28.032C46.5692 28.336 46.3692 28.764 46.2812 29.316H49.7972C49.7492 28.748 49.5812 28.316 49.2932 28.02C49.0132 27.724 48.6212 27.576 48.1172 27.576ZM57.5645 26.964V33H56.6045V31.908C56.4285 32.284 56.1605 32.576 55.8005 32.784C55.4485 32.984 55.0365 33.084 54.5645 33.084C54.0285 33.084 53.5565 32.956 53.1485 32.7C52.7485 32.444 52.4365 32.084 52.2125 31.62C51.9965 31.148 51.8885 30.6 51.8885 29.976C51.8885 29.352 52.0005 28.804 52.2245 28.332C52.4485 27.852 52.7605 27.48 53.1605 27.216C53.5685 26.952 54.0365 26.82 54.5645 26.82C55.0365 26.82 55.4485 26.924 55.8005 27.132C56.1525 27.34 56.4205 27.632 56.6045 28.008V26.964H57.5645ZM54.7565 32.28C55.3485 32.28 55.8045 32.08 56.1245 31.68C56.4445 31.272 56.6045 30.696 56.6045 29.952C56.6045 29.208 56.4445 28.636 56.1245 28.236C55.8045 27.836 55.3485 27.636 54.7565 27.636C54.1645 27.636 53.7005 27.844 53.3645 28.26C53.0365 28.668 52.8725 29.24 52.8725 29.976C52.8725 30.712 53.0365 31.28 53.3645 31.68C53.6925 32.08 54.1565 32.28 54.7565 32.28ZM61.5838 33.084C60.5678 33.084 59.7638 32.824 59.1718 32.304L59.4958 31.584C59.8238 31.84 60.1558 32.024 60.4918 32.136C60.8278 32.248 61.2038 32.304 61.6198 32.304C62.0758 32.304 62.4198 32.228 62.6518 32.076C62.8918 31.916 63.0118 31.688 63.0118 31.392C63.0118 31.152 62.9318 30.96 62.7718 30.816C62.6118 30.672 62.3478 30.56 61.9798 30.48L60.9598 30.24C60.4558 30.128 60.0638 29.928 59.7838 29.64C59.5118 29.352 59.3758 29.008 59.3758 28.608C59.3758 28.08 59.5878 27.652 60.0118 27.324C60.4358 26.988 60.9958 26.82 61.6918 26.82C62.1158 26.82 62.5158 26.888 62.8918 27.024C63.2678 27.16 63.5838 27.356 63.8398 27.612L63.5158 28.32C62.9478 27.848 62.3398 27.612 61.6918 27.612C61.2598 27.612 60.9238 27.696 60.6838 27.864C60.4518 28.024 60.3358 28.252 60.3358 28.548C60.3358 28.796 60.4078 28.992 60.5518 29.136C60.7038 29.28 60.9438 29.392 61.2718 29.472L62.2918 29.724C62.8518 29.852 63.2678 30.052 63.5398 30.324C63.8118 30.588 63.9478 30.936 63.9478 31.368C63.9478 31.888 63.7358 32.304 63.3118 32.616C62.8878 32.928 62.3118 33.084 61.5838 33.084ZM70.6489 29.952H66.2209C66.2289 30.72 66.4049 31.3 66.7489 31.692C67.1009 32.084 67.6089 32.28 68.2729 32.28C68.9769 32.28 69.6249 32.044 70.2169 31.572L70.5409 32.28C70.2769 32.528 69.9369 32.724 69.5209 32.868C69.1129 33.012 68.6929 33.084 68.2609 33.084C67.3169 33.084 66.5769 32.808 66.0409 32.256C65.5049 31.696 65.2369 30.932 65.2369 29.964C65.2369 29.348 65.3569 28.804 65.5969 28.332C65.8369 27.852 66.1729 27.48 66.6049 27.216C67.0369 26.952 67.5289 26.82 68.0809 26.82C68.8809 26.82 69.5089 27.084 69.9649 27.612C70.4209 28.132 70.6489 28.852 70.6489 29.772V29.952ZM68.0929 27.576C67.5889 27.576 67.1769 27.728 66.8569 28.032C66.5449 28.336 66.3449 28.764 66.2569 29.316H69.7729C69.7249 28.748 69.5569 28.316 69.2689 28.02C68.9889 27.724 68.5969 27.576 68.0929 27.576ZM77.5403 24.168V33H76.5803V31.908C76.4043 32.284 76.1363 32.576 75.7763 32.784C75.4243 32.984 75.0123 33.084 74.5403 33.084C74.0123 33.084 73.5443 32.952 73.1363 32.688C72.7363 32.424 72.4243 32.056 72.2003 31.584C71.9763 31.104 71.8643 30.552 71.8643 29.928C71.8643 29.304 71.9723 28.76 72.1883 28.296C72.4123 27.824 72.7283 27.46 73.1363 27.204C73.5443 26.948 74.0123 26.82 74.5403 26.82C75.0123 26.82 75.4243 26.924 75.7763 27.132C76.1283 27.332 76.3923 27.616 76.5683 27.984V24.168H77.5403ZM74.7323 32.28C75.3243 32.28 75.7803 32.08 76.1003 31.68C76.4203 31.272 76.5803 30.696 76.5803 29.952C76.5803 29.216 76.4203 28.648 76.1003 28.248C75.7803 27.84 75.3243 27.636 74.7323 27.636C74.1403 27.636 73.6763 27.836 73.3403 28.236C73.0123 28.636 72.8483 29.2 72.8483 29.928C72.8483 30.672 73.0123 31.252 73.3403 31.668C73.6763 32.076 74.1403 32.28 74.7323 32.28ZM85.2805 33.084C84.6965 33.084 84.1845 32.956 83.7445 32.7C83.3125 32.444 82.9765 32.084 82.7365 31.62C82.5045 31.148 82.3885 30.6 82.3885 29.976C82.3885 29.352 82.5085 28.804 82.7485 28.332C82.9885 27.852 83.3285 27.48 83.7685 27.216C84.2165 26.952 84.7365 26.82 85.3285 26.82C85.7365 26.82 86.1285 26.892 86.5045 27.036C86.8885 27.172 87.2045 27.364 87.4525 27.612L87.1285 28.332C86.8245 28.092 86.5285 27.916 86.2405 27.804C85.9605 27.692 85.6725 27.636 85.3765 27.636C84.7605 27.636 84.2765 27.844 83.9245 28.26C83.5725 28.668 83.3965 29.24 83.3965 29.976C83.3965 30.704 83.5685 31.272 83.9125 31.68C84.2645 32.08 84.7525 32.28 85.3765 32.28C85.6725 32.28 85.9605 32.224 86.2405 32.112C86.5285 32 86.8245 31.824 87.1285 31.584L87.4525 32.304C87.1965 32.544 86.8725 32.736 86.4805 32.88C86.0965 33.016 85.6965 33.084 85.2805 33.084ZM88.7899 33V24.168H89.7619V33H88.7899ZM91.7493 33V26.964H92.7213V33H91.7493ZM91.6533 24.408H92.8413V25.512H91.6533V24.408ZM97.2407 33.084C96.6567 33.084 96.1447 32.956 95.7047 32.7C95.2727 32.444 94.9367 32.084 94.6967 31.62C94.4647 31.148 94.3487 30.6 94.3487 29.976C94.3487 29.352 94.4687 28.804 94.7087 28.332C94.9487 27.852 95.2887 27.48 95.7287 27.216C96.1767 26.952 96.6967 26.82 97.2887 26.82C97.6967 26.82 98.0887 26.892 98.4647 27.036C98.8487 27.172 99.1647 27.364 99.4127 27.612L99.0887 28.332C98.7847 28.092 98.4887 27.916 98.2007 27.804C97.9207 27.692 97.6327 27.636 97.3367 27.636C96.7207 27.636 96.2367 27.844 95.8847 28.26C95.5327 28.668 95.3567 29.24 95.3567 29.976C95.3567 30.704 95.5287 31.272 95.8727 31.68C96.2247 32.08 96.7127 32.28 97.3367 32.28C97.6327 32.28 97.9207 32.224 98.2007 32.112C98.4887 32 98.7847 31.824 99.0887 31.584L99.4127 32.304C99.1567 32.544 98.8327 32.736 98.4407 32.88C98.0567 33.016 97.6567 33.084 97.2407 33.084ZM106.09 33H104.818L101.722 30.096V33H100.75V24.168H101.722V29.736L104.566 26.976H105.802L102.778 29.868L106.09 33ZM108.96 33.084C107.944 33.084 107.14 32.824 106.548 32.304L106.872 31.584C107.2 31.84 107.532 32.024 107.868 32.136C108.204 32.248 108.58 32.304 108.996 32.304C109.452 32.304 109.796 32.228 110.028 32.076C110.268 31.916 110.388 31.688 110.388 31.392C110.388 31.152 110.308 30.96 110.148 30.816C109.988 30.672 109.724 30.56 109.356 30.48L108.336 30.24C107.832 30.128 107.44 29.928 107.16 29.64C106.888 29.352 106.752 29.008 106.752 28.608C106.752 28.08 106.964 27.652 107.388 27.324C107.812 26.988 108.372 26.82 109.068 26.82C109.492 26.82 109.892 26.888 110.268 27.024C110.644 27.16 110.96 27.356 111.216 27.612L110.892 28.32C110.324 27.848 109.716 27.612 109.068 27.612C108.636 27.612 108.3 27.696 108.06 27.864C107.828 28.024 107.712 28.252 107.712 28.548C107.712 28.796 107.784 28.992 107.928 29.136C108.08 29.28 108.32 29.392 108.648 29.472L109.668 29.724C110.228 29.852 110.644 30.052 110.916 30.324C111.188 30.588 111.324 30.936 111.324 31.368C111.324 31.888 111.112 32.304 110.688 32.616C110.264 32.928 109.688 33.084 108.96 33.084Z" fill="#0E2446"/>
<circle cx="6" cy="29" r="6" fill="#25CC66"/>
<path d="M25.056 119V110.456H27.924C28.836 110.456 29.612 110.624 30.252 110.96C30.892 111.288 31.38 111.772 31.716 112.412C32.052 113.044 32.22 113.812 32.22 114.716C32.22 115.628 32.048 116.404 31.704 117.044C31.368 117.676 30.88 118.16 30.24 118.496C29.6 118.832 28.828 119 27.924 119H25.056ZM26.04 118.16H27.864C28.968 118.16 29.796 117.872 30.348 117.296C30.908 116.72 31.188 115.86 31.188 114.716C31.188 112.436 30.08 111.296 27.864 111.296H26.04V118.16ZM38.9331 118.28C38.6691 118.528 38.3291 118.724 37.9131 118.868C37.5051 119.012 37.0851 119.084 36.6531 119.084C36.0291 119.084 35.4891 118.96 35.0331 118.712C34.5851 118.464 34.2371 118.108 33.9891 117.644C33.7491 117.172 33.6291 116.612 33.6291 115.964C33.6291 115.34 33.7491 114.792 33.9891 114.32C34.2291 113.848 34.5611 113.48 34.9851 113.216C35.4171 112.952 35.9131 112.82 36.4731 112.82C37.0091 112.82 37.4691 112.94 37.8531 113.18C38.2371 113.412 38.5291 113.748 38.7291 114.188C38.9371 114.628 39.0411 115.156 39.0411 115.772V115.952H34.4811V115.316H38.4891L38.1771 115.76C38.1931 115.056 38.0531 114.516 37.7571 114.14C37.4691 113.764 37.0451 113.576 36.4851 113.576C35.9011 113.576 35.4411 113.784 35.1051 114.2C34.7771 114.608 34.6131 115.176 34.6131 115.904C34.6131 116.688 34.7851 117.28 35.1291 117.68C35.4811 118.08 35.9931 118.28 36.6651 118.28C37.0171 118.28 37.3531 118.224 37.6731 118.112C38.0011 117.992 38.3131 117.812 38.6091 117.572L38.9331 118.28ZM43.1485 119.084C42.5565 119.084 42.0445 118.956 41.6125 118.7C41.1805 118.444 40.8445 118.084 40.6045 117.62C40.3725 117.156 40.2565 116.608 40.2565 115.976C40.2565 115.352 40.3765 114.804 40.6165 114.332C40.8565 113.852 41.1965 113.48 41.6365 113.216C42.0765 112.952 42.5965 112.82 43.1965 112.82C43.6045 112.82 43.9965 112.892 44.3725 113.036C44.7565 113.172 45.0725 113.364 45.3205 113.612L44.9965 114.332C44.7005 114.1 44.4085 113.928 44.1205 113.816C43.8405 113.696 43.5485 113.636 43.2445 113.636C42.6365 113.636 42.1525 113.84 41.7925 114.248C41.4405 114.656 41.2645 115.232 41.2645 115.976C41.2645 116.712 41.4405 117.28 41.7925 117.68C42.1445 118.08 42.6285 118.28 43.2445 118.28C43.5405 118.28 43.8325 118.224 44.1205 118.112C44.4085 117.992 44.7005 117.816 44.9965 117.584L45.3205 118.304C45.0645 118.544 44.7405 118.736 44.3485 118.88C43.9645 119.016 43.5645 119.084 43.1485 119.084ZM46.6579 119V114.656C46.6579 114.376 46.6499 114.096 46.6339 113.816C46.6259 113.528 46.6019 113.244 46.5619 112.964H47.4859L47.6179 114.452L47.4859 114.416C47.5979 113.888 47.8379 113.492 48.2059 113.228C48.5819 112.956 49.0019 112.82 49.4659 112.82C49.5699 112.82 49.6659 112.828 49.7539 112.844C49.8499 112.852 49.9379 112.868 50.0179 112.892L49.9939 113.78C49.8099 113.716 49.5979 113.684 49.3579 113.684C48.9419 113.684 48.6059 113.776 48.3499 113.96C48.1019 114.144 47.9179 114.38 47.7979 114.668C47.6859 114.948 47.6299 115.244 47.6299 115.556V119H46.6579ZM55.9323 118.28C55.6683 118.528 55.3283 118.724 54.9123 118.868C54.5043 119.012 54.0843 119.084 53.6523 119.084C53.0283 119.084 52.4883 118.96 52.0323 118.712C51.5843 118.464 51.2363 118.108 50.9883 117.644C50.7483 117.172 50.6283 116.612 50.6283 115.964C50.6283 115.34 50.7483 114.792 50.9883 114.32C51.2283 113.848 51.5603 113.48 51.9843 113.216C52.4163 112.952 52.9123 112.82 53.4723 112.82C54.0083 112.82 54.4683 112.94 54.8523 113.18C55.2363 113.412 55.5283 113.748 55.7283 114.188C55.9363 114.628 56.0403 115.156 56.0403 115.772V115.952H51.4803V115.316H55.4883L55.1763 115.76C55.1923 115.056 55.0523 114.516 54.7563 114.14C54.4683 113.764 54.0443 113.576 53.4843 113.576C52.9003 113.576 52.4403 113.784 52.1043 114.2C51.7763 114.608 51.6123 115.176 51.6123 115.904C51.6123 116.688 51.7843 117.28 52.1283 117.68C52.4803 118.08 52.9923 118.28 53.6643 118.28C54.0163 118.28 54.3523 118.224 54.6723 118.112C55.0003 117.992 55.3123 117.812 55.6083 117.572L55.9323 118.28ZM59.9317 119.084C59.3957 119.084 58.9237 118.96 58.5157 118.712C58.1157 118.456 57.8037 118.096 57.5797 117.632C57.3637 117.16 57.2557 116.608 57.2557 115.976C57.2557 115.344 57.3677 114.792 57.5917 114.32C57.8157 113.848 58.1277 113.48 58.5277 113.216C58.9357 112.952 59.4037 112.82 59.9317 112.82C60.4837 112.82 60.9517 112.956 61.3357 113.228C61.7197 113.5 61.9797 113.888 62.1157 114.392L61.9717 114.488V112.964H62.9317V119H61.9717V117.44L62.1157 117.512C61.9797 118.016 61.7197 118.404 61.3357 118.676C60.9517 118.948 60.4837 119.084 59.9317 119.084ZM60.1237 118.28C60.7157 118.28 61.1717 118.08 61.4917 117.68C61.8117 117.272 61.9717 116.696 61.9717 115.952C61.9717 115.208 61.8077 114.636 61.4797 114.236C61.1597 113.836 60.7077 113.636 60.1237 113.636C59.5317 113.636 59.0677 113.844 58.7317 114.26C58.4037 114.668 58.2397 115.24 58.2397 115.976C58.2397 116.712 58.4037 117.28 58.7317 117.68C59.0677 118.08 59.5317 118.28 60.1237 118.28ZM66.951 119.084C65.935 119.084 65.131 118.824 64.539 118.304L64.863 117.584C65.183 117.832 65.511 118.016 65.847 118.136C66.191 118.248 66.571 118.304 66.987 118.304C67.443 118.304 67.787 118.228 68.019 118.076C68.259 117.916 68.379 117.688 68.379 117.392C68.379 117.152 68.299 116.964 68.139 116.828C67.979 116.684 67.715 116.568 67.347 116.48L66.327 116.24C65.823 116.128 65.431 115.928 65.151 115.64C64.879 115.352 64.743 115.008 64.743 114.608C64.743 114.256 64.839 113.948 65.031 113.684C65.223 113.412 65.491 113.2 65.835 113.048C66.179 112.896 66.587 112.82 67.059 112.82C67.483 112.82 67.883 112.888 68.259 113.024C68.635 113.16 68.951 113.356 69.207 113.612L68.883 114.32C68.595 114.08 68.299 113.904 67.995 113.792C67.699 113.672 67.387 113.612 67.059 113.612C66.627 113.612 66.291 113.696 66.051 113.864C65.819 114.032 65.703 114.26 65.703 114.548C65.703 114.796 65.775 114.992 65.919 115.136C66.071 115.28 66.311 115.392 66.639 115.472L67.659 115.724C68.227 115.844 68.643 116.044 68.907 116.324C69.179 116.596 69.315 116.944 69.315 117.368C69.315 117.888 69.103 118.304 68.679 118.616C68.255 118.928 67.679 119.084 66.951 119.084ZM75.9081 118.28C75.6441 118.528 75.3041 118.724 74.8881 118.868C74.4801 119.012 74.0601 119.084 73.6281 119.084C73.0041 119.084 72.4641 118.96 72.0081 118.712C71.5601 118.464 71.2121 118.108 70.9641 117.644C70.7241 117.172 70.6041 116.612 70.6041 115.964C70.6041 115.34 70.7241 114.792 70.9641 114.32C71.2041 113.848 71.5361 113.48 71.9601 113.216C72.3921 112.952 72.8881 112.82 73.4481 112.82C73.9841 112.82 74.4441 112.94 74.8281 113.18C75.2121 113.412 75.5041 113.748 75.7041 114.188C75.9121 114.628 76.0161 115.156 76.0161 115.772V115.952H71.4561V115.316H75.4641L75.1521 115.76C75.1681 115.056 75.0281 114.516 74.7321 114.14C74.4441 113.764 74.0201 113.576 73.4601 113.576C72.8761 113.576 72.4161 113.784 72.0801 114.2C71.7521 114.608 71.5881 115.176 71.5881 115.904C71.5881 116.688 71.7601 117.28 72.1041 117.68C72.4561 118.08 72.9681 118.28 73.6401 118.28C73.9921 118.28 74.3281 118.224 74.6481 118.112C74.9761 117.992 75.2881 117.812 75.5841 117.572L75.9081 118.28ZM82.9075 119H81.9475V117.38L82.0915 117.512C81.9555 118.016 81.6955 118.404 81.3115 118.676C80.9275 118.948 80.4595 119.084 79.9075 119.084C79.3795 119.084 78.9115 118.956 78.5035 118.7C78.1035 118.436 77.7915 118.068 77.5675 117.596C77.3435 117.116 77.2315 116.56 77.2315 115.928C77.2315 115.296 77.3395 114.748 77.5555 114.284C77.7795 113.82 78.0915 113.46 78.4915 113.204C78.8995 112.948 79.3715 112.82 79.9075 112.82C80.4595 112.82 80.9275 112.96 81.3115 113.24C81.6955 113.512 81.9555 113.896 82.0915 114.392L81.9355 114.512V110.168H82.9075V119ZM80.0995 118.28C80.6835 118.28 81.1355 118.08 81.4555 117.68C81.7835 117.272 81.9475 116.696 81.9475 115.952C81.9475 115.216 81.7875 114.648 81.4675 114.248C81.1475 113.84 80.6915 113.636 80.0995 113.636C79.5075 113.636 79.0435 113.836 78.7075 114.236C78.3795 114.636 78.2155 115.2 78.2155 115.928C78.2155 116.672 78.3795 117.252 78.7075 117.668C79.0435 118.076 79.5075 118.28 80.0995 118.28ZM90.6477 119.084C90.0557 119.084 89.5437 118.956 89.1117 118.7C88.6797 118.444 88.3437 118.084 88.1037 117.62C87.8717 117.156 87.7557 116.608 87.7557 115.976C87.7557 115.352 87.8757 114.804 88.1157 114.332C88.3557 113.852 88.6957 113.48 89.1357 113.216C89.5757 112.952 90.0957 112.82 90.6957 112.82C91.1037 112.82 91.4957 112.892 91.8717 113.036C92.2557 113.172 92.5717 113.364 92.8197 113.612L92.4957 114.332C92.1997 114.1 91.9077 113.928 91.6197 113.816C91.3397 113.696 91.0477 113.636 90.7437 113.636C90.1357 113.636 89.6517 113.84 89.2917 114.248C88.9397 114.656 88.7637 115.232 88.7637 115.976C88.7637 116.712 88.9397 117.28 89.2917 117.68C89.6437 118.08 90.1277 118.28 90.7437 118.28C91.0397 118.28 91.3317 118.224 91.6197 118.112C91.9077 117.992 92.1997 117.816 92.4957 117.584L92.8197 118.304C92.5637 118.544 92.2397 118.736 91.8477 118.88C91.4637 119.016 91.0637 119.084 90.6477 119.084ZM94.1571 119V110.168H95.1291V119H94.1571ZM97.1165 119V112.964H98.0885V119H97.1165ZM97.0205 110.408H98.2085V111.512H97.0205V110.408ZM102.608 119.084C102.016 119.084 101.504 118.956 101.072 118.7C100.64 118.444 100.304 118.084 100.064 117.62C99.8318 117.156 99.7158 116.608 99.7158 115.976C99.7158 115.352 99.8358 114.804 100.076 114.332C100.316 113.852 100.656 113.48 101.096 113.216C101.536 112.952 102.056 112.82 102.656 112.82C103.064 112.82 103.456 112.892 103.832 113.036C104.216 113.172 104.532 113.364 104.78 113.612L104.456 114.332C104.16 114.1 103.868 113.928 103.58 113.816C103.3 113.696 103.008 113.636 102.704 113.636C102.096 113.636 101.612 113.84 101.252 114.248C100.9 114.656 100.724 115.232 100.724 115.976C100.724 116.712 100.9 117.28 101.252 117.68C101.604 118.08 102.088 118.28 102.704 118.28C103 118.28 103.292 118.224 103.58 118.112C103.868 117.992 104.16 117.816 104.456 117.584L104.78 118.304C104.524 118.544 104.2 118.736 103.808 118.88C103.424 119.016 103.024 119.084 102.608 119.084ZM110.185 119L106.897 115.916L109.933 112.976H111.169L107.809 116.192L107.845 115.58L111.457 119H110.185ZM106.117 119V110.168H107.089V119H106.117ZM114.328 119.084C113.312 119.084 112.508 118.824 111.916 118.304L112.24 117.584C112.56 117.832 112.888 118.016 113.224 118.136C113.568 118.248 113.948 118.304 114.364 118.304C114.82 118.304 115.164 118.228 115.396 118.076C115.636 117.916 115.756 117.688 115.756 117.392C115.756 117.152 115.676 116.964 115.516 116.828C115.356 116.684 115.092 116.568 114.724 116.48L113.704 116.24C113.2 116.128 112.808 115.928 112.528 115.64C112.256 115.352 112.12 115.008 112.12 114.608C112.12 114.256 112.216 113.948 112.408 113.684C112.6 113.412 112.868 113.2 113.212 113.048C113.556 112.896 113.964 112.82 114.436 112.82C114.86 112.82 115.26 112.888 115.636 113.024C116.012 113.16 116.328 113.356 116.584 113.612L116.26 114.32C115.972 114.08 115.676 113.904 115.372 113.792C115.076 113.672 114.764 113.612 114.436 113.612C114.004 113.612 113.668 113.696 113.428 113.864C113.196 114.032 113.08 114.26 113.08 114.548C113.08 114.796 113.152 114.992 113.296 115.136C113.448 115.28 113.688 115.392 114.016 115.472L115.036 115.724C115.604 115.844 116.02 116.044 116.284 116.324C116.556 116.596 116.692 116.944 116.692 117.368C116.692 117.888 116.48 118.304 116.056 118.616C115.632 118.928 115.056 119.084 114.328 119.084Z" fill="#0E2446"/>
<circle cx="6" cy="115" r="6" fill="#F6A609"/>
<path d="M25.056 76V67.456H25.812L31.26 74.716L30.972 74.788V67.456H31.908V76H31.14L25.704 68.752L25.98 68.668V76H25.056ZM38.9331 75.28C38.6691 75.528 38.3291 75.724 37.9131 75.868C37.5051 76.012 37.0851 76.084 36.6531 76.084C36.0291 76.084 35.4891 75.96 35.0331 75.712C34.5851 75.464 34.2371 75.108 33.9891 74.644C33.7491 74.172 33.6291 73.612 33.6291 72.964C33.6291 72.34 33.7491 71.792 33.9891 71.32C34.2291 70.848 34.5611 70.48 34.9851 70.216C35.4171 69.952 35.9131 69.82 36.4731 69.82C37.0091 69.82 37.4691 69.94 37.8531 70.18C38.2371 70.412 38.5291 70.748 38.7291 71.188C38.9371 71.628 39.0411 72.156 39.0411 72.772V72.952H34.4811V72.316H38.4891L38.1771 72.76C38.1931 72.056 38.0531 71.516 37.7571 71.14C37.4691 70.764 37.0451 70.576 36.4851 70.576C35.9011 70.576 35.4411 70.784 35.1051 71.2C34.7771 71.608 34.6131 72.176 34.6131 72.904C34.6131 73.688 34.7851 74.28 35.1291 74.68C35.4811 75.08 35.9931 75.28 36.6651 75.28C37.0171 75.28 37.3531 75.224 37.6731 75.112C38.0011 74.992 38.3131 74.812 38.6091 74.572L38.9331 75.28ZM42.1662 76L39.9342 69.964H40.9542L42.8142 75.28H42.5022L44.4222 69.964H45.2742L47.1702 75.28H46.8582L48.7542 69.964H49.7142L47.4822 76H46.5462L44.5542 70.564H45.0822L43.1022 76H42.1662ZM58.3727 76L55.0847 72.916L58.1207 69.976H59.3567L55.9967 73.192L56.0327 72.58L59.6447 76H58.3727ZM54.3047 76V67.168H55.2767V76H54.3047ZM65.4191 75.28C65.1551 75.528 64.8151 75.724 64.3991 75.868C63.9911 76.012 63.5711 76.084 63.1391 76.084C62.5151 76.084 61.9751 75.96 61.5191 75.712C61.0711 75.464 60.7231 75.108 60.4751 74.644C60.2351 74.172 60.1151 73.612 60.1151 72.964C60.1151 72.34 60.2351 71.792 60.4751 71.32C60.7151 70.848 61.0471 70.48 61.4711 70.216C61.9031 69.952 62.3991 69.82 62.9591 69.82C63.4951 69.82 63.9551 69.94 64.3391 70.18C64.7231 70.412 65.0151 70.748 65.2151 71.188C65.4231 71.628 65.5271 72.156 65.5271 72.772V72.952H60.9671V72.316H64.9751L64.6631 72.76C64.6791 72.056 64.5391 71.516 64.2431 71.14C63.9551 70.764 63.5311 70.576 62.9711 70.576C62.3871 70.576 61.9271 70.784 61.5911 71.2C61.2631 71.608 61.0991 72.176 61.0991 72.904C61.0991 73.688 61.2711 74.28 61.6151 74.68C61.9671 75.08 62.4791 75.28 63.1511 75.28C63.5031 75.28 63.8391 75.224 64.1591 75.112C64.4871 74.992 64.7991 74.812 65.0951 74.572L65.4191 75.28ZM66.7441 78.724L66.5401 77.968C66.9081 77.88 67.2161 77.776 67.4641 77.656C67.7201 77.544 67.9321 77.396 68.1001 77.212C68.2761 77.028 68.4281 76.784 68.5561 76.48L68.9401 75.592L69.1561 75.292L71.3641 69.964H72.3361L69.5161 76.552C69.3001 77.04 69.0561 77.428 68.7841 77.716C68.5121 78.012 68.2041 78.236 67.8601 78.388C67.5241 78.54 67.1521 78.652 66.7441 78.724ZM68.9521 76.312L66.2401 69.964H67.2601L69.4441 75.292L68.9521 76.312ZM75.1271 76L72.8951 69.964H73.9151L75.7751 75.28H75.4631L77.3831 69.964H78.2351L80.1311 75.28H79.8191L81.7151 69.964H82.6751L80.4431 76H79.5071L77.5151 70.564H78.0431L76.0631 76H75.1271ZM86.4625 76.084C85.8865 76.084 85.3825 75.956 84.9505 75.7C84.5265 75.444 84.1945 75.084 83.9545 74.62C83.7225 74.148 83.6065 73.592 83.6065 72.952C83.6065 72.32 83.7225 71.768 83.9545 71.296C84.1945 70.824 84.5265 70.46 84.9505 70.204C85.3825 69.948 85.8865 69.82 86.4625 69.82C87.0385 69.82 87.5385 69.948 87.9625 70.204C88.3945 70.46 88.7265 70.824 88.9585 71.296C89.1985 71.768 89.3185 72.32 89.3185 72.952C89.3185 73.592 89.1985 74.148 88.9585 74.62C88.7265 75.084 88.3945 75.444 87.9625 75.7C87.5385 75.956 87.0385 76.084 86.4625 76.084ZM86.4625 75.28C87.0545 75.28 87.5105 75.084 87.8305 74.692C88.1585 74.292 88.3225 73.712 88.3225 72.952C88.3225 72.208 88.1585 71.636 87.8305 71.236C87.5025 70.836 87.0465 70.636 86.4625 70.636C85.8785 70.636 85.4185 70.836 85.0825 71.236C84.7545 71.636 84.5905 72.208 84.5905 72.952C84.5905 73.712 84.7505 74.292 85.0705 74.692C85.3985 75.084 85.8625 75.28 86.4625 75.28ZM90.9337 76V71.656C90.9337 71.376 90.9257 71.096 90.9097 70.816C90.9017 70.528 90.8777 70.244 90.8377 69.964H91.7617L91.8937 71.452L91.7617 71.416C91.8737 70.888 92.1137 70.492 92.4817 70.228C92.8577 69.956 93.2777 69.82 93.7417 69.82C93.8457 69.82 93.9417 69.828 94.0297 69.844C94.1257 69.852 94.2137 69.868 94.2937 69.892L94.2697 70.78C94.0857 70.716 93.8737 70.684 93.6337 70.684C93.2177 70.684 92.8817 70.776 92.6257 70.96C92.3777 71.144 92.1937 71.38 92.0737 71.668C91.9617 71.948 91.9057 72.244 91.9057 72.556V76H90.9337ZM100.58 76H99.6201V74.38L99.7641 74.512C99.6281 75.016 99.3681 75.404 98.9841 75.676C98.6001 75.948 98.1321 76.084 97.5801 76.084C97.0521 76.084 96.5841 75.956 96.1761 75.7C95.7761 75.436 95.4641 75.068 95.2401 74.596C95.0161 74.116 94.9041 73.56 94.9041 72.928C94.9041 72.296 95.0121 71.748 95.2281 71.284C95.4521 70.82 95.7641 70.46 96.1641 70.204C96.5721 69.948 97.0441 69.82 97.5801 69.82C98.1321 69.82 98.6001 69.96 98.9841 70.24C99.3681 70.512 99.6281 70.896 99.7641 71.392L99.6081 71.512V67.168H100.58V76ZM97.7721 75.28C98.3561 75.28 98.8081 75.08 99.1281 74.68C99.4561 74.272 99.6201 73.696 99.6201 72.952C99.6201 72.216 99.4601 71.648 99.1401 71.248C98.8201 70.84 98.3641 70.636 97.7721 70.636C97.1801 70.636 96.7161 70.836 96.3801 71.236C96.0521 71.636 95.8881 72.2 95.8881 72.928C95.8881 73.672 96.0521 74.252 96.3801 74.668C96.7161 75.076 97.1801 75.28 97.7721 75.28ZM104.599 76.084C103.583 76.084 102.779 75.824 102.187 75.304L102.511 74.584C102.831 74.832 103.159 75.016 103.495 75.136C103.839 75.248 104.219 75.304 104.635 75.304C105.091 75.304 105.435 75.228 105.667 75.076C105.907 74.916 106.027 74.688 106.027 74.392C106.027 74.152 105.947 73.964 105.787 73.828C105.627 73.684 105.363 73.568 104.995 73.48L103.975 73.24C103.471 73.128 103.079 72.928 102.799 72.64C102.527 72.352 102.391 72.008 102.391 71.608C102.391 71.256 102.487 70.948 102.679 70.684C102.871 70.412 103.139 70.2 103.483 70.048C103.827 69.896 104.235 69.82 104.707 69.82C105.131 69.82 105.531 69.888 105.907 70.024C106.283 70.16 106.599 70.356 106.855 70.612L106.531 71.32C106.243 71.08 105.947 70.904 105.643 70.792C105.347 70.672 105.035 70.612 104.707 70.612C104.275 70.612 103.939 70.696 103.699 70.864C103.467 71.032 103.351 71.26 103.351 71.548C103.351 71.796 103.423 71.992 103.567 72.136C103.719 72.28 103.959 72.392 104.287 72.472L105.307 72.724C105.875 72.844 106.291 73.044 106.555 73.324C106.827 73.596 106.963 73.944 106.963 74.368C106.963 74.888 106.751 75.304 106.327 75.616C105.903 75.928 105.327 76.084 104.599 76.084Z" fill="#0E2446"/>
<circle cx="6" cy="72" r="6" fill="#007EFF"/>
<path d="M25.056 162V153.456H26.04V161.16H30.324V162H25.056ZM34.0593 162.084C33.4833 162.084 32.9793 161.956 32.5473 161.7C32.1233 161.444 31.7913 161.084 31.5513 160.62C31.3193 160.148 31.2033 159.592 31.2033 158.952C31.2033 158.32 31.3193 157.768 31.5513 157.296C31.7913 156.824 32.1233 156.46 32.5473 156.204C32.9793 155.948 33.4833 155.82 34.0593 155.82C34.6353 155.82 35.1353 155.948 35.5593 156.204C35.9913 156.46 36.3233 156.824 36.5553 157.296C36.7953 157.768 36.9153 158.32 36.9153 158.952C36.9153 159.592 36.7953 160.148 36.5553 160.62C36.3233 161.084 35.9913 161.444 35.5593 161.7C35.1353 161.956 34.6353 162.084 34.0593 162.084ZM34.0593 161.28C34.6513 161.28 35.1073 161.084 35.4273 160.692C35.7553 160.292 35.9193 159.712 35.9193 158.952C35.9193 158.208 35.7553 157.636 35.4273 157.236C35.0993 156.836 34.6433 156.636 34.0593 156.636C33.4753 156.636 33.0153 156.836 32.6793 157.236C32.3513 157.636 32.1873 158.208 32.1873 158.952C32.1873 159.712 32.3473 160.292 32.6673 160.692C32.9953 161.084 33.4593 161.28 34.0593 161.28ZM40.5705 162.084C39.5545 162.084 38.7505 161.824 38.1585 161.304L38.4825 160.584C38.8025 160.832 39.1305 161.016 39.4665 161.136C39.8105 161.248 40.1905 161.304 40.6065 161.304C41.0625 161.304 41.4065 161.228 41.6385 161.076C41.8785 160.916 41.9985 160.688 41.9985 160.392C41.9985 160.152 41.9185 159.964 41.7585 159.828C41.5985 159.684 41.3345 159.568 40.9665 159.48L39.9465 159.24C39.4425 159.128 39.0505 158.928 38.7705 158.64C38.4985 158.352 38.3625 158.008 38.3625 157.608C38.3625 157.256 38.4585 156.948 38.6505 156.684C38.8425 156.412 39.1105 156.2 39.4545 156.048C39.7985 155.896 40.2065 155.82 40.6785 155.82C41.1025 155.82 41.5025 155.888 41.8785 156.024C42.2545 156.16 42.5705 156.356 42.8265 156.612L42.5025 157.32C42.2145 157.08 41.9185 156.904 41.6145 156.792C41.3185 156.672 41.0065 156.612 40.6785 156.612C40.2465 156.612 39.9105 156.696 39.6705 156.864C39.4385 157.032 39.3225 157.26 39.3225 157.548C39.3225 157.796 39.3945 157.992 39.5385 158.136C39.6905 158.28 39.9305 158.392 40.2585 158.472L41.2785 158.724C41.8465 158.844 42.2625 159.044 42.5265 159.324C42.7985 159.596 42.9345 159.944 42.9345 160.368C42.9345 160.888 42.7225 161.304 42.2985 161.616C41.8745 161.928 41.2985 162.084 40.5705 162.084ZM43.6731 156.732V155.964H47.5491V156.732H43.6731ZM47.5251 161.136V161.964C47.3891 162.004 47.2531 162.032 47.1171 162.048C46.9891 162.072 46.8451 162.084 46.6851 162.084C46.1251 162.084 45.6771 161.924 45.3411 161.604C45.0131 161.284 44.8491 160.804 44.8491 160.164V154.416L45.8211 154.068V160.032C45.8211 160.352 45.8651 160.6 45.9531 160.776C46.0491 160.952 46.1771 161.076 46.3371 161.148C46.4971 161.212 46.6771 161.244 46.8771 161.244C46.9971 161.244 47.1051 161.236 47.2011 161.22C47.2971 161.204 47.4051 161.176 47.5251 161.136ZM56.1173 162L52.8293 158.916L55.8653 155.976H57.1013L53.7413 159.192L53.7773 158.58L57.3893 162H56.1173ZM52.0493 162V153.168H53.0213V162H52.0493ZM63.1636 161.28C62.8996 161.528 62.5596 161.724 62.1436 161.868C61.7356 162.012 61.3156 162.084 60.8836 162.084C60.2596 162.084 59.7196 161.96 59.2636 161.712C58.8156 161.464 58.4676 161.108 58.2196 160.644C57.9796 160.172 57.8596 159.612 57.8596 158.964C57.8596 158.34 57.9796 157.792 58.2196 157.32C58.4596 156.848 58.7916 156.48 59.2156 156.216C59.6476 155.952 60.1436 155.82 60.7036 155.82C61.2396 155.82 61.6996 155.94 62.0836 156.18C62.4676 156.412 62.7596 156.748 62.9596 157.188C63.1676 157.628 63.2716 158.156 63.2716 158.772V158.952H58.7116V158.316H62.7196L62.4076 158.76C62.4236 158.056 62.2836 157.516 61.9876 157.14C61.6996 156.764 61.2756 156.576 60.7156 156.576C60.1316 156.576 59.6716 156.784 59.3356 157.2C59.0076 157.608 58.8436 158.176 58.8436 158.904C58.8436 159.688 59.0156 160.28 59.3596 160.68C59.7116 161.08 60.2236 161.28 60.8956 161.28C61.2476 161.28 61.5836 161.224 61.9036 161.112C62.2316 160.992 62.5436 160.812 62.8396 160.572L63.1636 161.28ZM64.4886 164.724L64.2846 163.968C64.6526 163.88 64.9606 163.776 65.2086 163.656C65.4646 163.544 65.6766 163.396 65.8446 163.212C66.0206 163.028 66.1726 162.784 66.3006 162.48L66.6846 161.592L66.9006 161.292L69.1086 155.964H70.0806L67.2606 162.552C67.0446 163.04 66.8006 163.428 66.5286 163.716C66.2566 164.012 65.9486 164.236 65.6046 164.388C65.2686 164.54 64.8966 164.652 64.4886 164.724ZM66.6966 162.312L63.9846 155.964H65.0046L67.1886 161.292L66.6966 162.312ZM72.8716 162L70.6396 155.964H71.6596L73.5196 161.28H73.2076L75.1276 155.964H75.9796L77.8756 161.28H77.5636L79.4596 155.964H80.4196L78.1876 162H77.2516L75.2596 156.564H75.7876L73.8076 162H72.8716ZM84.207 162.084C83.631 162.084 83.127 161.956 82.695 161.7C82.271 161.444 81.939 161.084 81.699 160.62C81.467 160.148 81.351 159.592 81.351 158.952C81.351 158.32 81.467 157.768 81.699 157.296C81.939 156.824 82.271 156.46 82.695 156.204C83.127 155.948 83.631 155.82 84.207 155.82C84.783 155.82 85.283 155.948 85.707 156.204C86.139 156.46 86.471 156.824 86.703 157.296C86.943 157.768 87.063 158.32 87.063 158.952C87.063 159.592 86.943 160.148 86.703 160.62C86.471 161.084 86.139 161.444 85.707 161.7C85.283 161.956 84.783 162.084 84.207 162.084ZM84.207 161.28C84.799 161.28 85.255 161.084 85.575 160.692C85.903 160.292 86.067 159.712 86.067 158.952C86.067 158.208 85.903 157.636 85.575 157.236C85.247 156.836 84.791 156.636 84.207 156.636C83.623 156.636 83.163 156.836 82.827 157.236C82.499 157.636 82.335 158.208 82.335 158.952C82.335 159.712 82.495 160.292 82.815 160.692C83.143 161.084 83.607 161.28 84.207 161.28ZM88.6782 162V157.656C88.6782 157.376 88.6702 157.096 88.6542 156.816C88.6462 156.528 88.6222 156.244 88.5822 155.964H89.5062L89.6382 157.452L89.5062 157.416C89.6182 156.888 89.8582 156.492 90.2262 156.228C90.6022 155.956 91.0222 155.82 91.4862 155.82C91.5902 155.82 91.6862 155.828 91.7742 155.844C91.8702 155.852 91.9582 155.868 92.0382 155.892L92.0142 156.78C91.8302 156.716 91.6182 156.684 91.3782 156.684C90.9622 156.684 90.6262 156.776 90.3702 156.96C90.1222 157.144 89.9382 157.38 89.8182 157.668C89.7062 157.948 89.6502 158.244 89.6502 158.556V162H88.6782ZM98.3247 162H97.3647V160.38L97.5087 160.512C97.3727 161.016 97.1127 161.404 96.7287 161.676C96.3447 161.948 95.8767 162.084 95.3247 162.084C94.7967 162.084 94.3287 161.956 93.9207 161.7C93.5207 161.436 93.2087 161.068 92.9847 160.596C92.7607 160.116 92.6487 159.56 92.6487 158.928C92.6487 158.296 92.7567 157.748 92.9727 157.284C93.1967 156.82 93.5087 156.46 93.9087 156.204C94.3167 155.948 94.7887 155.82 95.3247 155.82C95.8767 155.82 96.3447 155.96 96.7287 156.24C97.1127 156.512 97.3727 156.896 97.5087 157.392L97.3527 157.512V153.168H98.3247V162ZM95.5167 161.28C96.1007 161.28 96.5527 161.08 96.8727 160.68C97.2007 160.272 97.3647 159.696 97.3647 158.952C97.3647 158.216 97.2047 157.648 96.8847 157.248C96.5647 156.84 96.1087 156.636 95.5167 156.636C94.9247 156.636 94.4607 156.836 94.1247 157.236C93.7967 157.636 93.6327 158.2 93.6327 158.928C93.6327 159.672 93.7967 160.252 94.1247 160.668C94.4607 161.076 94.9247 161.28 95.5167 161.28ZM102.344 162.084C101.328 162.084 100.524 161.824 99.932 161.304L100.256 160.584C100.576 160.832 100.904 161.016 101.24 161.136C101.584 161.248 101.964 161.304 102.38 161.304C102.836 161.304 103.18 161.228 103.412 161.076C103.652 160.916 103.772 160.688 103.772 160.392C103.772 160.152 103.692 159.964 103.532 159.828C103.372 159.684 103.108 159.568 102.74 159.48L101.72 159.24C101.216 159.128 100.824 158.928 100.544 158.64C100.272 158.352 100.136 158.008 100.136 157.608C100.136 157.256 100.232 156.948 100.424 156.684C100.616 156.412 100.884 156.2 101.228 156.048C101.572 155.896 101.98 155.82 102.452 155.82C102.876 155.82 103.276 155.888 103.652 156.024C104.028 156.16 104.344 156.356 104.6 156.612L104.276 157.32C103.988 157.08 103.692 156.904 103.388 156.792C103.092 156.672 102.78 156.612 102.452 156.612C102.02 156.612 101.684 156.696 101.444 156.864C101.212 157.032 101.096 157.26 101.096 157.548C101.096 157.796 101.168 157.992 101.312 158.136C101.464 158.28 101.704 158.392 102.032 158.472L103.052 158.724C103.62 158.844 104.036 159.044 104.3 159.324C104.572 159.596 104.708 159.944 104.708 160.368C104.708 160.888 104.496 161.304 104.072 161.616C103.648 161.928 103.072 162.084 102.344 162.084Z" fill="#0E2446"/>
<circle cx="6" cy="159" r="6" fill="#FB4E4E"/>
<path d="M25.056 205V196.456H25.812L31.26 203.716L30.972 203.788V196.456H31.908V205H31.14L25.704 197.752L25.98 197.668V205H25.056ZM36.4851 205.084C35.9091 205.084 35.4051 204.956 34.9731 204.7C34.5491 204.444 34.2171 204.084 33.9771 203.62C33.7451 203.148 33.6291 202.592 33.6291 201.952C33.6291 201.32 33.7451 200.768 33.9771 200.296C34.2171 199.824 34.5491 199.46 34.9731 199.204C35.4051 198.948 35.9091 198.82 36.4851 198.82C37.0611 198.82 37.5611 198.948 37.9851 199.204C38.4171 199.46 38.7491 199.824 38.9811 200.296C39.2211 200.768 39.3411 201.32 39.3411 201.952C39.3411 202.592 39.2211 203.148 38.9811 203.62C38.7491 204.084 38.4171 204.444 37.9851 204.7C37.5611 204.956 37.0611 205.084 36.4851 205.084ZM36.4851 204.28C37.0771 204.28 37.5331 204.084 37.8531 203.692C38.1811 203.292 38.3451 202.712 38.3451 201.952C38.3451 201.208 38.1811 200.636 37.8531 200.236C37.5251 199.836 37.0691 199.636 36.4851 199.636C35.9011 199.636 35.4411 199.836 35.1051 200.236C34.7771 200.636 34.6131 201.208 34.6131 201.952C34.6131 202.712 34.7731 203.292 35.0931 203.692C35.4211 204.084 35.8851 204.28 36.4851 204.28ZM44.1852 205V200.656C44.1852 200.376 44.1772 200.096 44.1612 199.816C44.1532 199.528 44.1292 199.244 44.0892 198.964H45.0132L45.1212 200.212L45.0012 200.296C45.1452 199.824 45.3932 199.46 45.7452 199.204C46.1052 198.948 46.5292 198.82 47.0172 198.82C47.6012 198.82 48.0532 198.964 48.3732 199.252C48.7012 199.54 48.9092 199.98 48.9972 200.572L48.7092 200.416C48.8372 199.928 49.0932 199.54 49.4772 199.252C49.8692 198.964 50.3372 198.82 50.8812 198.82C51.5452 198.82 52.0452 199.02 52.3812 199.42C52.7172 199.812 52.8852 200.408 52.8852 201.208V205H51.9132V201.256C51.9132 200.696 51.8132 200.288 51.6132 200.032C51.4132 199.768 51.0972 199.636 50.6652 199.636C50.1612 199.636 49.7612 199.808 49.4652 200.152C49.1772 200.496 49.0332 200.964 49.0332 201.556V205H48.0612V201.256C48.0612 200.696 47.9572 200.288 47.7492 200.032C47.5492 199.768 47.2332 199.636 46.8012 199.636C46.2892 199.636 45.8852 199.808 45.5892 200.152C45.3012 200.496 45.1572 200.964 45.1572 201.556V205H44.1852ZM57.3281 205.084C56.7521 205.084 56.2481 204.956 55.8161 204.7C55.3921 204.444 55.0601 204.084 54.8201 203.62C54.5881 203.148 54.4721 202.592 54.4721 201.952C54.4721 201.32 54.5881 200.768 54.8201 200.296C55.0601 199.824 55.3921 199.46 55.8161 199.204C56.2481 198.948 56.7521 198.82 57.3281 198.82C57.9041 198.82 58.4041 198.948 58.8281 199.204C59.2601 199.46 59.5921 199.824 59.8241 200.296C60.0641 200.768 60.1841 201.32 60.1841 201.952C60.1841 202.592 60.0641 203.148 59.8241 203.62C59.5921 204.084 59.2601 204.444 58.8281 204.7C58.4041 204.956 57.9041 205.084 57.3281 205.084ZM57.3281 204.28C57.9201 204.28 58.3761 204.084 58.6961 203.692C59.0241 203.292 59.1881 202.712 59.1881 201.952C59.1881 201.208 59.0241 200.636 58.6961 200.236C58.3681 199.836 57.9121 199.636 57.3281 199.636C56.7441 199.636 56.2841 199.836 55.9481 200.236C55.6201 200.636 55.4561 201.208 55.4561 201.952C55.4561 202.712 55.6161 203.292 55.9361 203.692C56.2641 204.084 56.7281 204.28 57.3281 204.28ZM63.505 205L60.937 198.976H61.957L64.141 204.292H63.853L66.061 198.976H67.033L64.429 205H63.505ZM73.0777 204.28C72.8137 204.528 72.4737 204.724 72.0577 204.868C71.6497 205.012 71.2297 205.084 70.7977 205.084C70.1737 205.084 69.6337 204.96 69.1777 204.712C68.7297 204.464 68.3817 204.108 68.1337 203.644C67.8937 203.172 67.7737 202.612 67.7737 201.964C67.7737 201.34 67.8937 200.792 68.1337 200.32C68.3737 199.848 68.7057 199.48 69.1297 199.216C69.5617 198.952 70.0577 198.82 70.6177 198.82C71.1537 198.82 71.6137 198.94 71.9977 199.18C72.3817 199.412 72.6737 199.748 72.8737 200.188C73.0817 200.628 73.1857 201.156 73.1857 201.772V201.952H68.6257V201.316H72.6337L72.3217 201.76C72.3377 201.056 72.1977 200.516 71.9017 200.14C71.6137 199.764 71.1897 199.576 70.6297 199.576C70.0457 199.576 69.5857 199.784 69.2497 200.2C68.9217 200.608 68.7577 201.176 68.7577 201.904C68.7577 202.688 68.9297 203.28 69.2737 203.68C69.6257 204.08 70.1377 204.28 70.8097 204.28C71.1617 204.28 71.4977 204.224 71.8177 204.112C72.1457 203.992 72.4577 203.812 72.7537 203.572L73.0777 204.28ZM74.761 205V200.656C74.761 200.376 74.753 200.096 74.737 199.816C74.729 199.528 74.705 199.244 74.665 198.964H75.589L75.697 200.212L75.577 200.296C75.721 199.824 75.969 199.46 76.321 199.204C76.681 198.948 77.105 198.82 77.593 198.82C78.177 198.82 78.629 198.964 78.949 199.252C79.277 199.54 79.485 199.98 79.573 200.572L79.285 200.416C79.413 199.928 79.669 199.54 80.053 199.252C80.445 198.964 80.913 198.82 81.457 198.82C82.121 198.82 82.621 199.02 82.957 199.42C83.293 199.812 83.461 200.408 83.461 201.208V205H82.489V201.256C82.489 200.696 82.389 200.288 82.189 200.032C81.989 199.768 81.673 199.636 81.241 199.636C80.737 199.636 80.337 199.808 80.041 200.152C79.753 200.496 79.609 200.964 79.609 201.556V205H78.637V201.256C78.637 200.696 78.533 200.288 78.325 200.032C78.125 199.768 77.809 199.636 77.377 199.636C76.865 199.636 76.461 199.808 76.165 200.152C75.877 200.496 75.733 200.964 75.733 201.556V205H74.761ZM90.3519 204.28C90.0879 204.528 89.7479 204.724 89.3319 204.868C88.9239 205.012 88.5039 205.084 88.0719 205.084C87.4479 205.084 86.9079 204.96 86.4519 204.712C86.0039 204.464 85.6559 204.108 85.4079 203.644C85.1679 203.172 85.0479 202.612 85.0479 201.964C85.0479 201.34 85.1679 200.792 85.4079 200.32C85.6479 199.848 85.9799 199.48 86.4039 199.216C86.8359 198.952 87.3319 198.82 87.8919 198.82C88.4279 198.82 88.8879 198.94 89.2719 199.18C89.6559 199.412 89.9479 199.748 90.1479 200.188C90.3559 200.628 90.4599 201.156 90.4599 201.772V201.952H85.8999V201.316H89.9079L89.5959 201.76C89.6119 201.056 89.4719 200.516 89.1759 200.14C88.8879 199.764 88.4639 199.576 87.9039 199.576C87.3199 199.576 86.8599 199.784 86.5239 200.2C86.1959 200.608 86.0319 201.176 86.0319 201.904C86.0319 202.688 86.2039 203.28 86.5479 203.68C86.8999 204.08 87.4119 204.28 88.0839 204.28C88.4359 204.28 88.7719 204.224 89.0919 204.112C89.4199 203.992 89.7319 203.812 90.0279 203.572L90.3519 204.28ZM92.0352 205V200.656C92.0352 200.376 92.0272 200.096 92.0112 199.816C92.0032 199.528 91.9792 199.244 91.9392 198.964H92.8632L92.9712 200.212L92.8512 200.308C93.0192 199.82 93.2992 199.452 93.6912 199.204C94.0832 198.948 94.5352 198.82 95.0472 198.82C96.4952 198.82 97.2192 199.616 97.2192 201.208V205H96.2472V201.256C96.2472 200.696 96.1352 200.288 95.9112 200.032C95.6872 199.768 95.3352 199.636 94.8552 199.636C94.2952 199.636 93.8472 199.808 93.5112 200.152C93.1752 200.496 93.0072 200.96 93.0072 201.544V205H92.0352ZM98.3028 199.732V198.964H102.179V199.732H98.3028ZM102.155 204.136V204.964C102.019 205.004 101.883 205.032 101.747 205.048C101.619 205.072 101.475 205.084 101.315 205.084C100.755 205.084 100.307 204.924 99.9708 204.604C99.6428 204.284 99.4788 203.804 99.4788 203.164V197.416L100.451 197.068V203.032C100.451 203.352 100.495 203.6 100.583 203.776C100.679 203.952 100.807 204.076 100.967 204.148C101.127 204.212 101.307 204.244 101.507 204.244C101.627 204.244 101.735 204.236 101.831 204.22C101.927 204.204 102.035 204.176 102.155 204.136Z" fill="#0E2446"/>
<circle cx="6" cy="201" r="6" fill="#E1E9F1"/>
</svg>
