<svg width="637" height="376" viewBox="0 0 637 376" fill="none" xmlns="http://www.w3.org/2000/svg">
<line x1="23" y1="237.5" x2="636" y2="237.5" stroke="#A6BCF3" stroke-dasharray="2 3"/>
<line x1="23" y1="137.5" x2="636" y2="137.5" stroke="#A6BCF3" stroke-dasharray="2 3"/>
<line x1="36" y1="37" x2="36" y2="351" stroke="#EDF5FE" stroke-width="2"/>
<path opacity="0.7" fill-rule="evenodd" clip-rule="evenodd" d="M36.0343 338L36 163.424L51.6289 163.835L60.1103 158.701L68.9772 158.419L75.4387 150.87L81.1219 131.244L84.7651 124.222L94.4951 138.869L102.408 141.098L108.198 136.846L115.185 118.102L135.216 156.106L143.463 139.738L152.918 147.954L158.015 135.427L159.009 129.417L166.684 123.279L170.648 114.939L175.029 126.59L174.304 134.24L178.346 135.371L181.482 131.966L189.472 78.0526L197.284 148.75L204.069 138.672V132.917L209.868 126.97L212.583 122.411L217.58 115.555L229.459 122.704L235.373 126.59L240.147 124.074L248.473 135.379L260.585 113.16L264.128 125.277L271.722 133.659L279.084 130.975L282.522 125.275L288.026 122.701L288.72 117.807L295.001 105.776L304.222 109.193L309.184 100.451L319.678 168.65L328.692 154.622L340.571 153.641L354.806 163.597L360.336 124.759L367.273 126.945L370.538 122.381L372.377 123.839L375.828 123.394L377.8 125.358L383.279 126.639L383.376 130.985L389.925 133.739L398.107 133.13L398.537 125.856L400.595 97.2749L406.74 97.7676L413.93 104.325L431.92 90.9151L439.677 77.1675L443.126 81.5206L444.43 85.8379L450.751 90.7848L461.492 81.6292L481.111 53L486.807 63.6696L502.905 81.0947L508.968 73.4155L515.561 69.8507L526.803 75.1909L533.896 70.0394L546.186 76.9946L551.936 63.2637L563.108 63.6362L565.112 66.8144L582.832 59.1812L596.978 73.475L608.388 67.7089L624.849 67.0489L636 58.8255L635.706 338H81.2935H36.0343Z" fill="url(#paint0_linear)"/>
<path opacity="0.7" fill-rule="evenodd" clip-rule="evenodd" d="M635.966 337L636 284.366L620.345 284.778L611.85 279.646L602.968 279.364L596.496 271.819L590.803 252.204L587.154 245.185L577.407 259.825L569.481 262.052L563.681 257.802L556.683 239.068L536.619 277.053L528.358 260.693L518.887 268.905L513.782 256.384L512.786 250.378L505.098 244.243L501.127 235.907L496.739 247.552L497.465 255.198L493.417 256.328L490.276 252.925L482.272 199.04L474.447 269.7L467.651 259.628V253.876L461.842 247.931L459.123 243.375L454.117 236.523L442.218 243.668L436.295 247.552L431.513 245.038L423.173 256.337L411.041 234.129L407.492 246.24L399.885 254.618L392.511 251.934L389.067 246.238L383.554 243.665L382.859 238.774L376.568 226.748L367.331 230.164L362.361 221.426L351.85 289.59L342.82 275.569L330.921 274.588L316.663 284.54L311.124 245.722L304.175 247.907L300.904 243.345L299.062 244.802L295.605 244.357L293.63 246.32L288.143 247.601L288.045 251.944L281.486 254.698L273.289 254.088L272.859 246.818L270.797 218.252L264.642 218.744L257.44 225.299L239.42 211.895L231.651 198.155L228.196 202.506L226.889 206.821L220.557 211.765L209.798 202.614L190.147 174L184.441 184.664L168.317 202.08L162.244 194.405L155.64 190.842L144.379 196.179L137.274 191.031L124.963 197.982L119.204 184.258L108.013 184.631L106.007 187.807L88.2568 180.178L74.0869 194.464L62.6582 188.701L46.1699 188.042L35 179.822L35.2941 337H590.631H635.966Z" fill="url(#paint1_linear)"/>
<path d="M35 164.76L50.6866 164.17L59.1992 159.021L68.0988 158.738L74.5842 151.166L80.2883 131.481L84.0206 124.438L93.7109 139.129L101.653 141.365L107.465 137.1L114.369 118.003L134.582 156.419L142.86 140L152.35 148.241L157.465 135.677L158.463 129.648L166.167 123.492L170.145 115.126L174.542 126.812L173.815 134.486L177.871 135.62L181.018 132.205L189.039 78.1285L196.879 149.039L203.689 138.931V133.159L209.509 127.194L212.235 122.621L217.25 115.745L229.173 122.915L235.108 126.812L239.9 124.29L248.257 135.629L260.413 113.342L263.97 125.496L271.592 133.903L278.981 131.211L282.432 125.494L287.956 122.912L288.652 118.003L294.956 105.936L304.211 109.363L309.191 100.594L319.724 169L328.772 154.929L340.695 153.945L354.982 163.932L360.532 124.976L367.495 127.169L370.772 122.591L372.618 124.053L376.082 123.607L378.061 125.577L383.56 126.862L383.658 131.221L390.23 133.984L398.443 133.372L398.874 126.076L400.94 97.4089L407.107 97.9031L414.324 104.481L432.381 91.0298L440.166 77.2406L443.628 81.607L444.937 85.9373L451.281 90.8992L462.062 81.7158L481.753 53L487.47 63.7019L503.627 81.1798L509.713 73.4773L516.33 69.9017L527.614 75.2581L534.732 70.091L547.068 77.0672L552.839 63.2948L564.053 63.6684L566.063 66.8562L583.663 58.895L598.74 73.4773L609.589 66.8562H625.32L636 58.895" stroke="#007EFF" stroke-width="1.5"/>
<path fill-rule="evenodd" clip-rule="evenodd" d="M309.246 105.493C311.591 105.493 313.493 103.591 313.493 101.246C313.493 98.9011 311.591 97 309.246 97C306.901 97 305 98.9011 305 101.246C305 103.591 306.901 105.493 309.246 105.493Z" fill="#007EFF"/>
<path d="M636 284.76L620.313 284.17L611.801 279.021L602.901 278.738L596.416 271.166L590.712 251.481L586.979 244.438L577.289 259.129L569.347 261.365L563.535 257.1L556.631 238.003L536.418 276.419L528.14 260L518.65 268.241L513.535 255.677L512.537 249.648L504.833 243.492L500.855 235.126L496.458 246.812L497.185 254.486L493.129 255.62L489.982 252.205L481.961 198.128L474.121 269.039L467.311 258.931V253.159L461.491 247.194L458.765 242.621L453.75 235.745L441.827 242.915L435.892 246.812L431.1 244.29L422.743 255.629L410.587 233.342L407.03 245.496L399.408 253.903L392.019 251.211L388.568 245.494L383.044 242.912L382.348 238.003L376.044 225.936L366.789 229.363L361.809 220.594L351.276 289L342.228 274.929L330.305 273.945L316.018 283.932L310.468 244.976L303.505 247.169L300.228 242.591L298.382 244.053L294.918 243.607L292.939 245.577L287.44 246.862L287.342 251.221L280.77 253.984L272.557 253.372L272.126 246.076L270.06 217.409L263.893 217.903L256.676 224.481L238.619 211.03L230.834 197.241L227.372 201.607L226.063 205.937L219.719 210.899L208.938 201.716L189.247 173L183.53 183.702L167.373 201.18L161.287 193.477L154.67 189.902L143.386 195.258L136.268 190.091L123.932 197.067L118.161 183.295L106.947 183.668L104.937 186.856L87.3372 178.895L72.26 193.477L61.4112 186.856H45.6798L35 178.895" stroke="#1DC71A" stroke-width="1.5"/>
<line x1="23" y1="337" x2="636" y2="337" stroke="#EDF5FE" stroke-width="2"/>
<path fill-rule="evenodd" clip-rule="evenodd" d="M310.246 247.493C312.591 247.493 314.493 245.591 314.493 243.246C314.493 240.901 312.591 239 310.246 239C307.901 239 306 240.901 306 243.246C306 245.591 307.901 247.493 310.246 247.493Z" fill="#1DC71A"/>
<line x1="23" y1="37" x2="636" y2="37.0001" stroke="#EDF5FE" stroke-width="2"/>
<path d="M3.42 241.556V234.032L3.984 234.32L1.668 235.796V234.848L3.852 233.456H4.416V241.556H3.42ZM1.536 242V241.172H6.3V242H1.536ZM10.8953 242.096C9.91931 242.096 9.17531 241.728 8.66331 240.992C8.15931 240.248 7.90731 239.16 7.90731 237.728C7.90731 236.296 8.15931 235.212 8.66331 234.476C9.16731 233.732 9.91131 233.36 10.8953 233.36C11.8793 233.36 12.6233 233.732 13.1273 234.476C13.6313 235.212 13.8833 236.292 13.8833 237.716C13.8833 239.148 13.6273 240.236 13.1153 240.98C12.6113 241.724 11.8713 242.096 10.8953 242.096ZM10.8953 241.268C11.5753 241.268 12.0753 240.98 12.3953 240.404C12.7233 239.828 12.8873 238.932 12.8873 237.716C12.8873 236.5 12.7233 235.612 12.3953 235.052C12.0753 234.484 11.5753 234.2 10.8953 234.2C10.2153 234.2 9.71131 234.484 9.38331 235.052C9.06331 235.62 8.90331 236.508 8.90331 237.716C8.90331 238.932 9.06331 239.828 9.38331 240.404C9.71131 240.98 10.2153 241.268 10.8953 241.268Z" fill="#0E2446"/>
<path d="M10.6 341.096C9.624 341.096 8.88 340.728 8.368 339.992C7.864 339.248 7.612 338.16 7.612 336.728C7.612 335.296 7.864 334.212 8.368 333.476C8.872 332.732 9.616 332.36 10.6 332.36C11.584 332.36 12.328 332.732 12.832 333.476C13.336 334.212 13.588 335.292 13.588 336.716C13.588 338.148 13.332 339.236 12.82 339.98C12.316 340.724 11.576 341.096 10.6 341.096ZM10.6 340.268C11.28 340.268 11.78 339.98 12.1 339.404C12.428 338.828 12.592 337.932 12.592 336.716C12.592 335.5 12.428 334.612 12.1 334.052C11.78 333.484 11.28 333.2 10.6 333.2C9.92 333.2 9.416 333.484 9.088 334.052C8.768 334.62 8.608 335.508 8.608 336.716C8.608 337.932 8.768 338.828 9.088 339.404C9.416 339.98 9.92 340.268 10.6 340.268Z" fill="#0E2446"/>
<path d="M110.236 370H109.216L112.972 361.456H113.836L117.592 370H116.584L113.236 362.176H113.596L110.236 370ZM110.812 367.804L111.16 366.988H115.648L115.996 367.804H110.812ZM118.849 372.592V365.656C118.849 365.376 118.841 365.096 118.825 364.816C118.817 364.528 118.793 364.244 118.753 363.964H119.677L119.785 365.212L119.689 365.392C119.825 364.888 120.085 364.5 120.469 364.228C120.853 363.956 121.317 363.82 121.861 363.82C122.389 363.82 122.853 363.952 123.253 364.216C123.661 364.48 123.977 364.848 124.201 365.32C124.433 365.792 124.549 366.344 124.549 366.976C124.549 367.608 124.433 368.16 124.201 368.632C123.977 369.096 123.665 369.456 123.265 369.712C122.865 369.96 122.397 370.084 121.861 370.084C121.317 370.084 120.853 369.948 120.469 369.676C120.085 369.404 119.825 369.016 119.689 368.512L119.821 368.392V372.592H118.849ZM121.681 369.28C122.265 369.28 122.721 369.08 123.049 368.68C123.377 368.28 123.541 367.712 123.541 366.976C123.541 366.24 123.377 365.668 123.049 365.26C122.721 364.844 122.265 364.636 121.681 364.636C121.081 364.636 120.621 364.836 120.301 365.236C119.981 365.636 119.821 366.208 119.821 366.952C119.821 367.696 119.981 368.272 120.301 368.68C120.621 369.08 121.081 369.28 121.681 369.28ZM126.144 370V365.656C126.144 365.376 126.136 365.096 126.12 364.816C126.112 364.528 126.088 364.244 126.048 363.964H126.972L127.104 365.452L126.972 365.416C127.084 364.888 127.324 364.492 127.692 364.228C128.068 363.956 128.488 363.82 128.952 363.82C129.056 363.82 129.152 363.828 129.24 363.844C129.336 363.852 129.424 363.868 129.504 363.892L129.48 364.78C129.296 364.716 129.084 364.684 128.844 364.684C128.428 364.684 128.092 364.776 127.836 364.96C127.588 365.144 127.404 365.38 127.284 365.668C127.172 365.948 127.116 366.244 127.116 366.556V370H126.144ZM133.88 370V369.256L136.868 365.944C137.268 365.496 137.56 365.092 137.744 364.732C137.928 364.372 138.02 364.012 138.02 363.652C138.02 363.18 137.884 362.82 137.612 362.572C137.34 362.316 136.952 362.188 136.448 362.188C136.032 362.188 135.624 362.272 135.224 362.44C134.824 362.6 134.424 362.844 134.024 363.172L133.652 362.416C133.988 362.096 134.412 361.84 134.924 361.648C135.436 361.456 135.952 361.36 136.472 361.36C136.992 361.36 137.44 361.452 137.816 361.636C138.2 361.812 138.496 362.068 138.704 362.404C138.912 362.74 139.016 363.14 139.016 363.604C139.016 364.092 138.904 364.564 138.68 365.02C138.464 365.468 138.1 365.972 137.588 366.532L134.708 369.652L134.636 369.172H139.376V370H133.88ZM143.912 370.084C143.392 370.084 142.88 369.992 142.376 369.808C141.872 369.616 141.448 369.356 141.104 369.028L141.476 368.272C141.868 368.592 142.264 368.836 142.664 369.004C143.072 369.172 143.488 369.256 143.912 369.256C144.512 369.256 144.98 369.088 145.316 368.752C145.66 368.408 145.832 367.944 145.832 367.36C145.832 366.984 145.756 366.656 145.604 366.376C145.452 366.088 145.236 365.864 144.956 365.704C144.684 365.544 144.36 365.464 143.984 365.464C143.576 365.464 143.208 365.548 142.88 365.716C142.56 365.876 142.276 366.124 142.028 366.46H141.344V361.456H146.468V362.272H142.328V365.728L142.016 365.692C142.248 365.356 142.544 365.096 142.904 364.912C143.272 364.728 143.684 364.636 144.14 364.636C144.684 364.636 145.156 364.752 145.556 364.984C145.956 365.208 146.264 365.524 146.48 365.932C146.696 366.34 146.804 366.812 146.804 367.348C146.804 367.884 146.684 368.36 146.444 368.776C146.212 369.184 145.88 369.504 145.448 369.736C145.016 369.968 144.504 370.084 143.912 370.084Z" fill="#0E2446"/>
<path d="M324.056 370V361.456H324.872L328.34 369.34H327.884L331.316 361.456H332.132V370H331.22V362.752L331.592 362.8L328.448 370H327.752L324.56 362.8L324.956 362.752L324.968 370H324.056ZM336.536 370.084C336 370.084 335.528 369.96 335.12 369.712C334.72 369.456 334.408 369.096 334.184 368.632C333.968 368.16 333.86 367.608 333.86 366.976C333.86 366.344 333.972 365.792 334.196 365.32C334.42 364.848 334.732 364.48 335.132 364.216C335.54 363.952 336.008 363.82 336.536 363.82C337.088 363.82 337.556 363.956 337.94 364.228C338.324 364.5 338.584 364.888 338.72 365.392L338.576 365.488V363.964H339.536V370H338.576V368.44L338.72 368.512C338.584 369.016 338.324 369.404 337.94 369.676C337.556 369.948 337.088 370.084 336.536 370.084ZM336.728 369.28C337.32 369.28 337.776 369.08 338.096 368.68C338.416 368.272 338.576 367.696 338.576 366.952C338.576 366.208 338.412 365.636 338.084 365.236C337.764 364.836 337.312 364.636 336.728 364.636C336.136 364.636 335.672 364.844 335.336 365.26C335.008 365.668 334.844 366.24 334.844 366.976C334.844 367.712 335.008 368.28 335.336 368.68C335.672 369.08 336.136 369.28 336.728 369.28ZM341.227 372.724L341.023 371.968C341.391 371.88 341.699 371.776 341.947 371.656C342.203 371.544 342.415 371.396 342.583 371.212C342.759 371.028 342.911 370.784 343.039 370.48L343.423 369.592L343.639 369.292L345.847 363.964H346.819L343.999 370.552C343.783 371.04 343.539 371.428 343.267 371.716C342.995 372.012 342.687 372.236 342.343 372.388C342.007 372.54 341.635 372.652 341.227 372.724ZM343.435 370.312L340.723 363.964H341.743L343.927 369.292L343.435 370.312ZM354.015 370.084C353.495 370.084 352.983 369.992 352.479 369.808C351.975 369.616 351.551 369.356 351.207 369.028L351.579 368.272C351.971 368.592 352.367 368.836 352.767 369.004C353.175 369.172 353.591 369.256 354.015 369.256C354.615 369.256 355.083 369.088 355.419 368.752C355.763 368.408 355.935 367.944 355.935 367.36C355.935 366.984 355.859 366.656 355.707 366.376C355.555 366.088 355.339 365.864 355.059 365.704C354.787 365.544 354.463 365.464 354.087 365.464C353.679 365.464 353.311 365.548 352.983 365.716C352.663 365.876 352.379 366.124 352.131 366.46H351.447V361.456H356.571V362.272H352.431V365.728L352.119 365.692C352.351 365.356 352.647 365.096 353.007 364.912C353.375 364.728 353.787 364.636 354.243 364.636C354.787 364.636 355.259 364.752 355.659 364.984C356.059 365.208 356.367 365.524 356.583 365.932C356.799 366.34 356.907 366.812 356.907 367.348C356.907 367.884 356.787 368.36 356.547 368.776C356.315 369.184 355.983 369.504 355.551 369.736C355.119 369.968 354.607 370.084 354.015 370.084Z" fill="#0E2446"/>
<path d="M534.056 370V361.456H534.872L538.34 369.34H537.884L541.316 361.456H542.132V370H541.22V362.752L541.592 362.8L538.448 370H537.752L534.56 362.8L534.956 362.752L534.968 370H534.056ZM546.536 370.084C546 370.084 545.528 369.96 545.12 369.712C544.72 369.456 544.408 369.096 544.184 368.632C543.968 368.16 543.86 367.608 543.86 366.976C543.86 366.344 543.972 365.792 544.196 365.32C544.42 364.848 544.732 364.48 545.132 364.216C545.54 363.952 546.008 363.82 546.536 363.82C547.088 363.82 547.556 363.956 547.94 364.228C548.324 364.5 548.584 364.888 548.72 365.392L548.576 365.488V363.964H549.536V370H548.576V368.44L548.72 368.512C548.584 369.016 548.324 369.404 547.94 369.676C547.556 369.948 547.088 370.084 546.536 370.084ZM546.728 369.28C547.32 369.28 547.776 369.08 548.096 368.68C548.416 368.272 548.576 367.696 548.576 366.952C548.576 366.208 548.412 365.636 548.084 365.236C547.764 364.836 547.312 364.636 546.728 364.636C546.136 364.636 545.672 364.844 545.336 365.26C545.008 365.668 544.844 366.24 544.844 366.976C544.844 367.712 545.008 368.28 545.336 368.68C545.672 369.08 546.136 369.28 546.728 369.28ZM551.227 372.724L551.023 371.968C551.391 371.88 551.699 371.776 551.947 371.656C552.203 371.544 552.415 371.396 552.583 371.212C552.759 371.028 552.911 370.784 553.039 370.48L553.423 369.592L553.639 369.292L555.847 363.964H556.819L553.999 370.552C553.783 371.04 553.539 371.428 553.267 371.716C552.995 372.012 552.687 372.236 552.343 372.388C552.007 372.54 551.635 372.652 551.227 372.724ZM553.435 370.312L550.723 363.964H551.743L553.927 369.292L553.435 370.312ZM563.703 369.556V362.032L564.267 362.32L561.951 363.796V362.848L564.135 361.456H564.699V369.556H563.703ZM561.819 370V369.172H566.583V370H561.819ZM570.998 369.556V362.032L571.562 362.32L569.246 363.796V362.848L571.43 361.456H571.994V369.556H570.998ZM569.114 370V369.172H573.878V370H569.114Z" fill="#0E2446"/>
<path d="M0.996 142V141.256L3.984 137.944C4.384 137.496 4.676 137.092 4.86 136.732C5.044 136.372 5.136 136.012 5.136 135.652C5.136 135.18 5 134.82 4.728 134.572C4.456 134.316 4.068 134.188 3.564 134.188C3.148 134.188 2.74 134.272 2.34 134.44C1.94 134.6 1.54 134.844 1.14 135.172L0.768 134.416C1.104 134.096 1.528 133.84 2.04 133.648C2.552 133.456 3.068 133.36 3.588 133.36C4.108 133.36 4.556 133.452 4.932 133.636C5.316 133.812 5.612 134.068 5.82 134.404C6.028 134.74 6.132 135.14 6.132 135.604C6.132 136.092 6.02 136.564 5.796 137.02C5.58 137.468 5.216 137.972 4.704 138.532L1.824 141.652L1.752 141.172H6.492V142H0.996ZM10.8953 142.096C9.91931 142.096 9.17531 141.728 8.66331 140.992C8.15931 140.248 7.90731 139.16 7.90731 137.728C7.90731 136.296 8.15931 135.212 8.66331 134.476C9.16731 133.732 9.91131 133.36 10.8953 133.36C11.8793 133.36 12.6233 133.732 13.1273 134.476C13.6313 135.212 13.8833 136.292 13.8833 137.716C13.8833 139.148 13.6273 140.236 13.1153 140.98C12.6113 141.724 11.8713 142.096 10.8953 142.096ZM10.8953 141.268C11.5753 141.268 12.0753 140.98 12.3953 140.404C12.7233 139.828 12.8873 138.932 12.8873 137.716C12.8873 136.5 12.7233 135.612 12.3953 135.052C12.0753 134.484 11.5753 134.2 10.8953 134.2C10.2153 134.2 9.71131 134.484 9.38331 135.052C9.06331 135.62 8.90331 136.508 8.90331 137.716C8.90331 138.932 9.06331 139.828 9.38331 140.404C9.71131 140.98 10.2153 141.268 10.8953 141.268Z" fill="#0E2446"/>
<path d="M3.516 42.084C2.964 42.084 2.432 41.992 1.92 41.808C1.416 41.624 0.988 41.364 0.636 41.028L1.02 40.272C1.404 40.6 1.8 40.848 2.208 41.016C2.616 41.176 3.044 41.256 3.492 41.256C4.1 41.256 4.56 41.12 4.872 40.848C5.192 40.576 5.352 40.176 5.352 39.648C5.352 39.12 5.188 38.728 4.86 38.472C4.532 38.208 4.04 38.076 3.384 38.076H2.4V37.248H3.192C3.824 37.248 4.308 37.108 4.644 36.828C4.98 36.548 5.148 36.148 5.148 35.628C5.148 35.164 5.008 34.808 4.728 34.56C4.456 34.312 4.068 34.188 3.564 34.188C3.14 34.188 2.728 34.272 2.328 34.44C1.928 34.6 1.532 34.844 1.14 35.172L0.768 34.416C1.112 34.088 1.536 33.832 2.04 33.648C2.544 33.456 3.064 33.36 3.6 33.36C4.112 33.36 4.56 33.452 4.944 33.636C5.328 33.812 5.62 34.064 5.82 34.392C6.028 34.72 6.132 35.108 6.132 35.556C6.132 36.084 5.992 36.536 5.712 36.912C5.44 37.28 5.064 37.532 4.584 37.668L4.548 37.548C5.124 37.668 5.564 37.912 5.868 38.28C6.172 38.648 6.324 39.116 6.324 39.684C6.324 40.428 6.072 41.016 5.568 41.448C5.064 41.872 4.38 42.084 3.516 42.084ZM10.8953 42.096C9.91931 42.096 9.17531 41.728 8.66331 40.992C8.15931 40.248 7.90731 39.16 7.90731 37.728C7.90731 36.296 8.15931 35.212 8.66331 34.476C9.16731 33.732 9.91131 33.36 10.8953 33.36C11.8793 33.36 12.6233 33.732 13.1273 34.476C13.6313 35.212 13.8833 36.292 13.8833 37.716C13.8833 39.148 13.6273 40.236 13.1153 40.98C12.6113 41.724 11.8713 42.096 10.8953 42.096ZM10.8953 41.268C11.5753 41.268 12.0753 40.98 12.3953 40.404C12.7233 39.828 12.8873 38.932 12.8873 37.716C12.8873 36.5 12.7233 35.612 12.3953 35.052C12.0753 34.484 11.5753 34.2 10.8953 34.2C10.2153 34.2 9.71131 34.484 9.38331 35.052C9.06331 35.62 8.90331 36.508 8.90331 37.716C8.90331 38.932 9.06331 39.828 9.38331 40.404C9.71131 40.98 10.2153 41.268 10.8953 41.268Z" fill="#0E2446"/>
<path d="M262.996 3.456H266.548C267.444 3.456 268.14 3.676 268.636 4.116C269.14 4.548 269.392 5.14 269.392 5.892C269.392 6.644 269.136 7.24 268.624 7.68C268.12 8.112 267.428 8.328 266.548 8.328H264.232V12H262.996V3.456ZM266.404 7.344C266.996 7.344 267.44 7.22 267.736 6.972C268.04 6.724 268.192 6.364 268.192 5.892C268.192 5.428 268.04 5.072 267.736 4.824C267.44 4.576 266.996 4.452 266.404 4.452H264.232V7.344H266.404ZM273.391 12.084C272.799 12.084 272.279 11.956 271.831 11.7C271.383 11.444 271.035 11.08 270.787 10.608C270.547 10.136 270.427 9.584 270.427 8.952C270.427 8.32 270.547 7.768 270.787 7.296C271.035 6.816 271.383 6.448 271.831 6.192C272.279 5.936 272.799 5.808 273.391 5.808C273.975 5.808 274.491 5.936 274.939 6.192C275.387 6.448 275.731 6.816 275.971 7.296C276.219 7.768 276.343 8.32 276.343 8.952C276.343 9.584 276.219 10.136 275.971 10.608C275.731 11.08 275.387 11.444 274.939 11.7C274.491 11.956 273.975 12.084 273.391 12.084ZM273.379 11.124C273.939 11.124 274.367 10.94 274.663 10.572C274.959 10.204 275.107 9.664 275.107 8.952C275.107 8.256 274.955 7.72 274.651 7.344C274.355 6.968 273.935 6.78 273.391 6.78C272.839 6.78 272.411 6.968 272.107 7.344C271.803 7.72 271.651 8.256 271.651 8.952C271.651 9.664 271.799 10.204 272.095 10.572C272.399 10.94 272.827 11.124 273.379 11.124ZM280.072 12.084C279.016 12.084 278.184 11.828 277.576 11.316L277.936 10.44C278.568 10.92 279.292 11.16 280.108 11.16C280.524 11.16 280.84 11.092 281.056 10.956C281.272 10.812 281.38 10.612 281.38 10.356C281.38 10.14 281.304 9.972 281.152 9.852C281.008 9.724 280.76 9.616 280.408 9.528L279.4 9.288C278.872 9.176 278.468 8.98 278.188 8.7C277.916 8.412 277.78 8.056 277.78 7.632C277.78 7.088 277.996 6.648 278.428 6.312C278.868 5.976 279.448 5.808 280.168 5.808C280.6 5.808 281.008 5.876 281.392 6.012C281.784 6.148 282.116 6.34 282.388 6.588L282.016 7.44C281.432 6.976 280.816 6.744 280.168 6.744C279.776 6.744 279.472 6.82 279.256 6.972C279.04 7.116 278.932 7.32 278.932 7.584C278.932 7.792 279 7.96 279.136 8.088C279.272 8.216 279.488 8.316 279.784 8.388L280.816 8.64C281.392 8.768 281.816 8.972 282.088 9.252C282.368 9.524 282.508 9.88 282.508 10.32C282.508 10.864 282.288 11.296 281.848 11.616C281.416 11.928 280.824 12.084 280.072 12.084ZM284.136 5.952H285.336V12H284.136V5.952ZM285.432 3.312V4.584H284.028V3.312H285.432ZM288.885 6.888V9.924C288.885 10.34 288.973 10.636 289.149 10.812C289.333 10.98 289.585 11.064 289.905 11.064C290.113 11.064 290.325 11.032 290.541 10.968V11.952C290.277 12.04 289.977 12.084 289.641 12.084C289.017 12.084 288.533 11.908 288.189 11.556C287.845 11.204 287.673 10.692 287.673 10.02V6.888H286.497V5.952H287.673V4.44L288.885 4.02V5.952H290.553V6.888H288.885ZM291.872 5.952H293.072V12H291.872V5.952ZM293.168 3.312V4.584H291.764V3.312H293.168ZM297.653 12.084C297.061 12.084 296.541 11.956 296.093 11.7C295.645 11.444 295.297 11.08 295.049 10.608C294.809 10.136 294.689 9.584 294.689 8.952C294.689 8.32 294.809 7.768 295.049 7.296C295.297 6.816 295.645 6.448 296.093 6.192C296.541 5.936 297.061 5.808 297.653 5.808C298.237 5.808 298.753 5.936 299.201 6.192C299.649 6.448 299.993 6.816 300.233 7.296C300.481 7.768 300.605 8.32 300.605 8.952C300.605 9.584 300.481 10.136 300.233 10.608C299.993 11.08 299.649 11.444 299.201 11.7C298.753 11.956 298.237 12.084 297.653 12.084ZM297.641 11.124C298.201 11.124 298.629 10.94 298.925 10.572C299.221 10.204 299.369 9.664 299.369 8.952C299.369 8.256 299.217 7.72 298.913 7.344C298.617 6.968 298.197 6.78 297.653 6.78C297.101 6.78 296.673 6.968 296.369 7.344C296.065 7.72 295.913 8.256 295.913 8.952C295.913 9.664 296.061 10.204 296.357 10.572C296.661 10.94 297.089 11.124 297.641 11.124ZM305.438 5.808C306.886 5.808 307.61 6.616 307.61 8.232V12H306.398V8.304C306.398 7.776 306.294 7.392 306.086 7.152C305.886 6.912 305.562 6.792 305.114 6.792C304.602 6.792 304.19 6.952 303.878 7.272C303.574 7.592 303.422 8.02 303.422 8.556V12H302.222V7.656C302.222 7.024 302.19 6.456 302.126 5.952H303.254L303.362 6.996C303.554 6.612 303.83 6.32 304.19 6.12C304.558 5.912 304.974 5.808 305.438 5.808Z" fill="#0E2446"/>
<path d="M370.752 12.096C369.928 12.096 369.208 11.92 368.592 11.568C367.984 11.208 367.516 10.7 367.188 10.044C366.86 9.388 366.696 8.612 366.696 7.716C366.696 6.828 366.86 6.056 367.188 5.4C367.516 4.744 367.984 4.24 368.592 3.888C369.208 3.536 369.928 3.36 370.752 3.36C371.336 3.36 371.876 3.452 372.372 3.636C372.876 3.812 373.3 4.072 373.644 4.416L373.212 5.328C372.812 5 372.416 4.764 372.024 4.62C371.64 4.468 371.22 4.392 370.764 4.392C369.876 4.392 369.188 4.68 368.7 5.256C368.22 5.832 367.98 6.652 367.98 7.716C367.98 8.788 368.22 9.616 368.7 10.2C369.188 10.776 369.876 11.064 370.764 11.064C371.22 11.064 371.64 10.992 372.024 10.848C372.416 10.696 372.812 10.456 373.212 10.128L373.644 11.04C373.3 11.384 372.876 11.648 372.372 11.832C371.876 12.008 371.336 12.096 370.752 12.096ZM375.291 3.168H376.491V12H375.291V3.168ZM378.468 5.952H379.668V12H378.468V5.952ZM379.764 3.312V4.584H378.36V3.312H379.764ZM384.272 12.084C383.664 12.084 383.132 11.956 382.676 11.7C382.228 11.444 381.884 11.084 381.644 10.62C381.404 10.148 381.284 9.6 381.284 8.976C381.284 8.352 381.408 7.8 381.656 7.32C381.912 6.84 382.268 6.468 382.724 6.204C383.18 5.94 383.712 5.808 384.32 5.808C384.744 5.808 385.152 5.88 385.544 6.024C385.936 6.16 386.252 6.348 386.492 6.588L386.12 7.464C385.552 7.016 384.98 6.792 384.404 6.792C383.82 6.792 383.364 6.984 383.036 7.368C382.708 7.744 382.544 8.276 382.544 8.964C382.544 9.652 382.708 10.184 383.036 10.56C383.364 10.928 383.82 11.112 384.404 11.112C384.996 11.112 385.568 10.888 386.12 10.44L386.492 11.316C386.236 11.556 385.908 11.744 385.508 11.88C385.116 12.016 384.704 12.084 384.272 12.084ZM391.925 12L389.033 9.144V12H387.833V3.168H389.033V8.688L391.721 5.964H393.221L390.329 8.868L393.473 12H391.925ZM396.426 12.084C395.37 12.084 394.538 11.828 393.93 11.316L394.29 10.44C394.922 10.92 395.646 11.16 396.462 11.16C396.878 11.16 397.194 11.092 397.41 10.956C397.626 10.812 397.734 10.612 397.734 10.356C397.734 10.14 397.658 9.972 397.506 9.852C397.362 9.724 397.114 9.616 396.762 9.528L395.754 9.288C395.226 9.176 394.822 8.98 394.542 8.7C394.27 8.412 394.134 8.056 394.134 7.632C394.134 7.088 394.35 6.648 394.782 6.312C395.222 5.976 395.802 5.808 396.522 5.808C396.954 5.808 397.362 5.876 397.746 6.012C398.138 6.148 398.47 6.34 398.742 6.588L398.37 7.44C397.786 6.976 397.17 6.744 396.522 6.744C396.13 6.744 395.826 6.82 395.61 6.972C395.394 7.116 395.286 7.32 395.286 7.584C395.286 7.792 395.354 7.96 395.49 8.088C395.626 8.216 395.842 8.316 396.138 8.388L397.17 8.64C397.746 8.768 398.17 8.972 398.442 9.252C398.722 9.524 398.862 9.88 398.862 10.32C398.862 10.864 398.642 11.296 398.202 11.616C397.77 11.928 397.178 12.084 396.426 12.084Z" fill="#0E2446"/>
<circle cx="242.5" cy="7.5" r="7.5" fill="#007EFF"/>
<circle cx="346.5" cy="7.5" r="7.5" fill="#1DC71A"/>
<defs>
<linearGradient id="paint0_linear" x1="336" y1="53" x2="336" y2="338" gradientUnits="userSpaceOnUse">
<stop stop-color="#BCDBFA"/>
<stop offset="1" stop-color="#EEF5FA"/>
</linearGradient>
<linearGradient id="paint1_linear" x1="335.5" y1="174" x2="335.5" y2="458.852" gradientUnits="userSpaceOnUse">
<stop stop-color="#BDE6BC"/>
<stop offset="0.572917" stop-color="#D7F2D6"/>
</linearGradient>
</defs>
</svg>
