<svg width="624" height="328" viewBox="0 0 624 328" fill="none" xmlns="http://www.w3.org/2000/svg">
<path d="M207.952 282.517C208.264 282.573 208.552 282.601 208.816 282.601C209.224 282.601 209.504 282.497 209.656 282.289C209.808 282.081 209.884 281.713 209.884 281.185V272.881H211.132V281.197C211.132 282.053 210.972 282.677 210.652 283.069C210.332 283.461 209.796 283.657 209.044 283.657C208.676 283.657 208.312 283.625 207.952 283.561V282.517ZM218.369 275.377V281.425H217.193V280.417C217.001 280.769 216.737 281.041 216.401 281.233C216.065 281.417 215.685 281.509 215.261 281.509C213.805 281.509 213.077 280.701 213.077 279.085V275.377H214.277V279.073C214.277 279.569 214.377 279.937 214.577 280.177C214.785 280.409 215.097 280.525 215.513 280.525C216.009 280.525 216.405 280.365 216.701 280.045C217.005 279.725 217.157 279.301 217.157 278.773V275.377H218.369ZM223.46 275.233C224.908 275.233 225.632 276.041 225.632 277.657V281.425H224.42V277.729C224.42 277.201 224.316 276.817 224.108 276.577C223.908 276.337 223.584 276.217 223.136 276.217C222.624 276.217 222.212 276.377 221.9 276.697C221.596 277.017 221.444 277.445 221.444 277.981V281.425H220.244V277.081C220.244 276.449 220.212 275.881 220.148 275.377H221.276L221.384 276.421C221.576 276.037 221.852 275.745 222.212 275.545C222.58 275.337 222.996 275.233 223.46 275.233ZM236.313 280.405V281.425H231.321V280.405H233.193V274.357L231.453 275.437V274.297L233.721 272.881H234.441V280.405H236.313ZM243.704 280.405V281.425H238.1V280.501L241.04 277.273C241.416 276.857 241.688 276.481 241.856 276.145C242.032 275.801 242.12 275.461 242.12 275.125C242.12 274.693 241.996 274.365 241.748 274.141C241.5 273.909 241.14 273.793 240.668 273.793C239.876 273.793 239.084 274.105 238.292 274.729L237.848 273.817C238.184 273.505 238.612 273.257 239.132 273.073C239.652 272.881 240.176 272.785 240.704 272.785C241.52 272.785 242.164 272.989 242.636 273.397C243.116 273.805 243.356 274.357 243.356 275.053C243.356 275.549 243.248 276.021 243.032 276.469C242.816 276.909 242.456 277.401 241.952 277.945L239.672 280.405H243.704ZM246.919 276.313V279.349C246.919 279.765 247.007 280.061 247.183 280.237C247.367 280.405 247.619 280.489 247.939 280.489C248.147 280.489 248.359 280.457 248.575 280.393V281.377C248.311 281.465 248.011 281.509 247.675 281.509C247.051 281.509 246.567 281.333 246.223 280.981C245.879 280.629 245.707 280.117 245.707 279.445V276.313H244.531V275.377H245.707V273.865L246.919 273.445V275.377H248.587V276.313H246.919ZM253.023 275.233C254.471 275.233 255.195 276.041 255.195 277.657V281.425H253.983V277.729C253.983 277.201 253.879 276.817 253.671 276.577C253.471 276.337 253.147 276.217 252.699 276.217C252.187 276.217 251.775 276.377 251.463 276.697C251.159 277.017 251.007 277.445 251.007 277.981V281.425H249.807V272.593H251.007V276.313C251.207 275.961 251.483 275.693 251.835 275.509C252.187 275.325 252.583 275.233 253.023 275.233Z" fill="#0E2446"/>
<path d="M397.952 282.517C398.264 282.573 398.552 282.601 398.816 282.601C399.224 282.601 399.504 282.497 399.656 282.289C399.808 282.081 399.884 281.713 399.884 281.185V272.881H401.132V281.197C401.132 282.053 400.972 282.677 400.652 283.069C400.332 283.461 399.796 283.657 399.044 283.657C398.676 283.657 398.312 283.625 397.952 283.561V282.517ZM408.369 275.377V281.425H407.193V280.417C407.001 280.769 406.737 281.041 406.401 281.233C406.065 281.417 405.685 281.509 405.261 281.509C403.805 281.509 403.077 280.701 403.077 279.085V275.377H404.277V279.073C404.277 279.569 404.377 279.937 404.577 280.177C404.785 280.409 405.097 280.525 405.513 280.525C406.009 280.525 406.405 280.365 406.701 280.045C407.005 279.725 407.157 279.301 407.157 278.773V275.377H408.369ZM413.46 275.233C414.908 275.233 415.632 276.041 415.632 277.657V281.425H414.42V277.729C414.42 277.201 414.316 276.817 414.108 276.577C413.908 276.337 413.584 276.217 413.136 276.217C412.624 276.217 412.212 276.377 411.9 276.697C411.596 277.017 411.444 277.445 411.444 277.981V281.425H410.244V277.081C410.244 276.449 410.212 275.881 410.148 275.377H411.276L411.384 276.421C411.576 276.037 411.852 275.745 412.212 275.545C412.58 275.337 412.996 275.233 413.46 275.233ZM426.409 280.405V281.425H420.805V280.501L423.745 277.273C424.121 276.857 424.393 276.481 424.561 276.145C424.737 275.801 424.825 275.461 424.825 275.125C424.825 274.693 424.701 274.365 424.453 274.141C424.205 273.909 423.845 273.793 423.373 273.793C422.581 273.793 421.789 274.105 420.997 274.729L420.553 273.817C420.889 273.505 421.317 273.257 421.837 273.073C422.357 272.881 422.881 272.785 423.409 272.785C424.225 272.785 424.869 272.989 425.341 273.397C425.821 273.805 426.061 274.357 426.061 275.053C426.061 275.549 425.953 276.021 425.737 276.469C425.521 276.909 425.161 277.401 424.657 277.945L422.377 280.405H426.409ZM433.704 280.405V281.425H428.1V280.501L431.04 277.273C431.416 276.857 431.688 276.481 431.856 276.145C432.032 275.801 432.12 275.461 432.12 275.125C432.12 274.693 431.996 274.365 431.748 274.141C431.5 273.909 431.14 273.793 430.668 273.793C429.876 273.793 429.084 274.105 428.292 274.729L427.848 273.817C428.184 273.505 428.612 273.257 429.132 273.073C429.652 272.881 430.176 272.785 430.704 272.785C431.52 272.785 432.164 272.989 432.636 273.397C433.116 273.805 433.356 274.357 433.356 275.053C433.356 275.549 433.248 276.021 433.032 276.469C432.816 276.909 432.456 277.401 431.952 277.945L429.672 280.405H433.704ZM438.563 275.233C440.011 275.233 440.735 276.041 440.735 277.657V281.425H439.523V277.729C439.523 277.201 439.419 276.817 439.211 276.577C439.011 276.337 438.687 276.217 438.239 276.217C437.727 276.217 437.315 276.377 437.003 276.697C436.699 277.017 436.547 277.445 436.547 277.981V281.425H435.347V277.081C435.347 276.449 435.315 275.881 435.251 275.377H436.379L436.487 276.421C436.679 276.037 436.955 275.745 437.315 275.545C437.683 275.337 438.099 275.233 438.563 275.233ZM448.093 272.593V281.425H446.893V280.393C446.717 280.753 446.453 281.029 446.101 281.221C445.757 281.413 445.353 281.509 444.889 281.509C444.369 281.509 443.905 281.377 443.497 281.113C443.089 280.849 442.769 280.481 442.537 280.009C442.313 279.529 442.201 278.977 442.201 278.353C442.201 277.729 442.313 277.181 442.537 276.709C442.761 276.237 443.073 275.873 443.473 275.617C443.881 275.361 444.353 275.233 444.889 275.233C445.345 275.233 445.745 275.329 446.089 275.521C446.441 275.713 446.705 275.985 446.881 276.337V272.593H448.093ZM445.165 280.549C445.717 280.549 446.141 280.361 446.437 279.985C446.741 279.601 446.893 279.065 446.893 278.377C446.893 277.689 446.741 277.157 446.437 276.781C446.141 276.397 445.721 276.205 445.177 276.205C444.625 276.205 444.193 276.393 443.881 276.769C443.577 277.145 443.425 277.673 443.425 278.353C443.425 279.041 443.577 279.581 443.881 279.973C444.193 280.357 444.621 280.549 445.165 280.549Z" fill="#0E2446"/>
<path d="M17.6 256.096C16.608 256.096 15.852 255.724 15.332 254.98C14.812 254.236 14.552 253.152 14.552 251.728C14.552 250.304 14.812 249.22 15.332 248.476C15.852 247.732 16.608 247.36 17.6 247.36C18.592 247.36 19.348 247.732 19.868 248.476C20.388 249.212 20.648 250.292 20.648 251.716C20.648 253.148 20.388 254.236 19.868 254.98C19.348 255.724 18.592 256.096 17.6 256.096ZM17.6 255.1C18.216 255.1 18.668 254.828 18.956 254.284C19.252 253.732 19.4 252.876 19.4 251.716C19.4 250.556 19.256 249.708 18.968 249.172C18.68 248.636 18.224 248.368 17.6 248.368C16.984 248.368 16.528 248.64 16.232 249.184C15.944 249.72 15.8 250.564 15.8 251.716C15.8 252.876 15.944 253.732 16.232 254.284C16.528 254.828 16.984 255.1 17.6 255.1Z" fill="#122C53"/>
<path d="M13.54 214.98V216H7.936V215.076L10.876 211.848C11.252 211.432 11.524 211.056 11.692 210.72C11.868 210.376 11.956 210.036 11.956 209.7C11.956 209.268 11.832 208.94 11.584 208.716C11.336 208.484 10.976 208.368 10.504 208.368C9.712 208.368 8.92 208.68 8.128 209.304L7.684 208.392C8.02 208.08 8.448 207.832 8.968 207.648C9.488 207.456 10.012 207.36 10.54 207.36C11.356 207.36 12 207.564 12.472 207.972C12.952 208.38 13.192 208.932 13.192 209.628C13.192 210.124 13.084 210.596 12.868 211.044C12.652 211.484 12.292 211.976 11.788 212.52L9.508 214.98H13.54ZM17.8953 216.096C16.9033 216.096 16.1473 215.724 15.6273 214.98C15.1073 214.236 14.8473 213.152 14.8473 211.728C14.8473 210.304 15.1073 209.22 15.6273 208.476C16.1473 207.732 16.9033 207.36 17.8953 207.36C18.8873 207.36 19.6433 207.732 20.1633 208.476C20.6833 209.212 20.9433 210.292 20.9433 211.716C20.9433 213.148 20.6833 214.236 20.1633 214.98C19.6433 215.724 18.8873 216.096 17.8953 216.096ZM17.8953 215.1C18.5113 215.1 18.9633 214.828 19.2513 214.284C19.5473 213.732 19.6953 212.876 19.6953 211.716C19.6953 210.556 19.5513 209.708 19.2633 209.172C18.9753 208.636 18.5193 208.368 17.8953 208.368C17.2793 208.368 16.8233 208.64 16.5273 209.184C16.2393 209.72 16.0953 210.564 16.0953 211.716C16.0953 212.876 16.2393 213.732 16.5273 214.284C16.8233 214.828 17.2793 215.1 17.8953 215.1Z" fill="#122C53"/>
<path d="M13.852 174.224H12.592V176H11.368V174.224H7.54V173.3L11.596 167.456H12.592V173.228H13.852V174.224ZM11.368 173.228V169.46L8.752 173.228H11.368ZM17.8953 176.096C16.9033 176.096 16.1473 175.724 15.6273 174.98C15.1073 174.236 14.8473 173.152 14.8473 171.728C14.8473 170.304 15.1073 169.22 15.6273 168.476C16.1473 167.732 16.9033 167.36 17.8953 167.36C18.8873 167.36 19.6433 167.732 20.1633 168.476C20.6833 169.212 20.9433 170.292 20.9433 171.716C20.9433 173.148 20.6833 174.236 20.1633 174.98C19.6433 175.724 18.8873 176.096 17.8953 176.096ZM17.8953 175.1C18.5113 175.1 18.9633 174.828 19.2513 174.284C19.5473 173.732 19.6953 172.876 19.6953 171.716C19.6953 170.556 19.5513 169.708 19.2633 169.172C18.9753 168.636 18.5193 168.368 17.8953 168.368C17.2793 168.368 16.8233 168.64 16.5273 169.184C16.2393 169.72 16.0953 170.564 16.0953 171.716C16.0953 172.876 16.2393 173.732 16.5273 174.284C16.8233 174.828 17.2793 175.1 17.8953 175.1Z" fill="#122C53"/>
<path d="M11.044 130.588C11.556 130.588 12.008 130.704 12.4 130.936C12.8 131.16 13.112 131.48 13.336 131.896C13.56 132.304 13.672 132.776 13.672 133.312C13.672 133.848 13.552 134.328 13.312 134.752C13.072 135.168 12.74 135.496 12.316 135.736C11.892 135.976 11.412 136.096 10.876 136.096C9.82 136.096 9.004 135.736 8.428 135.016C7.86 134.296 7.576 133.264 7.576 131.92C7.576 130.968 7.708 130.152 7.972 129.472C8.244 128.784 8.632 128.26 9.136 127.9C9.648 127.54 10.256 127.36 10.96 127.36C11.464 127.36 11.952 127.448 12.424 127.624C12.904 127.8 13.32 128.056 13.672 128.392L13.228 129.304C12.476 128.68 11.732 128.368 10.996 128.368C10.3 128.368 9.764 128.676 9.388 129.292C9.012 129.9 8.824 130.768 8.824 131.896V131.908C9.008 131.492 9.296 131.168 9.688 130.936C10.088 130.704 10.54 130.588 11.044 130.588ZM10.816 135.088C11.312 135.088 11.712 134.928 12.016 134.608C12.32 134.288 12.472 133.864 12.472 133.336C12.472 132.816 12.32 132.396 12.016 132.076C11.712 131.756 11.308 131.596 10.804 131.596C10.3 131.596 9.884 131.76 9.556 132.088C9.236 132.408 9.076 132.824 9.076 133.336C9.076 133.856 9.236 134.28 9.556 134.608C9.876 134.928 10.296 135.088 10.816 135.088ZM17.8953 136.096C16.9033 136.096 16.1473 135.724 15.6273 134.98C15.1073 134.236 14.8473 133.152 14.8473 131.728C14.8473 130.304 15.1073 129.22 15.6273 128.476C16.1473 127.732 16.9033 127.36 17.8953 127.36C18.8873 127.36 19.6433 127.732 20.1633 128.476C20.6833 129.212 20.9433 130.292 20.9433 131.716C20.9433 133.148 20.6833 134.236 20.1633 134.98C19.6433 135.724 18.8873 136.096 17.8953 136.096ZM17.8953 135.1C18.5113 135.1 18.9633 134.828 19.2513 134.284C19.5473 133.732 19.6953 132.876 19.6953 131.716C19.6953 130.556 19.5513 129.708 19.2633 129.172C18.9753 128.636 18.5193 128.368 17.8953 128.368C17.2793 128.368 16.8233 128.64 16.5273 129.184C16.2393 129.72 16.0953 130.564 16.0953 131.716C16.0953 132.876 16.2393 133.732 16.5273 134.284C16.8233 134.828 17.2793 135.1 17.8953 135.1Z" fill="#122C53"/>
<path d="M11.968 91.608C12.52 91.76 12.948 92.02 13.252 92.388C13.564 92.756 13.72 93.2 13.72 93.72C13.72 94.456 13.436 95.036 12.868 95.46C12.308 95.876 11.552 96.084 10.6 96.084C9.648 96.084 8.888 95.876 8.32 95.46C7.76 95.036 7.48 94.456 7.48 93.72C7.48 93.192 7.636 92.744 7.948 92.376C8.26 92.008 8.696 91.752 9.256 91.608C8.76 91.448 8.372 91.196 8.092 90.852C7.82 90.508 7.684 90.104 7.684 89.64C7.684 89.184 7.808 88.784 8.056 88.44C8.304 88.096 8.648 87.832 9.088 87.648C9.528 87.456 10.032 87.36 10.6 87.36C11.168 87.36 11.672 87.456 12.112 87.648C12.552 87.832 12.896 88.096 13.144 88.44C13.392 88.784 13.516 89.184 13.516 89.64C13.516 90.104 13.38 90.512 13.108 90.864C12.836 91.208 12.456 91.456 11.968 91.608ZM8.872 89.748C8.872 90.164 9.028 90.504 9.34 90.768C9.652 91.024 10.072 91.188 10.6 91.26C11.128 91.188 11.548 91.024 11.86 90.768C12.172 90.504 12.328 90.164 12.328 89.748C12.328 89.308 12.172 88.968 11.86 88.728C11.556 88.48 11.136 88.356 10.6 88.356C10.064 88.356 9.64 88.48 9.328 88.728C9.024 88.968 8.872 89.308 8.872 89.748ZM10.6 95.088C11.216 95.088 11.692 94.964 12.028 94.716C12.364 94.468 12.532 94.108 12.532 93.636C12.532 93.196 12.356 92.848 12.004 92.592C11.66 92.328 11.192 92.16 10.6 92.088C10.008 92.16 9.536 92.328 9.184 92.592C8.84 92.848 8.668 93.196 8.668 93.636C8.668 94.108 8.836 94.468 9.172 94.716C9.508 94.964 9.984 95.088 10.6 95.088ZM17.8953 96.096C16.9033 96.096 16.1473 95.724 15.6273 94.98C15.1073 94.236 14.8473 93.152 14.8473 91.728C14.8473 90.304 15.1073 89.22 15.6273 88.476C16.1473 87.732 16.9033 87.36 17.8953 87.36C18.8873 87.36 19.6433 87.732 20.1633 88.476C20.6833 89.212 20.9433 90.292 20.9433 91.716C20.9433 93.148 20.6833 94.236 20.1633 94.98C19.6433 95.724 18.8873 96.096 17.8953 96.096ZM17.8953 95.1C18.5113 95.1 18.9633 94.828 19.2513 94.284C19.5473 93.732 19.6953 92.876 19.6953 91.716C19.6953 90.556 19.5513 89.708 19.2633 89.172C18.9753 88.636 18.5193 88.368 17.8953 88.368C17.2793 88.368 16.8233 88.64 16.5273 89.184C16.2393 89.72 16.0953 90.564 16.0953 91.716C16.0953 92.876 16.2393 93.732 16.5273 94.284C16.8233 94.828 17.2793 95.1 17.8953 95.1Z" fill="#122C53"/>
<path d="M6.444 54.98V56H1.452V54.98H3.324V48.932L1.584 50.012V48.872L3.852 47.456H4.572V54.98H6.444ZM10.8953 56.096C9.90331 56.096 9.14731 55.724 8.62731 54.98C8.10731 54.236 7.84731 53.152 7.84731 51.728C7.84731 50.304 8.10731 49.22 8.62731 48.476C9.14731 47.732 9.90331 47.36 10.8953 47.36C11.8873 47.36 12.6433 47.732 13.1633 48.476C13.6833 49.212 13.9433 50.292 13.9433 51.716C13.9433 53.148 13.6833 54.236 13.1633 54.98C12.6433 55.724 11.8873 56.096 10.8953 56.096ZM10.8953 55.1C11.5113 55.1 11.9633 54.828 12.2513 54.284C12.5473 53.732 12.6953 52.876 12.6953 51.716C12.6953 50.556 12.5513 49.708 12.2633 49.172C11.9753 48.636 11.5193 48.368 10.8953 48.368C10.2793 48.368 9.82331 48.64 9.52731 49.184C9.23931 49.72 9.09531 50.564 9.09531 51.716C9.09531 52.876 9.23931 53.732 9.52731 54.284C9.82331 54.828 10.2793 55.1 10.8953 55.1ZM18.1906 56.096C17.1986 56.096 16.4426 55.724 15.9226 54.98C15.4026 54.236 15.1426 53.152 15.1426 51.728C15.1426 50.304 15.4026 49.22 15.9226 48.476C16.4426 47.732 17.1986 47.36 18.1906 47.36C19.1826 47.36 19.9386 47.732 20.4586 48.476C20.9786 49.212 21.2386 50.292 21.2386 51.716C21.2386 53.148 20.9786 54.236 20.4586 54.98C19.9386 55.724 19.1826 56.096 18.1906 56.096ZM18.1906 55.1C18.8066 55.1 19.2586 54.828 19.5466 54.284C19.8426 53.732 19.9906 52.876 19.9906 51.716C19.9906 50.556 19.8466 49.708 19.5586 49.172C19.2706 48.636 18.8146 48.368 18.1906 48.368C17.5746 48.368 17.1186 48.64 16.8226 49.184C16.5346 49.72 16.3906 50.564 16.3906 51.716C16.3906 52.876 16.5346 53.732 16.8226 54.284C17.1186 54.828 17.5746 55.1 18.1906 55.1Z" fill="#122C53"/>
<path d="M6.444 14.98V16H1.452V14.98H3.324V8.932L1.584 10.012V8.872L3.852 7.456H4.572V14.98H6.444ZM13.8353 14.98V16H8.23131V15.076L11.1713 11.848C11.5473 11.432 11.8193 11.056 11.9873 10.72C12.1633 10.376 12.2513 10.036 12.2513 9.7C12.2513 9.268 12.1273 8.94 11.8793 8.716C11.6313 8.484 11.2713 8.368 10.7993 8.368C10.0073 8.368 9.21531 8.68 8.42331 9.304L7.97931 8.392C8.31531 8.08 8.74331 7.832 9.26331 7.648C9.78331 7.456 10.3073 7.36 10.8353 7.36C11.6513 7.36 12.2953 7.564 12.7673 7.972C13.2473 8.38 13.4873 8.932 13.4873 9.628C13.4873 10.124 13.3793 10.596 13.1633 11.044C12.9473 11.484 12.5873 11.976 12.0833 12.52L9.80331 14.98H13.8353ZM18.1906 16.096C17.1986 16.096 16.4426 15.724 15.9226 14.98C15.4026 14.236 15.1426 13.152 15.1426 11.728C15.1426 10.304 15.4026 9.22 15.9226 8.476C16.4426 7.732 17.1986 7.36 18.1906 7.36C19.1826 7.36 19.9386 7.732 20.4586 8.476C20.9786 9.212 21.2386 10.292 21.2386 11.716C21.2386 13.148 20.9786 14.236 20.4586 14.98C19.9386 15.724 19.1826 16.096 18.1906 16.096ZM18.1906 15.1C18.8066 15.1 19.2586 14.828 19.5466 14.284C19.8426 13.732 19.9906 12.876 19.9906 11.716C19.9906 10.556 19.8466 9.708 19.5586 9.172C19.2706 8.636 18.8146 8.368 18.1906 8.368C17.5746 8.368 17.1186 8.64 16.8226 9.184C16.5346 9.72 16.3906 10.564 16.3906 11.716C16.3906 12.876 16.5346 13.732 16.8226 14.284C17.1186 14.828 17.5746 15.1 18.1906 15.1Z" fill="#122C53"/>
<line x1="31" y1="9" x2="31" y2="252" stroke="#D9E0F2" stroke-width="2"/>
<line x1="31" y1="252" x2="31" y2="265" stroke="#D9E0F2" stroke-width="2"/>
<line x1="228" y1="252" x2="228" y2="265" stroke="#D9E0F2" stroke-width="2"/>
<line x1="425" y1="252" x2="425" y2="265" stroke="#D9E0F2" stroke-width="2"/>
<rect x="23.3896" y="212.25" width="600.36" height="0.5" stroke="#D7E5F2" stroke-width="0.5" stroke-dasharray="2 3"/>
<rect x="24.5303" y="172.25" width="599.22" height="0.5" stroke="#D7E5F2" stroke-width="0.5" stroke-dasharray="2 3"/>
<rect x="23.3896" y="132.25" width="600.36" height="0.5" stroke="#D7E5F2" stroke-width="0.5" stroke-dasharray="2 3"/>
<rect x="24.5303" y="92.25" width="599.22" height="0.5" stroke="#D7E5F2" stroke-width="0.5" stroke-dasharray="2 3"/>
<rect x="22.25" y="52.25" width="601.5" height="0.5" stroke="#D7E5F2" stroke-width="0.5" stroke-dasharray="2 3"/>
<rect x="22.25" y="8.25" width="601.5" height="0.5" stroke="#D7E5F2" stroke-width="0.5" stroke-dasharray="2 3"/>
<line x1="622" y1="252" x2="622" y2="265" stroke="#D9E0F2" stroke-width="2"/>
<line x1="624" y1="252.5" x2="24.2803" y2="252.5" stroke="#D9E0F2"/>
<rect opacity="0.7" x="31" y="53" width="11.3558" height="199" fill="#F9E7E7"/>
<rect x="31" y="67.6804" width="11" height="92.9754" fill="#007EFF"/>
<rect x="31" y="67.6804" width="11" height="92.9754" fill="#007EFF"/>
<rect x="31" y="53" width="11" height="14.6803" fill="#007EFF"/>
<rect x="31" y="53" width="11" height="14.6803" fill="#25CC66"/>
<rect x="31" y="160.471" width="11" height="46.4877" fill="#007EFF"/>
<rect x="31" y="160.471" width="11" height="46.4877" fill="#F6A609"/>
<path opacity="0.7" d="M50 53H62.2293V252H50V53Z" fill="#F9E7E7"/>
<rect x="50.4033" y="62" width="11" height="99" fill="#007EFF"/>
<rect x="50.4033" y="62" width="11" height="99" fill="#007EFF"/>
<rect x="50.4033" y="53" width="11" height="9" fill="#007EFF"/>
<rect x="50.4033" y="53" width="11" height="9" fill="#25CC66"/>
<rect x="50.4033" y="160" width="11" height="33" fill="#007EFF"/>
<rect x="50.4033" y="160" width="11" height="33" fill="#F6A609"/>
<path opacity="0.7" d="M224 53H236.229V252H224V53Z" fill="#F9E7E7"/>
<rect x="224.41" y="67.6804" width="11" height="92.9754" fill="#007EFF"/>
<rect x="224.41" y="67.6804" width="11" height="92.9754" fill="#007EFF"/>
<rect x="224.41" y="53" width="11" height="14.6803" fill="#007EFF"/>
<rect x="224.41" y="53" width="11" height="14.6803" fill="#25CC66"/>
<rect x="224.41" y="160.471" width="11" height="46.4877" fill="#007EFF"/>
<rect x="224.41" y="160.471" width="11" height="46.4877" fill="#F6A609"/>
<path opacity="0.7" d="M108 53H120.229V252H108V53Z" fill="#F9E7E7"/>
<rect x="108.738" y="138" width="11" height="62" fill="#007EFF"/>
<rect x="108.738" y="138" width="11" height="62" fill="#F6A609"/>
<rect x="108.738" y="53" width="11" height="96" fill="#007EFF"/>
<rect x="108.738" y="53" width="11" height="96" fill="#007EFF"/>
<rect opacity="0.7" x="89" y="53" width="11.3558" height="199" fill="#F9E7E7"/>
<rect x="89.3359" y="138" width="11" height="84" fill="#007EFF"/>
<rect x="89.3359" y="138" width="11" height="84" fill="#F6A609"/>
<rect x="89.3359" y="60" width="11" height="89" fill="#007EFF"/>
<rect x="89.3359" y="60" width="11" height="89" fill="#007EFF"/>
<rect x="89.3359" y="53" width="11" height="7" fill="#007EFF"/>
<rect x="89.3359" y="53" width="11" height="7" fill="#25CC66"/>
<path opacity="0.7" d="M70.0674 53H81.4232V252H70.0674V53Z" fill="#F9E7E7"/>
<rect x="70" y="62" width="11" height="76" fill="#007EFF"/>
<rect x="70" y="62" width="11" height="76" fill="#007EFF"/>
<rect x="70" y="53" width="11" height="9" fill="#007EFF"/>
<rect x="70" y="53" width="11" height="9" fill="#25CC66"/>
<rect x="70" y="138" width="11" height="78" fill="#007EFF"/>
<rect x="70" y="138" width="11" height="78" fill="#F6A609"/>
<path opacity="0.7" d="M244.061 53H255.416V252H244.061V53Z" fill="#F9E7E7"/>
<rect x="244" y="62" width="11" height="99" fill="#007EFF"/>
<rect x="244" y="62" width="11" height="99" fill="#007EFF"/>
<rect x="244" y="53" width="11" height="9" fill="#007EFF"/>
<rect x="244" y="53" width="11" height="9" fill="#25CC66"/>
<rect x="244" y="160" width="11" height="33" fill="#007EFF"/>
<rect x="244" y="160" width="11" height="33" fill="#F6A609"/>
<path opacity="0.7" d="M611 53H622.356V252H611V53Z" fill="#F9E7E7"/>
<path opacity="0.7" d="M418.054 53H429.41V252H418.054V53Z" fill="#F9E7E7"/>
<rect x="418" y="67.6804" width="11" height="92.9754" fill="#007EFF"/>
<rect x="418" y="67.6804" width="11" height="92.9754" fill="#007EFF"/>
<rect x="418" y="53" width="11" height="14.6803" fill="#007EFF"/>
<rect x="418" y="53" width="11" height="14.6803" fill="#25CC66"/>
<rect x="418" y="160.471" width="11" height="46.4877" fill="#007EFF"/>
<rect x="418" y="160.471" width="11" height="46.4877" fill="#F6A609"/>
<path opacity="0.7" d="M128 53H139.356V252H128V53Z" fill="#F9E7E7"/>
<rect x="128.269" y="138" width="11" height="84" fill="#007EFF"/>
<rect x="128.269" y="138" width="11" height="84" fill="#F6A609"/>
<rect x="128.269" y="60" width="11" height="89" fill="#007EFF"/>
<rect x="128.269" y="60" width="11" height="89" fill="#007EFF"/>
<rect x="128.269" y="53" width="11" height="27" fill="#007EFF"/>
<rect x="128.269" y="53" width="11" height="27" fill="#25CC66"/>
<rect opacity="0.7" x="147" y="53" width="11.3558" height="199" fill="#F9E7E7"/>
<rect x="147.671" y="138" width="11" height="101" fill="#007EFF"/>
<rect x="147.671" y="138" width="11" height="101" fill="#F6A609"/>
<rect x="147.671" y="60" width="11" height="133" fill="#007EFF"/>
<rect x="147.671" y="60" width="11" height="133" fill="#007EFF"/>
<rect x="147.671" y="53" width="11" height="15" fill="#007EFF"/>
<rect x="147.671" y="53" width="11" height="15" fill="#25CC66"/>
<path opacity="0.7" d="M302 53H313.356V252H302V53Z" fill="#F9E7E7"/>
<rect x="302.274" y="138" width="11" height="62" fill="#007EFF"/>
<rect x="302.274" y="138" width="11" height="62" fill="#F6A609"/>
<rect x="302.274" y="53" width="11" height="96" fill="#007EFF"/>
<rect x="302.274" y="53" width="11" height="96" fill="#007EFF"/>
<path opacity="0.7" d="M166 53H178.229V252H166V53Z" fill="#F9E7E7"/>
<rect x="166.074" y="138" width="11" height="95" fill="#007EFF"/>
<rect x="166.074" y="138" width="11" height="95" fill="#F6A609"/>
<rect x="166.074" y="60" width="11" height="127" fill="#007EFF"/>
<rect x="166.074" y="60" width="11" height="127" fill="#007EFF"/>
<rect x="166.074" y="53" width="11" height="15" fill="#007EFF"/>
<rect x="166.074" y="53" width="11" height="15" fill="#25CC66"/>
<path opacity="0.7" d="M186.396 53H197.752V252H186.396V53Z" fill="#F9E7E7"/>
<rect x="186" y="138" width="11" height="88" fill="#007EFF"/>
<rect x="186" y="138" width="11" height="88" fill="#F6A609"/>
<rect x="186" y="60" width="11" height="122" fill="#007EFF"/>
<rect x="186" y="60" width="11" height="122" fill="#007EFF"/>
<rect x="186" y="53" width="11" height="12" fill="#007EFF"/>
<rect x="186" y="53" width="11" height="12" fill="#25CC66"/>
<rect opacity="0.7" x="205" y="53" width="11.3558" height="199" fill="#F9E7E7"/>
<rect x="205.007" y="138" width="11" height="98" fill="#007EFF"/>
<rect x="205.007" y="138" width="11" height="98" fill="#F6A609"/>
<rect x="205.007" y="60" width="11" height="142" fill="#007EFF"/>
<rect x="205.007" y="60" width="11" height="142" fill="#007EFF"/>
<rect x="205.007" y="53" width="11" height="22" fill="#007EFF"/>
<rect x="205.007" y="53" width="11" height="22" fill="#25CC66"/>
<path opacity="0.7" d="M282 53H294.229V252H282V53Z" fill="#F9E7E7"/>
<rect x="282.745" y="138" width="11" height="84" fill="#007EFF"/>
<rect x="282.745" y="138" width="11" height="84" fill="#F6A609"/>
<rect x="282.745" y="60" width="11" height="89" fill="#007EFF"/>
<rect x="282.745" y="60" width="11" height="89" fill="#007EFF"/>
<rect x="282.745" y="53" width="11" height="7" fill="#007EFF"/>
<rect x="282.745" y="53" width="11" height="7" fill="#25CC66"/>
<rect opacity="0.7" x="263" y="53" width="11.3558" height="199" fill="#F9E7E7"/>
<rect x="263.343" y="62" width="11" height="76" fill="#007EFF"/>
<rect x="263.343" y="62" width="11" height="76" fill="#007EFF"/>
<rect x="263.343" y="53" width="11" height="9" fill="#007EFF"/>
<rect x="263.343" y="53" width="11" height="9" fill="#25CC66"/>
<rect x="263.343" y="138" width="11" height="78" fill="#007EFF"/>
<rect x="263.343" y="138" width="11" height="78" fill="#F6A609"/>
<rect opacity="0.7" x="321" y="53" width="11.3558" height="199" fill="#F9E7E7"/>
<rect x="321.678" y="138" width="11" height="84" fill="#007EFF"/>
<rect x="321.678" y="138" width="11" height="84" fill="#F6A609"/>
<rect x="321.678" y="60" width="11" height="89" fill="#007EFF"/>
<rect x="321.678" y="60" width="11" height="89" fill="#007EFF"/>
<rect x="321.678" y="53" width="11" height="27" fill="#007EFF"/>
<rect x="321.678" y="53" width="11" height="27" fill="#25CC66"/>
<path opacity="0.7" d="M340 53H352.229V252H340V53Z" fill="#F9E7E7"/>
<rect x="341.081" y="138" width="11" height="101" fill="#007EFF"/>
<rect x="341.081" y="138" width="11" height="101" fill="#F6A609"/>
<rect x="341.081" y="60" width="11" height="133" fill="#007EFF"/>
<rect x="341.081" y="60" width="11" height="133" fill="#007EFF"/>
<rect x="341.081" y="53" width="11" height="15" fill="#007EFF"/>
<rect x="341.081" y="53" width="11" height="15" fill="#25CC66"/>
<path opacity="0.7" d="M360.39 53H371.745V252H360.39V53Z" fill="#F9E7E7"/>
<rect x="360" y="138" width="11" height="95" fill="#007EFF"/>
<rect x="360" y="138" width="11" height="95" fill="#F6A609"/>
<rect x="360" y="60" width="11" height="127" fill="#007EFF"/>
<rect x="360" y="60" width="11" height="127" fill="#007EFF"/>
<rect x="360" y="53" width="11" height="15" fill="#007EFF"/>
<rect x="360" y="53" width="11" height="15" fill="#25CC66"/>
<rect opacity="0.7" x="379" y="53" width="11.3558" height="199" fill="#F9E7E7"/>
<rect x="379.014" y="138" width="11" height="88" fill="#007EFF"/>
<rect x="379.014" y="138" width="11" height="88" fill="#F6A609"/>
<rect x="379.014" y="60" width="11" height="122" fill="#007EFF"/>
<rect x="379.014" y="60" width="11" height="122" fill="#007EFF"/>
<rect x="379.014" y="53" width="11" height="12" fill="#007EFF"/>
<rect x="379.014" y="53" width="11" height="12" fill="#25CC66"/>
<path opacity="0.7" d="M398 53H410.229V252H398V53Z" fill="#F9E7E7"/>
<rect x="398.417" y="138" width="11" height="98" fill="#007EFF"/>
<rect x="398.417" y="138" width="11" height="98" fill="#F6A609"/>
<rect x="398.417" y="60" width="11" height="142" fill="#007EFF"/>
<rect x="398.417" y="60" width="11" height="142" fill="#007EFF"/>
<rect x="398.417" y="53" width="11" height="22" fill="#007EFF"/>
<rect x="398.417" y="53" width="11" height="22" fill="#25CC66"/>
<rect opacity="0.7" x="437" y="53" width="11.3558" height="199" fill="#F9E7E7"/>
<rect x="437.35" y="62" width="11" height="99" fill="#007EFF"/>
<rect x="437.35" y="62" width="11" height="99" fill="#007EFF"/>
<rect x="437.35" y="53" width="11" height="9" fill="#007EFF"/>
<rect x="437.35" y="53" width="11" height="9" fill="#25CC66"/>
<rect x="437.35" y="160" width="11" height="33" fill="#007EFF"/>
<rect x="437.35" y="160" width="11" height="33" fill="#F6A609"/>
<rect opacity="0.7" x="495" y="53" width="11.3558" height="199" fill="#F9E7E7"/>
<rect x="495.685" y="138" width="11" height="62" fill="#007EFF"/>
<rect x="495.685" y="138" width="11" height="62" fill="#F6A609"/>
<rect x="495.685" y="53" width="11" height="96" fill="#007EFF"/>
<rect x="495.685" y="53" width="11" height="96" fill="#007EFF"/>
<path opacity="0.7" d="M476 53H487.356V252H476V53Z" fill="#F9E7E7"/>
<rect x="476.281" y="138" width="11" height="84" fill="#007EFF"/>
<rect x="476.281" y="138" width="11" height="84" fill="#F6A609"/>
<rect x="476.281" y="60" width="11" height="89" fill="#007EFF"/>
<rect x="476.281" y="60" width="11" height="89" fill="#007EFF"/>
<rect x="476.281" y="53" width="11" height="7" fill="#007EFF"/>
<rect x="476.281" y="53" width="11" height="7" fill="#25CC66"/>
<path opacity="0.7" d="M456 53H468.229V252H456V53Z" fill="#F9E7E7"/>
<rect x="456.752" y="62" width="11" height="76" fill="#007EFF"/>
<rect x="456.752" y="62" width="11" height="76" fill="#007EFF"/>
<rect x="456.752" y="53" width="11" height="9" fill="#007EFF"/>
<rect x="456.752" y="53" width="11" height="9" fill="#25CC66"/>
<rect x="456.752" y="138" width="11" height="78" fill="#007EFF"/>
<rect x="456.752" y="138" width="11" height="78" fill="#F6A609"/>
<path opacity="0.7" d="M514 53H526.229V252H514V53Z" fill="#F9E7E7"/>
<rect x="515.088" y="138" width="11" height="84" fill="#007EFF"/>
<rect x="515.088" y="138" width="11" height="84" fill="#F6A609"/>
<rect x="515.088" y="60" width="11" height="89" fill="#007EFF"/>
<rect x="515.088" y="60" width="11" height="89" fill="#007EFF"/>
<rect x="515.088" y="53" width="11" height="27" fill="#007EFF"/>
<rect x="515.088" y="53" width="11" height="27" fill="#25CC66"/>
<path opacity="0.7" d="M534 53H545.356V252H534V53Z" fill="#F9E7E7"/>
<rect x="534.617" y="138" width="11" height="101" fill="#007EFF"/>
<rect x="534.617" y="138" width="11" height="101" fill="#F6A609"/>
<rect x="534.617" y="60" width="11" height="133" fill="#007EFF"/>
<rect x="534.617" y="60" width="11" height="133" fill="#007EFF"/>
<rect x="534.617" y="53" width="11" height="15" fill="#007EFF"/>
<rect x="534.617" y="53" width="11" height="15" fill="#25CC66"/>
<rect opacity="0.7" x="553" y="53" width="11.3558" height="199" fill="#F9E7E7"/>
<rect x="553.021" y="138" width="11" height="95" fill="#007EFF"/>
<rect x="553.021" y="138" width="11" height="95" fill="#F6A609"/>
<rect x="553.021" y="60" width="11" height="127" fill="#007EFF"/>
<rect x="553.021" y="60" width="11" height="127" fill="#007EFF"/>
<rect x="553.021" y="53" width="11" height="15" fill="#007EFF"/>
<rect x="553.021" y="53" width="11" height="15" fill="#25CC66"/>
<path opacity="0.7" d="M572 53H584.229V252H572V53Z" fill="#F9E7E7"/>
<rect x="572.423" y="138" width="11" height="88" fill="#007EFF"/>
<rect x="572.423" y="138" width="11" height="88" fill="#F6A609"/>
<rect x="572.423" y="60" width="11" height="122" fill="#007EFF"/>
<rect x="572.423" y="60" width="11" height="122" fill="#007EFF"/>
<rect x="572.423" y="53" width="11" height="12" fill="#007EFF"/>
<rect x="572.423" y="53" width="11" height="12" fill="#25CC66"/>
<path opacity="0.7" d="M592.047 53H603.403V252H592.047V53Z" fill="#F9E7E7"/>
<rect x="592" y="138" width="11" height="98" fill="#007EFF"/>
<rect x="592" y="138" width="11" height="98" fill="#F6A609"/>
<rect x="592" y="60" width="11" height="142" fill="#007EFF"/>
<rect x="592" y="60" width="11" height="142" fill="#007EFF"/>
<rect x="592" y="53" width="11" height="22" fill="#007EFF"/>
<rect x="592" y="53" width="11" height="22" fill="#25CC66"/>
<path d="M61.6 325.096C60.624 325.096 59.88 324.728 59.368 323.992C58.864 323.248 58.612 322.16 58.612 320.728C58.612 319.296 58.864 318.212 59.368 317.476C59.872 316.732 60.616 316.36 61.6 316.36C62.584 316.36 63.328 316.732 63.832 317.476C64.336 318.212 64.588 319.292 64.588 320.716C64.588 322.148 64.332 323.236 63.82 323.98C63.316 324.724 62.576 325.096 61.6 325.096ZM61.6 324.268C62.28 324.268 62.78 323.98 63.1 323.404C63.428 322.828 63.592 321.932 63.592 320.716C63.592 319.5 63.428 318.612 63.1 318.052C62.78 317.484 62.28 317.2 61.6 317.2C60.92 317.2 60.416 317.484 60.088 318.052C59.768 318.62 59.608 319.508 59.608 320.716C59.608 321.932 59.768 322.828 60.088 323.404C60.416 323.98 60.92 324.268 61.6 324.268ZM69.6002 322.18V321.376H72.9962V322.18H69.6002ZM80.9137 325.084C80.3617 325.084 79.8297 324.992 79.3177 324.808C78.8137 324.624 78.3857 324.364 78.0337 324.028L78.4177 323.272C78.8017 323.6 79.1977 323.848 79.6057 324.016C80.0137 324.176 80.4417 324.256 80.8897 324.256C81.4977 324.256 81.9577 324.12 82.2697 323.848C82.5897 323.576 82.7497 323.176 82.7497 322.648C82.7497 322.12 82.5857 321.728 82.2577 321.472C81.9297 321.208 81.4377 321.076 80.7817 321.076H79.7977V320.248H80.5897C81.2217 320.248 81.7057 320.108 82.0417 319.828C82.3777 319.548 82.5457 319.148 82.5457 318.628C82.5457 318.164 82.4057 317.808 82.1257 317.56C81.8537 317.312 81.4657 317.188 80.9617 317.188C80.5377 317.188 80.1257 317.272 79.7257 317.44C79.3257 317.6 78.9297 317.844 78.5377 318.172L78.1657 317.416C78.5097 317.088 78.9337 316.832 79.4377 316.648C79.9417 316.456 80.4617 316.36 80.9977 316.36C81.5097 316.36 81.9577 316.452 82.3417 316.636C82.7257 316.812 83.0177 317.064 83.2177 317.392C83.4257 317.72 83.5297 318.108 83.5297 318.556C83.5297 319.084 83.3897 319.536 83.1097 319.912C82.8377 320.28 82.4617 320.532 81.9817 320.668L81.9457 320.548C82.5217 320.668 82.9617 320.912 83.2657 321.28C83.5697 321.648 83.7217 322.116 83.7217 322.684C83.7217 323.428 83.4697 324.016 82.9657 324.448C82.4617 324.872 81.7777 325.084 80.9137 325.084Z" fill="#0E2446"/>
<circle cx="40" cy="320" r="6" fill="#25CC66"/>
<path d="M394.42 324.556V317.032L394.984 317.32L392.668 318.796V317.848L394.852 316.456H395.416V324.556H394.42ZM392.536 325V324.172H397.3V325H392.536ZM401.815 324.556V317.032L402.379 317.32L400.063 318.796V317.848L402.247 316.456H402.811V324.556H401.815ZM399.931 325V324.172H404.695V325H399.931ZM409.996 322.18V321.376H413.392V322.18H409.996ZM421.309 325.084C420.757 325.084 420.225 324.992 419.713 324.808C419.209 324.624 418.781 324.364 418.429 324.028L418.813 323.272C419.197 323.6 419.593 323.848 420.001 324.016C420.409 324.176 420.837 324.256 421.285 324.256C421.893 324.256 422.353 324.12 422.665 323.848C422.985 323.576 423.145 323.176 423.145 322.648C423.145 322.12 422.981 321.728 422.653 321.472C422.325 321.208 421.833 321.076 421.177 321.076H420.193V320.248H420.985C421.617 320.248 422.101 320.108 422.437 319.828C422.773 319.548 422.941 319.148 422.941 318.628C422.941 318.164 422.801 317.808 422.521 317.56C422.249 317.312 421.861 317.188 421.357 317.188C420.933 317.188 420.521 317.272 420.121 317.44C419.721 317.6 419.325 317.844 418.933 318.172L418.561 317.416C418.905 317.088 419.329 316.832 419.833 316.648C420.337 316.456 420.857 316.36 421.393 316.36C421.905 316.36 422.353 316.452 422.737 316.636C423.121 316.812 423.413 317.064 423.613 317.392C423.821 317.72 423.925 318.108 423.925 318.556C423.925 319.084 423.785 319.536 423.505 319.912C423.233 320.28 422.857 320.532 422.377 320.668L422.341 320.548C422.917 320.668 423.357 320.912 423.661 321.28C423.965 321.648 424.117 322.116 424.117 322.684C424.117 323.428 423.865 324.016 423.361 324.448C422.857 324.872 422.173 325.084 421.309 325.084ZM428.788 325.096C427.812 325.096 427.068 324.728 426.556 323.992C426.052 323.248 425.8 322.16 425.8 320.728C425.8 319.296 426.052 318.212 426.556 317.476C427.06 316.732 427.804 316.36 428.788 316.36C429.772 316.36 430.516 316.732 431.02 317.476C431.524 318.212 431.776 319.292 431.776 320.716C431.776 322.148 431.52 323.236 431.008 323.98C430.504 324.724 429.764 325.096 428.788 325.096ZM428.788 324.268C429.468 324.268 429.968 323.98 430.288 323.404C430.616 322.828 430.78 321.932 430.78 320.716C430.78 319.5 430.616 318.612 430.288 318.052C429.968 317.484 429.468 317.2 428.788 317.2C428.108 317.2 427.604 317.484 427.276 318.052C426.956 318.62 426.796 319.508 426.796 320.716C426.796 321.932 426.956 322.828 427.276 323.404C427.604 323.98 428.108 324.268 428.788 324.268Z" fill="#0E2446"/>
<circle cx="373" cy="321" r="6" fill="#F6A609"/>
<path d="M227.516 325.084C226.964 325.084 226.432 324.992 225.92 324.808C225.416 324.624 224.988 324.364 224.636 324.028L225.02 323.272C225.404 323.6 225.8 323.848 226.208 324.016C226.616 324.176 227.044 324.256 227.492 324.256C228.1 324.256 228.56 324.12 228.872 323.848C229.192 323.576 229.352 323.176 229.352 322.648C229.352 322.12 229.188 321.728 228.86 321.472C228.532 321.208 228.04 321.076 227.384 321.076H226.4V320.248H227.192C227.824 320.248 228.308 320.108 228.644 319.828C228.98 319.548 229.148 319.148 229.148 318.628C229.148 318.164 229.008 317.808 228.728 317.56C228.456 317.312 228.068 317.188 227.564 317.188C227.14 317.188 226.728 317.272 226.328 317.44C225.928 317.6 225.532 317.844 225.14 318.172L224.768 317.416C225.112 317.088 225.536 316.832 226.04 316.648C226.544 316.456 227.064 316.36 227.6 316.36C228.112 316.36 228.56 316.452 228.944 316.636C229.328 316.812 229.62 317.064 229.82 317.392C230.028 317.72 230.132 318.108 230.132 318.556C230.132 319.084 229.992 319.536 229.712 319.912C229.44 320.28 229.064 320.532 228.584 320.668L228.548 320.548C229.124 320.668 229.564 320.912 229.868 321.28C230.172 321.648 230.324 322.116 230.324 322.684C230.324 323.428 230.072 324.016 229.568 324.448C229.064 324.872 228.38 325.084 227.516 325.084ZM232.271 322.18V321.376H235.667V322.18H232.271ZM240.16 324.556V317.032L240.724 317.32L238.408 318.796V317.848L240.592 316.456H241.156V324.556H240.16ZM238.276 325V324.172H243.04V325H238.276ZM247.735 325.096C246.759 325.096 246.015 324.728 245.503 323.992C244.999 323.248 244.747 322.16 244.747 320.728C244.747 319.296 244.999 318.212 245.503 317.476C246.007 316.732 246.751 316.36 247.735 316.36C248.719 316.36 249.463 316.732 249.967 317.476C250.471 318.212 250.723 319.292 250.723 320.716C250.723 322.148 250.467 323.236 249.955 323.98C249.451 324.724 248.711 325.096 247.735 325.096ZM247.735 324.268C248.415 324.268 248.915 323.98 249.235 323.404C249.563 322.828 249.727 321.932 249.727 320.716C249.727 319.5 249.563 318.612 249.235 318.052C248.915 317.484 248.415 317.2 247.735 317.2C247.055 317.2 246.551 317.484 246.223 318.052C245.903 318.62 245.743 319.508 245.743 320.716C245.743 321.932 245.903 322.828 246.223 323.404C246.551 323.98 247.055 324.268 247.735 324.268Z" fill="#0E2446"/>
<circle cx="206" cy="321" r="6" fill="#007EFF"/>
<path d="M575.516 325.084C574.964 325.084 574.432 324.992 573.92 324.808C573.416 324.624 572.988 324.364 572.636 324.028L573.02 323.272C573.404 323.6 573.8 323.848 574.208 324.016C574.616 324.176 575.044 324.256 575.492 324.256C576.1 324.256 576.56 324.12 576.872 323.848C577.192 323.576 577.352 323.176 577.352 322.648C577.352 322.12 577.188 321.728 576.86 321.472C576.532 321.208 576.04 321.076 575.384 321.076H574.4V320.248H575.192C575.824 320.248 576.308 320.108 576.644 319.828C576.98 319.548 577.148 319.148 577.148 318.628C577.148 318.164 577.008 317.808 576.728 317.56C576.456 317.312 576.068 317.188 575.564 317.188C575.14 317.188 574.728 317.272 574.328 317.44C573.928 317.6 573.532 317.844 573.14 318.172L572.768 317.416C573.112 317.088 573.536 316.832 574.04 316.648C574.544 316.456 575.064 316.36 575.6 316.36C576.112 316.36 576.56 316.452 576.944 316.636C577.328 316.812 577.62 317.064 577.82 317.392C578.028 317.72 578.132 318.108 578.132 318.556C578.132 319.084 577.992 319.536 577.712 319.912C577.44 320.28 577.064 320.532 576.584 320.668L576.548 320.548C577.124 320.668 577.564 320.912 577.868 321.28C578.172 321.648 578.324 322.116 578.324 322.684C578.324 323.428 578.072 324.016 577.568 324.448C577.064 324.872 576.38 325.084 575.516 325.084ZM582.815 324.556V317.032L583.379 317.32L581.063 318.796V317.848L583.247 316.456H583.811V324.556H582.815ZM580.931 325V324.172H585.695V325H580.931ZM590.996 322.18V321.376H594.392V322.18H590.996ZM602.213 324.556V317.032L602.777 317.32L600.461 318.796V317.848L602.645 316.456H603.209V324.556H602.213ZM600.329 325V324.172H605.093V325H600.329ZM609.788 325.096C608.812 325.096 608.068 324.728 607.556 323.992C607.052 323.248 606.8 322.16 606.8 320.728C606.8 319.296 607.052 318.212 607.556 317.476C608.06 316.732 608.804 316.36 609.788 316.36C610.772 316.36 611.516 316.732 612.02 317.476C612.524 318.212 612.776 319.292 612.776 320.716C612.776 322.148 612.52 323.236 612.008 323.98C611.504 324.724 610.764 325.096 609.788 325.096ZM609.788 324.268C610.468 324.268 610.968 323.98 611.288 323.404C611.616 322.828 611.78 321.932 611.78 320.716C611.78 319.5 611.616 318.612 611.288 318.052C610.968 317.484 610.468 317.2 609.788 317.2C609.108 317.2 608.604 317.484 608.276 318.052C607.956 318.62 607.796 319.508 607.796 320.716C607.796 321.932 607.956 322.828 608.276 323.404C608.604 323.98 609.108 324.268 609.788 324.268ZM617.184 325.096C616.208 325.096 615.464 324.728 614.952 323.992C614.448 323.248 614.196 322.16 614.196 320.728C614.196 319.296 614.448 318.212 614.952 317.476C615.456 316.732 616.2 316.36 617.184 316.36C618.168 316.36 618.912 316.732 619.416 317.476C619.92 318.212 620.172 319.292 620.172 320.716C620.172 322.148 619.916 323.236 619.404 323.98C618.9 324.724 618.16 325.096 617.184 325.096ZM617.184 324.268C617.864 324.268 618.364 323.98 618.684 323.404C619.012 322.828 619.176 321.932 619.176 320.716C619.176 319.5 619.012 318.612 618.684 318.052C618.364 317.484 617.864 317.2 617.184 317.2C616.504 317.2 616 317.484 615.672 318.052C615.352 318.62 615.192 319.508 615.192 320.716C615.192 321.932 615.352 322.828 615.672 323.404C616 323.98 616.504 324.268 617.184 324.268Z" fill="#0E2446"/>
<circle cx="554" cy="320" r="5.5" fill="#F8D7D7" stroke="#FB4E4E"/>
</svg>
