<svg width="24" height="24" viewBox="0 0 24 24" fill="none" xmlns="http://www.w3.org/2000/svg">
<path d="M16.0005 0.685791L14.6001 4.56848C15.8927 8.83426 15.8927 15.1657 14.6001 19.4317L16.0005 23.314C20.6605 21.6662 23.9998 17.2241 23.9998 11.9996C23.9998 6.77593 20.6605 2.33367 16.0005 0.685791Z" fill="#E63026"/>
<path d="M16.0007 4.56845V0.685764C14.7493 0.24319 13.4033 9.15527e-05 12 9.15527e-05C13.8504 9.15527e-05 11.2847 6.27126 16.0007 4.56845Z" fill="#F3F4F5"/>
<path d="M11.9999 23.9999C13.4031 23.9999 14.7491 23.7568 16.0006 23.3142V19.4319C11.332 18.966 11.9999 23.9999 11.9999 23.9999Z" fill="#F3F4F5"/>
<path d="M0 11.9998C0 17.2417 3.36199 21.6955 8.04617 23.3301V0.670288C3.36199 2.30485 0 6.7586 0 11.9998Z" fill="#359846"/>
<path d="M16.001 4.56848V19.4317C17.2937 15.1657 17.2937 8.83421 16.001 4.56848Z" fill="#E63026"/>
<path d="M16.0009 19.4318V4.56845C15.1839 1.87152 13.8505 9.15527e-05 12.0001 9.15527e-05C10.6143 9.15527e-05 9.28478 0.238073 8.04639 0.67026V23.3301C9.28478 23.7623 10.6143 23.9999 12.0001 23.9999C13.8505 23.9999 15.1839 22.1285 16.0009 19.4318Z" fill="#F3F4F5"/>
</svg>
