<svg width="24" height="24" viewBox="0 0 24 24" fill="none" xmlns="http://www.w3.org/2000/svg">
<path d="M12.0005 24C18.6276 24 24 18.6276 24 12.0005C24 5.37336 18.6276 0.00100708 12.0005 0.00100708C5.37333 0.00100708 0.000976562 5.37336 0.000976562 12.0005C0.000976562 18.6276 5.37333 24 12.0005 24Z" fill="white"/>
<path d="M23.3138 7.99918H15.9204C16.2414 10.5626 16.2435 13.3871 15.9265 15.9537H23.3298C23.7618 14.7153 23.9995 13.3857 23.9995 12.0001C23.9997 10.5967 23.7564 9.25065 23.3138 7.99918Z" fill="#EFEFEF"/>
<path d="M15.9205 7.99916H23.314C23.3127 7.99536 23.3115 7.99217 23.3102 7.98872C21.7743 3.65836 17.8239 0.472357 13.0774 0.0494385C14.9142 1.0563 15.4506 4.2463 15.9205 7.99916Z" fill="#E73B36"/>
<path d="M13.0776 23.9504C17.8326 23.5267 21.7887 20.3297 23.3185 15.9877C23.3225 15.9762 23.3259 15.9648 23.33 15.9536H15.9265C15.4607 19.7268 14.922 22.9393 13.0776 23.9504Z" fill="#3757A6"/>
<path d="M0 12.0001C0 13.3857 0.237781 14.7153 0.669769 15.9537H16.5444C16.8614 13.3869 16.8593 10.5626 16.5384 7.99918H0.685678C0.24305 9.25065 0 10.5967 0 12.0001Z" fill="#EFEFEF"/>
<path d="M0.689347 7.98879C0.68803 7.99218 0.686864 7.99542 0.685547 7.99922H16.5384C16.0685 4.24631 14.9142 1.05636 13.0777 0.0495018C12.7225 0.0179868 12.3632 0 11.9998 0C6.77969 0 2.34013 3.33415 0.689347 7.98879Z" fill="#E73B36"/>
<path d="M16.5443 15.9536H0.669678C0.67368 15.9648 0.677278 15.9762 0.68123 15.9877C2.32548 20.6543 6.77086 24 11.9996 24C12.363 24 12.7223 23.9822 13.0775 23.9503C14.9218 22.9393 16.0784 19.7268 16.5443 15.9536Z" fill="#3757A6"/>
</svg>
